<svg width="35" height="34" viewBox="0 0 35 34" fill="none" xmlns="http://www.w3.org/2000/svg">
<circle cx="17.8774" cy="17.0056" r="16.1337" stroke="black" stroke-width="1.61337" stroke-linecap="round" stroke-linejoin="round" stroke-dasharray="4.03 4.03"/>
<path d="M23.5247 17.409C23.5247 17.6016 23.4482 17.7862 23.312 17.9224C23.1759 18.0586 22.9912 18.135 22.7987 18.135H18.2005V22.7332C18.2005 22.9257 18.124 23.1104 17.9879 23.2465C17.8517 23.3827 17.6671 23.4592 17.4745 23.4592C17.2819 23.4592 17.0973 23.3827 16.9611 23.2465C16.825 23.1104 16.7485 22.9257 16.7485 22.7332V18.135H12.1503C11.9578 18.135 11.7731 18.0586 11.637 17.9224C11.5008 17.7862 11.4243 17.6016 11.4243 17.409C11.4243 17.2165 11.5008 17.0318 11.637 16.8957C11.7731 16.7595 11.9578 16.683 12.1503 16.683H16.7485V12.0849C16.7485 11.8923 16.825 11.7077 16.9611 11.5715C17.0973 11.4354 17.2819 11.3589 17.4745 11.3589C17.6671 11.3589 17.8517 11.4354 17.9879 11.5715C18.124 11.7077 18.2005 11.8923 18.2005 12.0849V16.683H22.7987C22.9912 16.683 23.1759 16.7595 23.312 16.8957C23.4482 17.0318 23.5247 17.2165 23.5247 17.409Z" fill="#181818"/>
</svg>
