<svg width="130" height="140" viewBox="0 0 130 140" fill="none" xmlns="http://www.w3.org/2000/svg">
<path d="M25.5 23.0938H0.8125V18.1562C0.8125 14.0828 4.14526 10.75 8.21875 10.75H25.5V23.0938ZM69.9375 23.0938H30.4375V10.75H37.7943C39.0534 4.89906 44.0156 0.875 49.8912 0.875C55.7422 0.875 60.7044 4.89906 61.9635 10.6512L69.9375 10.6759L69.9375 23.0938ZM52.6562 13.194C52.6562 11.8363 51.5453 10.7253 50.1875 10.7253C48.8297 10.7253 47.7188 11.8363 47.7188 13.194C47.7188 14.5518 48.8297 15.6628 50.1875 15.6628C51.5453 15.6628 52.6562 14.5518 52.6562 13.194ZM99.5625 18.1562C99.5625 14.0828 96.2297 10.75 92.1562 10.75L74.875 10.6759V23.0938H99.5625V18.1562ZM79.3434 134.657C81.0716 136.385 82.9479 137.891 84.9475 139.125H8.21875C4.14526 139.125 0.8125 135.792 0.8125 131.719V28.0312H99.5625V79.9984C83.0219 81.2328 69.9375 95.1072 69.9375 111.969C69.9375 116.289 70.7522 120.437 72.3568 124.263C73.9863 128.164 76.3316 131.669 79.3434 134.657ZM39.2757 46.5469C39.2757 47.9047 40.3866 49.0156 41.7444 49.0156H84.75C86.1078 49.0156 87.2188 47.9047 87.2188 46.5469C87.2188 45.1891 86.1078 44.0781 84.75 44.0781H41.7444C40.3866 44.0781 39.2757 45.1891 39.2757 46.5469ZM39.2757 63.8281C39.2757 65.1859 40.3866 66.2969 41.7444 66.2969H84.75C86.1078 66.2969 87.2188 65.1859 87.2188 63.8281C87.2188 62.4703 86.1078 61.3594 84.75 61.3594H41.7444C40.3866 61.3594 39.2757 62.4703 39.2757 63.8281ZM32.1904 74.419C31.2275 73.4562 29.6475 73.4562 28.6846 74.419L20.5625 82.5659L17.3779 79.3565C16.415 78.3937 14.835 78.3937 13.8721 79.3565C12.9094 80.3441 12.9094 81.8994 13.8721 82.8621L18.8096 87.7996C19.3034 88.2687 19.9206 88.5156 20.5625 88.5156C21.2044 88.5156 21.8216 88.2687 22.3154 87.7996L32.1904 77.9246C33.1531 76.9619 33.1531 75.4066 32.1904 74.419ZM32.1904 57.1378C31.2275 56.1749 29.6475 56.1749 28.6846 57.1378L20.5625 65.2846L17.3779 62.0753C16.415 61.1124 14.835 61.1124 13.8721 62.0753C12.9094 63.0628 12.9094 64.6182 13.8721 65.5808L18.8096 70.5183C19.3034 70.9874 19.9206 71.2344 20.5625 71.2344C21.2044 71.2344 21.8216 70.9874 22.3154 70.5183L32.1904 60.6433C33.1531 59.6807 33.1531 58.1253 32.1904 57.1378ZM32.1904 39.8565C31.2275 38.8937 29.6475 38.8937 28.6846 39.8565L20.5625 48.0034L17.3779 44.794C16.415 43.8312 14.835 43.8312 13.8721 44.794C12.9094 45.7816 12.9094 47.3369 13.8721 48.2996L18.8096 53.2371C19.3034 53.7062 19.9206 53.9531 20.5625 53.9531C21.2044 53.9531 21.8216 53.7062 22.3154 53.2371L32.1904 43.3621C33.1531 42.3994 33.1531 40.8441 32.1904 39.8565ZM41.7444 83.5781H74.1591C75.5169 83.5781 76.6279 82.4672 76.6279 81.1094C76.6279 79.7516 75.5169 78.6406 74.1591 78.6406H41.7444C40.3866 78.6406 39.2757 79.7516 39.2757 81.1094C39.2757 82.4672 40.3866 83.5781 41.7444 83.5781ZM102.031 121.548C95.2175 121.548 89.6875 127.077 89.6875 133.891V136.138C93.4648 138.088 97.6615 139.125 102.031 139.125C106.475 139.125 110.672 138.039 114.375 136.138V133.891C114.375 127.077 108.845 121.548 102.031 121.548ZM109.438 109.204C109.438 105.13 106.105 101.798 102.031 101.798C97.9332 101.798 94.625 105.13 94.625 109.204C94.625 113.277 97.9332 116.61 102.031 116.61C106.105 116.61 109.438 113.277 109.438 109.204ZM121.09 92.8112C116.078 87.6269 109.339 84.8125 102.031 84.8125C87.0459 84.8125 74.875 96.9834 74.875 111.969C74.875 119.227 77.6894 126.041 82.8245 131.176C83.4662 131.793 84.1081 132.385 84.7994 132.953C85.1451 126.682 88.7988 121.301 94.0819 118.56C91.4156 116.289 89.6875 112.956 89.6875 109.204C89.6875 102.39 95.2175 96.86 102.031 96.86C108.845 96.86 114.375 102.39 114.375 109.204C114.375 112.956 112.647 116.289 109.981 118.56C115.239 121.301 118.918 126.682 119.263 132.928C125.312 127.966 129.188 120.412 129.188 111.969C129.188 104.562 126.299 97.7734 121.09 92.8112Z" fill="#5063BF"/>
</svg>
