<svg width="212" height="212" viewBox="0 0 212 212" fill="none" xmlns="http://www.w3.org/2000/svg">
<path d="M106 165.625C115.147 165.625 122.562 158.21 122.562 149.062C122.562 139.915 115.147 132.5 106 132.5C96.8528 132.5 89.4375 139.915 89.4375 149.062C89.4375 158.21 96.8528 165.625 106 165.625Z" fill="#5063BF"/>
<path d="M69.5625 165.625C78.7097 165.625 86.125 158.21 86.125 149.062C86.125 139.915 78.7097 132.5 69.5625 132.5C60.4153 132.5 53 139.915 53 149.062C53 158.21 60.4153 165.625 69.5625 165.625Z" fill="#5063BF"/>
<path d="M142.438 165.625C151.585 165.625 159 158.21 159 149.062C159 139.915 151.585 132.5 142.438 132.5C133.29 132.5 125.875 139.915 125.875 149.062C125.875 158.21 133.29 165.625 142.438 165.625Z" fill="#5063BF"/>
<path d="M178.875 165.625C188.022 165.625 195.438 158.21 195.438 149.062C195.438 139.915 188.022 132.5 178.875 132.5C169.728 132.5 162.312 139.915 162.312 149.062C162.312 158.21 169.728 165.625 178.875 165.625Z" fill="#5063BF"/>
<path d="M33.125 165.625C42.2722 165.625 49.6875 158.21 49.6875 149.062C49.6875 139.915 42.2722 132.5 33.125 132.5C23.9778 132.5 16.5625 139.915 16.5625 149.062C16.5625 158.21 23.9778 165.625 33.125 165.625Z" fill="#5063BF"/>
<path d="M202.062 205.375V185.5C202.062 181.107 200.318 176.895 197.211 173.789C194.105 170.682 189.893 168.938 185.5 168.938H172.25C167.91 168.947 163.747 170.66 160.656 173.707C157.566 170.66 153.403 168.947 149.062 168.938H135.812C131.472 168.947 127.309 170.66 124.219 173.707C121.128 170.66 116.965 168.947 112.625 168.938H99.375C95.0347 168.947 90.8715 170.66 87.7812 173.707C84.691 170.66 80.5278 168.947 76.1875 168.938H62.9375C58.5972 168.947 54.434 170.66 51.3438 173.707C48.2535 170.66 44.0903 168.947 39.75 168.938H26.5C22.1074 168.938 17.8946 170.682 14.7885 173.789C11.6825 176.895 9.9375 181.107 9.9375 185.5V205.375C9.9375 206.254 10.2865 207.096 10.9077 207.717C11.5289 208.339 12.3715 208.688 13.25 208.688H198.75C199.629 208.688 200.471 208.339 201.092 207.717C201.714 207.096 202.062 206.254 202.062 205.375ZM82.8125 185.5V202.062H53V185.5C53 182.864 54.047 180.337 55.9106 178.473C57.7743 176.609 60.3019 175.562 62.9375 175.562H76.1875C77.6994 175.584 79.1865 175.95 80.5355 176.633C81.8844 177.316 83.0597 178.298 83.9719 179.504C83.2126 181.412 82.8193 183.446 82.8125 185.5ZM106 195.438L102.688 182.188L104.907 175.562H107.093L109.312 182.188L106 195.438ZM159 202.062H129.188V185.5C129.181 183.446 128.787 181.412 128.028 179.504C128.94 178.298 130.116 177.316 131.465 176.633C132.814 175.95 134.301 175.584 135.812 175.562H149.062C151.698 175.562 154.226 176.609 156.089 178.473C157.953 180.337 159 182.864 159 185.5V202.062Z" fill="#5063BF"/>
<path d="M89.4375 53H96.0625V59.625H89.4375V53Z" fill="#5063BF"/>
<path d="M89.4375 66.25H96.0625V72.875H89.4375V66.25Z" fill="#5063BF"/>
<path d="M89.4375 79.5H96.0625V86.125H89.4375V79.5Z" fill="#5063BF"/>
<path d="M102.688 53H109.312V59.625H102.688V53Z" fill="#5063BF"/>
<path d="M102.688 66.25H109.312V72.875H102.688V66.25Z" fill="#5063BF"/>
<path d="M102.688 79.5H109.312V86.125H102.688V79.5Z" fill="#5063BF"/>
<path d="M115.938 53H122.562V59.625H115.938V53Z" fill="#5063BF"/>
<path d="M115.938 66.25H122.562V72.875H115.938V66.25Z" fill="#5063BF"/>
<path d="M115.938 79.5H122.562V86.125H115.938V79.5Z" fill="#5063BF"/>
<path d="M125.875 19.875H86.125C85.2465 19.875 84.4039 20.224 83.7827 20.8452C83.1615 21.4664 82.8125 22.309 82.8125 23.1875V39.75H79.5C78.6215 39.75 77.7789 40.099 77.1577 40.7202C76.5365 41.3414 76.1875 42.184 76.1875 43.0625V53.6956L52.2381 59.3931C51.497 59.568 50.8388 59.9928 50.3742 60.5962C49.9097 61.1995 49.6672 61.9444 49.6875 62.7056V119.25H39.75V125.875H172.25V119.25H162.312V62.6062C162.333 61.8451 162.09 61.1001 161.626 60.4968C161.161 59.8935 160.503 59.4686 159.762 59.2937L135.812 53.6956V43.0625C135.812 42.184 135.464 41.3414 134.842 40.7202C134.221 40.099 133.379 39.75 132.5 39.75H129.188V23.1875C129.188 22.309 128.839 21.4664 128.217 20.8452C127.596 20.224 126.754 19.875 125.875 19.875ZM69.5625 119.25H62.9375V109.312H69.5625V119.25ZM69.5625 102.688H62.9375V96.0625H69.5625V102.688ZM69.5625 89.4375H62.9375V82.8125H69.5625V89.4375ZM69.5625 76.1875H62.9375V69.5625H69.5625V76.1875ZM142.438 69.5625H149.062V76.1875H142.438V69.5625ZM142.438 82.8125H149.062V89.4375H142.438V82.8125ZM142.438 96.0625H149.062V102.688H142.438V96.0625ZM142.438 109.312H149.062V119.25H142.438V109.312ZM109.312 29.8125H115.938V36.4375H109.312V29.8125ZM96.0625 29.8125H102.688V36.4375H96.0625V29.8125ZM129.188 119.25H119.25V96.0625C119.25 95.184 118.901 94.3414 118.28 93.7202C117.659 93.099 116.816 92.75 115.938 92.75H96.0625C95.184 92.75 94.3414 93.099 93.7202 93.7202C93.099 94.3414 92.75 95.184 92.75 96.0625V119.25H82.8125V46.375H129.188V119.25Z" fill="#5063BF"/>
<path d="M10.1362 99.6069L3.51125 99.1763C3.3125 101.429 3.3125 103.714 3.3125 106H9.9375C9.9375 103.847 9.9375 101.727 10.1362 99.6069Z" fill="#5063BF"/>
<path d="M63.5009 19.8751L60.5859 13.9457C56.5719 15.9019 52.6882 18.1148 48.959 20.5707L52.6359 26.0694C56.1226 23.7765 59.7516 21.7076 63.5009 19.8751Z" fill="#5063BF"/>
<path d="M112.194 10.1362L112.625 3.51124C108.157 3.22965 103.676 3.22965 99.209 3.51124L99.6396 10.1362C103.82 9.87164 108.013 9.87164 112.194 10.1362Z" fill="#5063BF"/>
<path d="M42.6978 33.7543L38.3253 28.7524C34.9638 31.6999 31.7991 34.8646 28.8516 38.2262L33.8203 42.6318C36.5774 39.4773 39.5433 36.5114 42.6978 33.7543Z" fill="#5063BF"/>
<path d="M178.113 42.5325L183.082 38.16C180.123 34.7982 176.947 31.6335 173.575 28.6863L169.235 33.6882C172.39 36.4338 175.355 39.3886 178.113 42.5325Z" fill="#5063BF"/>
<path d="M198.021 60.3538C196.069 56.3481 193.856 52.4752 191.396 48.76L185.897 52.47C188.206 55.9417 190.286 59.5599 192.125 63.3019L198.021 60.3538Z" fill="#5063BF"/>
<path d="M138.893 8.71191C134.657 7.31117 130.33 6.20437 125.941 5.39941L124.649 12.0244C128.76 12.8587 132.81 13.9653 136.773 15.3369L138.893 8.71191Z" fill="#5063BF"/>
<path d="M162.942 20.5375C159.213 18.0816 155.329 15.8687 151.315 13.9125L148.367 19.875C152.14 21.7082 155.781 23.8 159.265 26.1356L162.942 20.5375Z" fill="#5063BF"/>
<path d="M87.2181 11.7594L85.9263 5.1344C81.5022 6.0539 77.1426 7.25998 72.875 8.74502L75.0281 15.0057C79.0195 13.6695 83.0908 12.5852 87.2181 11.7594Z" fill="#5063BF"/>
<path d="M26.1687 52.5694L20.6699 48.8594C18.2146 52.589 16.0017 56.4726 14.0449 60.4863L20.0074 63.4344C21.822 59.6822 23.8801 56.0528 26.1687 52.5694Z" fill="#5063BF"/>
<path d="M200.175 86.9863L206.8 85.6944C205.979 81.3095 204.873 76.983 203.487 72.7426L197.227 74.8957C198.47 78.8577 199.455 82.8964 200.175 86.9863Z" fill="#5063BF"/>
<path d="M15.0389 75.0281L8.77832 72.875C7.37752 77.1222 6.27073 81.4608 5.46582 85.86L12.0908 87.1519C12.8061 83.0502 13.7909 79.0002 15.0389 75.0281Z" fill="#5063BF"/>
<path d="M201.863 99.6069C201.863 101.727 202.062 103.847 202.062 106H208.687C208.687 103.714 208.687 101.429 208.455 99.1763L201.863 99.6069Z" fill="#5063BF"/>
</svg>
