<svg width="15" height="15" viewBox="0 0 15 15" fill="none" xmlns="http://www.w3.org/2000/svg">
<g clip-path="url(#clip0_47_1589)">
<path d="M3.66567 3.56733H3.88027C4.2064 3.56733 4.47077 3.30287 4.47077 2.97683V1.34729V0.737765C4.47077 0.411722 4.2064 0.147293 3.88027 0.147293H3.66567C3.33956 0.147293 3.0752 0.411722 3.0752 0.737765V1.34732V2.97683C3.0752 3.30287 3.33956 3.56733 3.66567 3.56733Z" fill="#5063BF"/>
<path d="M11.2395 3.5527H11.4541C11.7802 3.5527 12.0445 3.28827 12.0445 2.96219V1.19263V0.723101C12.0445 0.397089 11.7802 0.13266 11.4541 0.13266H11.2395C10.9133 0.13266 10.6489 0.397089 10.6489 0.723101V1.19263V2.96216C10.649 3.28827 10.9134 3.5527 11.2395 3.5527Z" fill="#5063BF"/>
<path d="M14.0401 1.34729H12.5246V3.11682C12.5246 3.70711 12.0444 4.03269 11.4541 4.03269H11.2395C10.6493 4.03269 10.169 3.55245 10.169 2.96216V1.34729H4.95059V2.97679C4.95059 3.56708 4.47039 4.04732 3.8801 4.04732H3.6655C3.07525 4.04732 2.59505 3.56708 2.59505 2.97679V1.34729H0.959973C0.430652 1.34729 0 1.77794 0 2.30729V13.9073C0 14.4367 0.430652 14.8673 0.959973 14.8673H14.0401C14.5694 14.8673 15 14.4367 15 13.9073V2.30729C15.0001 1.77797 14.5694 1.34729 14.0401 1.34729ZM14.0401 13.9073H0.960004L0.959973 5.14728H14.0402L14.0407 13.9073C14.0407 13.9073 14.0405 13.9073 14.0401 13.9073Z" fill="#5063BF"/>
<path d="M7.99579 8.08566H9.71948C9.78781 8.08566 9.84321 8.03027 9.84321 7.96194V6.46937C9.84321 6.40104 9.78781 6.34564 9.71948 6.34564H7.99579C7.92747 6.34564 7.87207 6.40104 7.87207 6.46937V7.96194C7.87207 8.03027 7.92747 8.08566 7.99579 8.08566Z" fill="#5063BF"/>
<path d="M10.8088 8.08566H12.5325C12.6008 8.08566 12.6562 8.03027 12.6562 7.96194V6.46937C12.6562 6.40104 12.6008 6.34564 12.5325 6.34564H10.8088C10.7405 6.34564 10.6851 6.40104 10.6851 6.46937V7.96194C10.6851 8.03027 10.7405 8.08566 10.8088 8.08566Z" fill="#5063BF"/>
<path d="M2.36982 10.5292H4.09348C4.1618 10.5292 4.2172 10.4738 4.2172 10.4055V8.91288C4.2172 8.84455 4.1618 8.78915 4.09348 8.78915H2.36982C2.30149 8.78915 2.24609 8.84455 2.24609 8.91288V10.4055C2.24609 10.4738 2.30149 10.5292 2.36982 10.5292Z" fill="#5063BF"/>
<path d="M5.18281 10.5292H6.90646C6.97479 10.5292 7.03019 10.4738 7.03019 10.4055V8.91288C7.03019 8.84455 6.97479 8.78915 6.90646 8.78915H5.18281C5.11448 8.78915 5.05908 8.84455 5.05908 8.91288V10.4055C5.05908 10.4738 5.11448 10.5292 5.18281 10.5292Z" fill="#5063BF"/>
<path d="M7.99579 10.5292H9.71945C9.78778 10.5292 9.84318 10.4738 9.84318 10.4055V8.91288C9.84318 8.84455 9.78778 8.78915 9.71945 8.78915H7.99579C7.92747 8.78915 7.87207 8.84455 7.87207 8.91288V10.4055C7.87207 10.4738 7.92747 10.5292 7.99579 10.5292Z" fill="#5063BF"/>
<path d="M10.8088 10.5292H12.5325C12.6008 10.5292 12.6562 10.4738 12.6562 10.4055V8.91288C12.6562 8.84455 12.6008 8.78915 12.5325 8.78915H10.8088C10.7405 8.78915 10.6851 8.84455 10.6851 8.91288V10.4055C10.6851 10.4738 10.7405 10.5292 10.8088 10.5292Z" fill="#5063BF"/>
<path d="M4.09345 11.2327H2.36982C2.30149 11.2327 2.24609 11.2881 2.24609 11.3564V12.849C2.24609 12.9174 2.30149 12.9727 2.36982 12.9727H4.09348C4.1618 12.9727 4.2172 12.9174 4.2172 12.849V11.3564C4.21717 11.2881 4.16177 11.2327 4.09345 11.2327Z" fill="#5063BF"/>
<path d="M6.90646 11.2327H5.18281C5.11448 11.2327 5.05908 11.2881 5.05908 11.3564V12.849C5.05908 12.9174 5.11448 12.9727 5.18281 12.9727H6.90646C6.97479 12.9727 7.03019 12.9174 7.03019 12.849V11.3564C7.03019 11.2881 6.97479 11.2327 6.90646 11.2327Z" fill="#5063BF"/>
<path d="M9.71948 11.2327H7.99579C7.92747 11.2327 7.87207 11.2881 7.87207 11.3564V12.849C7.87207 12.9174 7.92747 12.9727 7.99579 12.9727H9.71948C9.78781 12.9727 9.84321 12.9174 9.84321 12.849V11.3564C9.84321 11.2881 9.78781 11.2327 9.71948 11.2327Z" fill="#5063BF"/>
<path d="M12.5325 11.2327H10.8088C10.7405 11.2327 10.6851 11.2881 10.6851 11.3564V12.849C10.6851 12.9174 10.7405 12.9727 10.8088 12.9727H12.5325C12.6008 12.9727 12.6562 12.9174 12.6562 12.849V11.3564C12.6562 11.2881 12.6008 11.2327 12.5325 11.2327Z" fill="#5063BF"/>
</g>
<defs>
<clipPath id="clip0_47_1589">
<rect width="15" height="15" fill="white"/>
</clipPath>
</defs>
</svg>
