<svg width="248" height="224" viewBox="0 0 248 224" fill="none" xmlns="http://www.w3.org/2000/svg">
<path fill-rule="evenodd" clip-rule="evenodd" d="M166.644 160.521V172.578C166.644 176.494 163.468 179.67 159.553 179.67H64.4264C60.5108 179.67 57.3193 176.494 57.3193 172.578V96.9641C57.3193 93.065 60.5108 89.8735 64.4264 89.8735H159.553C163.468 89.8735 166.644 93.065 166.644 96.9641V112.141H143.802C142.783 112.141 141.805 112.585 141.085 113.375C140.364 114.164 139.959 115.235 139.959 116.351V147.189C139.959 148.305 140.364 149.376 141.085 150.166C141.805 150.955 142.783 151.399 143.802 151.399H154.593L157.093 163.613C157.268 164.466 157.876 165.167 158.697 165.459C159.518 165.752 160.432 165.593 161.108 165.042L166.644 160.521ZM111.99 107.79C104.356 107.79 98.1536 113.993 98.1536 121.626C98.1536 126.611 100.786 130.971 104.734 133.406V154.498C104.734 158.495 107.992 161.753 111.99 161.753C115.971 161.753 119.245 158.495 119.245 154.498V133.406C123.193 130.971 125.81 126.611 125.81 121.626C125.81 113.993 119.624 107.79 111.99 107.79Z" fill="#707FCA"/>
<path fill-rule="evenodd" clip-rule="evenodd" d="M159.553 93.8579H64.4261C62.7084 93.8579 61.3034 95.2534 61.3034 96.9642V172.578C61.3034 174.297 62.7084 175.685 64.4261 175.685H159.553C160.419 175.685 161.202 175.33 161.766 174.758C163.309 173.192 165.834 173.173 167.4 174.716C168.967 176.259 168.985 178.785 167.443 180.351C165.433 182.39 162.64 183.654 159.553 183.654H64.4261C58.3132 183.654 53.3348 178.692 53.3348 172.578V96.9642C53.3348 90.8766 58.3132 85.8893 64.4261 85.8893H69.145V73.5528C69.145 49.9906 88.4271 30.7085 111.989 30.7085C135.553 30.7085 154.817 49.9901 154.817 73.5528V85.8893H159.553C165.669 85.8893 170.628 90.8741 170.628 96.9642V100.188C170.628 102.387 168.842 104.173 166.644 104.173C164.445 104.173 162.659 102.387 162.659 100.188V96.9642C162.659 95.2564 161.268 93.8579 159.553 93.8579ZM146.849 85.8893V73.5528C146.849 54.3733 131.169 38.6771 111.989 38.6771C92.8093 38.6771 77.1136 54.3728 77.1136 73.5528V85.8893H86.9464V73.5528C86.9464 59.7995 98.2559 48.4935 111.989 48.4935C125.723 48.4935 137.033 59.7995 137.033 73.5528V85.8893H146.849ZM94.9151 85.8893H129.064V73.5528C129.064 64.1742 121.354 56.4621 111.989 56.4621C102.624 56.4621 94.9151 64.1742 94.9151 73.5528V85.8893ZM111.989 103.806C121.823 103.806 129.794 111.793 129.794 121.626C129.794 127.213 127.241 132.188 123.229 135.452V154.498C123.229 160.691 118.157 165.737 111.989 165.737C105.796 165.737 100.75 160.691 100.75 154.498C100.75 154.498 100.75 135.453 100.75 135.453C96.7339 132.188 94.169 127.212 94.169 121.626C94.169 111.794 102.158 103.806 111.989 103.806ZM111.989 111.774C106.554 111.774 102.138 116.19 102.138 121.626C102.138 125.177 104.013 128.28 106.825 130.015C108.002 130.74 108.718 132.024 108.718 133.406V154.498C108.718 156.3 110.187 157.769 111.989 157.769C113.784 157.769 115.26 156.3 115.26 154.498V133.406C115.26 132.024 115.977 130.74 117.154 130.015C119.965 128.281 121.825 125.176 121.825 121.626C121.825 116.192 117.424 111.774 111.989 111.774ZM179.236 155.383L160.438 170.732C159.358 171.614 157.895 171.868 156.582 171.4C155.268 170.932 154.294 169.811 154.015 168.445L151.342 155.383H143.802C141.684 155.383 139.639 154.492 138.142 152.852C136.768 151.348 135.974 149.316 135.974 147.189V116.351C135.974 114.224 136.768 112.193 138.142 110.688C139.639 109.048 141.684 108.157 143.802 108.157H239.686C241.804 108.157 243.849 109.048 245.346 110.688C246.719 112.193 247.514 114.224 247.514 116.351V147.189C247.514 149.316 246.719 151.348 245.346 152.852C243.849 154.492 241.804 155.383 239.686 155.383H179.236ZM143.983 147.415H154.593C156.486 147.415 158.117 148.746 158.497 150.6L160.501 160.393L175.296 148.312C176.007 147.732 176.897 147.415 177.816 147.415H239.505C239.537 147.348 239.545 147.267 239.545 147.189V116.351C239.545 116.273 239.537 116.192 239.505 116.126H143.983C143.952 116.192 143.943 116.273 143.943 116.351V147.189C143.943 147.267 143.952 147.348 143.983 147.415ZM156.692 124.869V121.817C156.692 119.618 158.478 117.832 160.677 117.832C162.876 117.832 164.661 119.618 164.661 121.817V124.869L167.305 123.343C169.209 122.244 171.648 122.897 172.748 124.802C173.847 126.706 173.193 129.144 171.289 130.244L168.645 131.77L171.289 133.297C173.193 134.396 173.847 136.835 172.748 138.739C171.648 140.644 169.209 141.297 167.305 140.197L164.661 138.671V141.723C164.661 143.922 162.876 145.708 160.677 145.708C158.478 145.708 156.692 143.922 156.692 141.723V138.671L154.049 140.197C152.145 141.297 149.706 140.644 148.607 138.739C147.507 136.835 148.16 134.396 150.065 133.297L152.709 131.77L150.065 130.244C148.16 129.144 147.507 126.706 148.607 124.802C149.706 122.897 152.145 122.244 154.049 123.343L156.692 124.869ZM187.76 124.869V121.817C187.76 119.618 189.545 117.832 191.744 117.832C193.943 117.832 195.728 119.618 195.728 121.817V124.869L198.372 123.343C200.276 122.244 202.715 122.897 203.814 124.802C204.914 126.706 204.261 129.144 202.356 130.244L199.712 131.77L202.356 133.297C204.261 134.396 204.914 136.835 203.814 138.739C202.715 140.644 200.276 141.297 198.372 140.197L195.728 138.671V141.723C195.728 143.922 193.943 145.708 191.744 145.708C189.545 145.708 187.76 143.922 187.76 141.723V138.671L185.116 140.197C183.212 141.297 180.773 140.644 179.673 138.739C178.574 136.835 179.228 134.396 181.132 133.297L183.776 131.77L181.132 130.244C179.228 129.144 178.574 126.706 179.673 124.802C180.773 122.897 183.212 122.244 185.116 123.343L187.76 124.869ZM218.827 124.869V121.817C218.827 119.618 220.612 117.832 222.811 117.832C225.01 117.832 226.795 119.618 226.795 121.817V124.869L229.439 123.343C231.343 122.244 233.782 122.897 234.882 124.802C235.981 126.706 235.328 129.144 233.423 130.244L230.78 131.77L233.423 133.297C235.328 134.396 235.981 136.835 234.882 138.739C233.782 140.644 231.343 141.297 229.439 140.197L226.795 138.671V141.723C226.795 143.922 225.01 145.708 222.811 145.708C220.612 145.708 218.827 143.922 218.827 141.723V138.671L216.183 140.197C214.279 141.297 211.84 140.644 210.741 138.739C209.641 136.835 210.295 134.396 212.199 133.297L214.842 131.77L212.199 130.244C210.295 129.144 209.641 126.706 210.741 124.802C211.84 122.897 214.279 122.244 216.183 123.343L218.827 124.869ZM218.256 78.3579L222.913 72.2818C224.25 70.5367 226.753 70.205 228.499 71.5427C230.244 72.8805 230.575 75.3831 229.238 77.1288L219.723 89.5459C218.625 90.9787 216.701 91.4947 215.033 90.8024L200.585 84.8065C198.554 83.9633 197.589 81.63 198.432 79.599C199.274 77.568 201.608 76.6033 203.639 77.4465L210.51 80.2983C197.065 38.72 158.011 8.61499 111.981 8.61499C54.8433 8.61499 8.45496 55.0039 8.45496 112.141C8.45496 134.284 15.421 154.812 27.2808 171.652C28.5474 173.45 28.1156 175.937 26.3176 177.204C24.5197 178.47 22.032 178.038 20.766 176.24C7.99178 158.102 0.486328 135.992 0.486328 112.141C0.486328 50.6057 50.4456 0.646362 111.981 0.646362C161.742 0.646362 203.932 33.3162 218.256 78.3579ZM60.8278 202.15C62.7382 203.239 63.4051 205.674 62.3159 207.584C61.2267 209.495 58.7918 210.162 56.8813 209.073C48.2871 204.174 40.4067 198.165 33.4351 191.242C31.8748 189.693 31.8658 187.168 33.4152 185.607C34.9646 184.047 37.4896 184.038 39.05 185.588C45.5255 192.018 52.8452 197.599 60.8278 202.15ZM101.591 215.152C103.779 215.37 105.378 217.324 105.16 219.512C104.942 221.701 102.988 223.3 100.8 223.081C91.6743 222.171 82.8715 220.158 74.5263 217.178C72.4555 216.439 71.3742 214.157 72.1138 212.086C72.8529 210.015 75.1349 208.934 77.2058 209.673C84.9513 212.439 93.1216 214.307 101.591 215.152ZM144.402 210.482C146.49 209.793 148.745 210.929 149.433 213.018C150.123 215.106 148.987 217.361 146.898 218.049C138.379 220.86 129.408 222.671 120.123 223.343C117.929 223.501 116.02 221.849 115.862 219.657C115.703 217.463 117.355 215.554 119.548 215.395C128.167 214.771 136.494 213.091 144.402 210.482ZM183.865 186.613C185.447 185.086 187.972 185.13 189.499 186.712C191.027 188.294 190.982 190.818 189.4 192.346C182.083 199.41 173.803 205.484 164.778 210.35C162.843 211.393 160.424 210.669 159.38 208.733C158.337 206.798 159.061 204.379 160.996 203.335C169.379 198.816 177.07 193.175 183.865 186.613ZM200.645 165.585C201.783 163.703 204.234 163.099 206.116 164.237C207.998 165.374 208.602 167.826 207.464 169.708C205.852 172.374 204.132 174.968 202.309 177.483C201.018 179.263 198.525 179.661 196.745 178.37C194.964 177.08 194.566 174.586 195.857 172.806C197.55 170.47 199.148 168.062 200.645 165.585Z" fill="#5063BF"/>
</svg>
