<svg width="105" height="179" viewBox="0 0 105 179" fill="none" xmlns="http://www.w3.org/2000/svg">
<path d="M104.624 44.941C104.263 44.2601 103.614 43.7746 102.857 43.6209C102.669 43.5816 102.474 43.5642 102.281 43.5688H28.8997C27.471 43.5688 26.3115 44.726 26.3115 46.1559V76.4004C26.3115 77.8281 27.471 78.9875 28.8997 78.9875C30.3285 78.9875 31.4868 77.8281 31.4868 76.4004V48.7429H84.6771L47.9245 59.7465C46.8287 60.0737 46.0785 61.0817 46.0785 62.2249V156.861H31.4868V130.384C31.4868 128.954 30.3285 127.796 28.8997 127.796C27.471 127.796 26.3115 128.954 26.3115 130.384V159.448C26.3115 160.878 27.471 162.035 28.8997 162.035H46.0785V175.519C46.0785 176.337 46.4645 177.105 47.1211 177.593C47.7766 178.082 48.6239 178.231 49.4088 177.998L103.082 161.928C104.177 161.599 104.927 160.591 104.927 159.448V46.216C104.937 45.7721 104.832 45.334 104.624 44.941ZM64.5102 117.12C60.0205 117.12 56.3792 113.479 56.3792 108.989C56.3792 104.497 60.0205 100.858 64.5102 100.858C69.0023 100.858 72.6413 104.497 72.6413 108.989C72.6378 113.478 68.9988 117.115 64.5102 117.12Z" fill="#5063BF"/>
<path d="M67.4671 108.989C67.4671 110.623 66.1447 111.946 64.5102 111.946C62.8768 111.946 61.5532 110.623 61.5532 108.989C61.5532 107.356 62.8768 106.032 64.5102 106.032C66.1447 106.032 67.4671 107.356 67.4671 108.989Z" fill="#5063BF"/>
<path d="M67.4671 35.6632C75.5912 35.6632 82.631 30.0325 84.4146 22.1061C86.1983 14.1797 82.2518 6.07642 74.9103 2.59467C67.57 -0.885932 58.7974 1.18555 53.7886 7.58379C48.4908 14.3508 48.937 23.9753 54.8394 30.2221C58.1269 33.6889 62.6907 35.6551 67.4671 35.6632ZM63.5634 11.3985C63.5634 9.96854 64.7205 8.81027 66.1505 8.81027C67.5781 8.81027 68.7375 9.96854 68.7375 11.3985V18.1782L71.6598 20.052C72.8643 20.823 73.2134 22.4229 72.4424 23.6251C71.6713 24.8296 70.0715 25.1787 68.8693 24.4076L64.7541 21.7721C64.0108 21.297 63.5611 20.4751 63.5634 19.5931V11.3985Z" fill="#707FCA"/>
<path d="M38.5843 92.5209L30.2683 84.4061C29.7134 83.8646 28.8148 83.8646 28.2599 84.4061C27.7056 84.9464 27.7056 85.8232 28.2599 86.3647L34.1533 92.115H11.4199C10.6361 92.115 10 92.735 10 93.4999C10 94.2654 10.6361 94.8855 11.4199 94.8855H34.1533L28.2599 100.636C27.7056 101.177 27.7056 102.053 28.2599 102.594C28.8148 103.135 29.7134 103.135 30.2683 102.594L38.5843 94.4795C39.1386 93.9387 39.1386 93.0612 38.5843 92.5209Z" fill="#707FCA"/>
<path d="M0.415703 114.521L8.73168 106.406C9.28658 105.865 10.1852 105.865 10.7401 106.406C11.2944 106.946 11.2944 107.823 10.7401 108.365L4.8467 114.115H27.5801C28.3639 114.115 29 114.735 29 115.5C29 116.265 28.3639 116.885 27.5801 116.885H4.8467L10.7401 122.636C11.2944 123.177 11.2944 124.053 10.7401 124.594C10.1852 125.135 9.28658 125.135 8.73168 124.594L0.415703 116.48C-0.138569 115.939 -0.138569 115.061 0.415703 114.521Z" fill="#707FCA"/>
</svg>
