<svg width="190" height="180" viewBox="0 0 190 180" fill="none" xmlns="http://www.w3.org/2000/svg">
<path d="M99.543 0.872803L138.828 26.53V179.663H99.543V0.872803Z" fill="#5063BF"/>
<path d="M141.904 111.244V178.859H190.003V126.608L141.904 111.244ZM162.212 164.16L147.516 159.882V147.197L162.212 152.53V164.16ZM162.212 141.976L147.516 137.695V125.017L162.212 130.357V141.976ZM180.65 169.497L165.947 165.225V152.534L180.65 157.877V169.497ZM180.65 147.316L165.951 143.042V130.357L180.656 135.69V147.316H180.65Z" fill="#5063BF"/>
<path d="M46.4975 31.3374V132.869L39.5529 137.405V103.495L35.1458 105.317V71.4924L3.07041 85.6528V118.605L0 119.878V179.663H95.0567V0.340088L46.4975 31.3374ZM6.01158 92.1058L16.8368 87.0966V100.122L6.01158 104.933V92.1058ZM6.81544 113.217L17.6375 108.202V121.237L6.81544 126.041V113.217ZM17.9654 160.011L7.14328 164.828V151.995L17.9654 146.985V160.011ZM17.9654 140.164L7.14328 144.984V132.15L17.9654 127.144V140.164ZM19.5069 85.8262L30.3322 80.8171V93.8459L19.5069 98.6532V85.8262ZM20.3108 106.935L31.1329 101.925V114.954L20.3108 119.768V106.935ZM32.4001 153.804L21.5749 158.618V145.791L32.4001 140.775V153.804ZM32.4001 133.96L21.5749 138.767V125.947L32.4001 120.934V133.96ZM67.0731 136.217L52.1025 145.589V131.693L67.0731 122.009V136.217ZM67.0731 112.738L52.1025 122.104V108.202L67.0731 98.5177V112.738ZM67.0731 89.2529L52.1025 98.628V84.7229L67.0731 75.0325V89.2529ZM67.0731 65.7708L52.1025 75.1334V61.2377L67.0731 51.5473V65.7708ZM67.0731 42.2824L52.1025 51.6513V37.7525L67.0731 28.0652V42.2824ZM89.2532 122.34L71.8836 133.21V118.888L89.2532 107.647V122.34ZM89.2532 98.855L71.8836 109.728V95.4031L89.2532 84.1555V98.855ZM89.2532 75.3698L71.8836 86.2423V71.9242L89.2532 60.6734V75.3698ZM89.2532 51.8846L71.8836 62.7571V48.4359L89.2532 37.1882V51.8846ZM89.2532 28.3962L71.8836 39.2688V24.9475L89.2532 13.6999V28.3962Z" fill="#5063BF"/>
</svg>
