<svg width="20" height="20" viewBox="0 0 20 20" fill="none" xmlns="http://www.w3.org/2000/svg">
<path d="M5.31285 3.23832L4.17691 3.47657L3.04102 3.23832V2.09785H5.31285V3.23832Z" fill="#5A5A5A"/>
<path d="M4.45581 2.09785H5.31292V3.23832H4.45581V2.09785Z" fill="#444444"/>
<path d="M16.9591 3.23832L15.8232 3.47657L14.6873 3.23832V2.09785H16.9591V3.23832Z" fill="#5A5A5A"/>
<path d="M16.1055 2.09785H16.9589V3.23832H16.1055V2.09785Z" fill="#444444"/>
<path d="M19.707 4.04465V13.9619C19.707 14.4072 19.3656 14.7678 18.9449 14.7678H1.05508C0.634375 14.7678 0.292969 14.4072 0.292969 13.9619V4.04465C0.292969 3.59937 0.634375 3.23836 1.05508 3.23836H18.9449C19.3656 3.23832 19.707 3.59933 19.707 4.04465Z" fill="#DDEAFB"/>
<path d="M19.7071 4.04465V13.9619C19.7071 14.4072 19.3655 14.7678 18.945 14.7678H17.8706C18.2915 14.7678 18.6327 14.4072 18.6327 13.9619V4.04465C18.6327 3.59937 18.2915 3.23836 17.8706 3.23836H18.945C19.3655 3.23832 19.7071 3.59933 19.7071 4.04465Z" fill="#CBE2FF"/>
<path d="M6.31551 7.29547C6.31551 7.91137 6.06602 8.46899 5.66203 8.87254L4.08496 7.29547H6.31551Z" fill="#528FD8"/>
<path d="M6.31551 7.29547H4.08496V5.06493C5.31672 5.06489 6.31551 6.06372 6.31551 7.29547Z" fill="#82AEE3"/>
<path d="M5.66211 8.87254C5.25855 9.2761 4.7009 9.52602 4.08504 9.52602C2.85285 9.52602 1.85449 8.52723 1.85449 7.29547C1.85449 6.06372 2.85285 5.06493 4.08504 5.06493V7.29547L5.66211 8.87254Z" fill="#0473CE"/>
<path d="M1.85449 10.9007H6.31559V12.7595H1.85449V10.9007Z" fill="#FFF9DF"/>
<path d="M5.34473 10.9007H6.31543V12.7595H5.34473V10.9007Z" fill="#FFF0AD"/>
<path d="M7.94165 5.06488H15.5107V6.09754H7.94165V5.06488Z" fill="#528FD8"/>
<path d="M14.4041 5.06488H15.5107V6.09754H14.4041V5.06488Z" fill="#0473CE"/>
<path d="M19.707 11.2931V16.4771C19.707 17.2639 19.0688 17.9022 18.2819 17.9022H13.0979C12.3111 17.9022 11.6729 17.2639 11.6729 16.4771V11.2931C11.6729 10.5062 12.311 9.86801 13.0979 9.86801H18.2819C19.0688 9.86801 19.707 10.5062 19.707 11.2931Z" fill="#528FD8"/>
<path d="M19.7069 11.2931V16.4771C19.7069 17.2639 19.0688 17.9022 18.2819 17.9022H17.2058C17.9927 17.9022 18.6309 17.2639 18.6309 16.4771V11.2931C18.6309 10.5062 17.9927 9.86801 17.2058 9.86801H18.2819C19.0688 9.86801 19.7069 10.5062 19.7069 11.2931Z" fill="#0473CE"/>
<path d="M13.0237 13.547H14.0563V16.1276H13.0237V13.547Z" fill="#FFD15B"/>
<path d="M15.1736 12.8056H16.2062V16.1276H15.1736V12.8056Z" fill="#FFF0AD"/>
<path d="M17.3235 11.7888H18.3561V16.1276H17.3235V11.7888Z" fill="#FFF9DF"/>
<path d="M7.94165 10.9007H10.413V12.7595H7.94165V10.9007Z" fill="#FFF0AD"/>
<path d="M9.38037 10.9007H10.413V12.7595H9.38037V10.9007Z" fill="#FFD15B"/>
<path d="M18.9449 2.94535H17.2521V2.09785C17.2521 1.93602 17.1209 1.80489 16.9591 1.80489H14.6873C14.5254 1.80489 14.3943 1.93602 14.3943 2.09785V2.94535H5.6057V2.09785C5.6057 1.93602 5.47457 1.80489 5.31273 1.80489H3.0409C2.87906 1.80489 2.74793 1.93602 2.74793 2.09785V2.94535H1.05508C0.473281 2.94535 0 3.43848 0 4.04465V13.9619C0 14.5679 0.473281 15.0608 1.05508 15.0608H10.2169C10.3787 15.0608 10.5098 14.9297 10.5098 14.7678C10.5098 14.606 10.3787 14.4748 10.2169 14.4748H1.05508C0.796406 14.4748 0.585938 14.2447 0.585938 13.9619V4.04465C0.585938 3.7616 0.796406 3.53129 1.05508 3.53129H18.9449C19.2036 3.53129 19.4141 3.7616 19.4141 4.04465V10.0024C19.1115 9.73668 18.7154 9.57504 18.282 9.57504H13.098C12.1507 9.57504 11.38 10.3457 11.38 11.2931V16.477C11.38 17.4244 12.1507 18.1951 13.098 18.1951H18.282C19.2293 18.1951 20 17.4244 20 16.477V4.04461C20 3.43848 19.5267 2.94535 18.9449 2.94535ZM3.33387 2.94535V2.39082H5.01977V2.94535H3.33387ZM14.9802 2.94535V2.39082H16.6661V2.94535H14.9802ZM19.4141 16.4771C19.4141 17.1013 18.9062 17.6092 18.282 17.6092H13.098C12.4737 17.6092 11.9659 17.1013 11.9659 16.4771V11.2931C11.9659 10.6689 12.4737 10.161 13.098 10.161H18.282C18.9062 10.161 19.4141 10.6689 19.4141 11.2931V16.4771Z" fill="black"/>
<path d="M4.08479 4.77191C2.69335 4.77191 1.56128 5.90394 1.56128 7.29547C1.56128 8.68699 2.69331 9.81902 4.08479 9.81902C4.75854 9.81902 5.39214 9.55652 5.8689 9.07988C5.86894 9.07984 5.86894 9.07984 5.86897 9.0798L5.86901 9.07976L5.86905 9.07972C5.86909 9.07968 5.86909 9.07968 5.86913 9.07965C6.34585 8.6034 6.60835 7.96976 6.60835 7.29547C6.60835 5.90398 5.47628 4.77191 4.08479 4.77191ZM6.0003 7.0025H4.37776V5.37996C5.2121 5.50703 5.87319 6.16816 6.0003 7.0025ZM2.14726 7.29547C2.14726 6.32664 2.86198 5.52164 3.79187 5.37996V7.29547C3.79187 7.37242 3.82323 7.44824 3.87765 7.50265L5.23214 8.85711C4.9014 9.10121 4.50319 9.23308 4.08483 9.23308C3.01644 9.23304 2.14726 8.36383 2.14726 7.29547ZM5.64655 8.44281L4.7921 7.5884H6.00054C5.95378 7.89871 5.83284 8.19054 5.64655 8.44281Z" fill="black"/>
<path d="M1.85449 10.6077C1.69266 10.6077 1.56152 10.7389 1.56152 10.9007V12.7595C1.56152 12.9213 1.69266 13.0525 1.85449 13.0525H6.31559C6.47742 13.0525 6.60855 12.9213 6.60855 12.7595V10.9007C6.60855 10.7389 6.47742 10.6077 6.31559 10.6077H1.85449ZM6.02262 12.4665H2.14746V11.1937H6.02262V12.4665Z" fill="black"/>
<path d="M10.413 10.6077H7.94165C7.77981 10.6077 7.64868 10.7389 7.64868 10.9007V12.7595C7.64868 12.9213 7.77981 13.0525 7.94165 13.0525H10.413C10.5749 13.0525 10.706 12.9213 10.706 12.7595V10.9007C10.706 10.7389 10.5749 10.6077 10.413 10.6077ZM10.12 12.4665H8.23462V11.1937H10.12V12.4665Z" fill="black"/>
<path d="M12.6325 5.35785C12.7944 5.35785 12.9255 5.22672 12.9255 5.06488C12.9255 4.90304 12.7944 4.77191 12.6325 4.77191H7.94165C7.77981 4.77191 7.64868 4.90304 7.64868 5.06488V6.09758C7.64868 6.25941 7.77981 6.39054 7.94165 6.39054H15.5107C15.6725 6.39054 15.8036 6.25941 15.8036 6.09758V5.06488C15.8036 4.90304 15.6725 4.77191 15.5107 4.77191H14.079C13.9172 4.77191 13.786 4.90304 13.786 5.06488C13.786 5.22672 13.9172 5.35785 14.079 5.35785H15.2177V5.80461H8.23462V5.35785H12.6325Z" fill="black"/>
<path d="M14.0564 13.254H13.0237C12.8618 13.254 12.7307 13.3852 12.7307 13.547V16.1276C12.7307 16.2894 12.8618 16.4206 13.0237 16.4206H14.0564C14.2182 16.4206 14.3493 16.2894 14.3493 16.1276V13.547C14.3493 13.3852 14.2182 13.254 14.0564 13.254ZM13.7634 15.8346H13.3167V13.84H13.7634V15.8346Z" fill="black"/>
<path d="M16.2063 12.5126H15.1736C15.0117 12.5126 14.8806 12.6438 14.8806 12.8056V16.1276C14.8806 16.2894 15.0117 16.4205 15.1736 16.4205H16.2063C16.3681 16.4205 16.4992 16.2894 16.4992 16.1276V12.8056C16.4992 12.6438 16.3681 12.5126 16.2063 12.5126ZM15.9133 15.8346H15.4666V13.0986H15.9133V15.8346Z" fill="black"/>
<path d="M18.3561 11.4958H17.3235C17.1617 11.4958 17.0305 11.6269 17.0305 11.7888V16.1276C17.0305 16.2894 17.1617 16.4206 17.3235 16.4206H18.3561C18.518 16.4206 18.6491 16.2894 18.6491 16.1276V11.7888C18.6491 11.6269 18.518 11.4958 18.3561 11.4958ZM18.0632 15.8346H17.6165V12.0817H18.0632V15.8346Z" fill="black"/>
<path d="M7.94165 7.72516H17.3235C17.4853 7.72516 17.6165 7.59403 17.6165 7.43219C17.6165 7.27035 17.4853 7.13922 17.3235 7.13922H7.94165C7.77981 7.13922 7.64868 7.27035 7.64868 7.43219C7.64868 7.59403 7.77981 7.72516 7.94165 7.72516Z" fill="black"/>
<path d="M17.3235 8.88972C17.4853 8.88972 17.6164 8.75859 17.6164 8.59676C17.6164 8.43492 17.4853 8.30379 17.3235 8.30379H11.4663C11.3045 8.30379 11.1733 8.43492 11.1733 8.59676C11.1733 8.75859 11.3045 8.88972 11.4663 8.88972H17.3235Z" fill="black"/>
<path d="M7.94165 8.88972H9.99993C10.1618 8.88972 10.2929 8.75859 10.2929 8.59676C10.2929 8.43492 10.1618 8.30379 9.99993 8.30379H7.94165C7.77981 8.30379 7.64868 8.43492 7.64868 8.59676C7.64868 8.75859 7.77981 8.88972 7.94165 8.88972Z" fill="black"/>
</svg>
