<svg width="144" height="134" viewBox="0 0 144 134" fill="none" xmlns="http://www.w3.org/2000/svg">
<path d="M64.875 95.5H10.25C7.6375 95.5 5.5 93.3625 5.5 90.75V10C5.5 7.3875 7.6375 5.25 10.25 5.25H126.625C129.238 5.25 131.375 7.3875 131.375 10V64.625C131.375 65.9313 132.444 67 133.75 67C135.056 67 136.125 65.9313 136.125 64.625V10C136.125 4.75125 131.874 0.5 126.625 0.5H10.25C5.00125 0.5 0.75 4.75125 0.75 10V90.75C0.75 95.9987 5.00125 100.25 10.25 100.25H64.875C66.1813 100.25 67.25 99.1813 67.25 97.875C67.25 96.5687 66.1813 95.5 64.875 95.5Z" fill="#5063BF"/>
<path d="M110 62.25V81.3687C117.481 82.4137 123.371 88.47 124.179 96.07H143.25C142.371 77.9963 128.003 63.4138 110 62.25Z" fill="#8190D8"/>
<path d="M107.649 114.476C98.4812 114.476 91.0237 107.019 91.0237 97.8275C91.0237 89.4675 97.2225 82.5087 105.25 81.3687V62.25C86.7013 63.485 72 78.97 72 97.8275C72 116.685 87.9837 133.5 107.649 133.5C116.199 133.5 124.274 130.507 130.758 124.974L117.244 111.436C114.465 113.407 111.14 114.476 107.673 114.476H107.649Z" fill="#6B71F2"/>
<path d="M74.375 38.5C74.375 37.2412 74.0187 36.0538 73.425 35.0325L81.2387 26.1025C82.0462 26.435 82.925 26.625 83.8513 26.625C84.7775 26.625 85.6562 26.435 86.4637 26.1025L94.2775 35.0325C93.7075 36.0538 93.3275 37.2412 93.3275 38.5C93.3275 42.4188 96.5337 45.625 100.452 45.625C104.371 45.625 107.577 42.4188 107.577 38.5C107.577 37.2412 107.221 36.0538 106.627 35.0325L114.441 26.1025C115.249 26.435 116.127 26.625 117.054 26.625C120.972 26.625 124.179 23.4187 124.179 19.5C124.179 15.5812 120.972 12.375 117.054 12.375C113.135 12.375 109.929 15.5812 109.929 19.5C109.929 20.7587 110.285 21.9462 110.879 22.9675L103.065 31.8975C102.257 31.565 101.379 31.375 100.452 31.375C99.5262 31.375 98.6475 31.565 97.84 31.8975L90.0262 22.9675C90.5962 21.9462 90.9763 20.7587 90.9763 19.5C90.9763 15.5812 87.77 12.375 83.8513 12.375C79.9325 12.375 76.7263 15.5812 76.7263 19.5C76.7263 20.7587 77.0825 21.9462 77.6762 22.9675L69.8625 31.8975C69.055 31.565 68.1762 31.375 67.25 31.375C63.3312 31.375 60.125 34.5812 60.125 38.5C60.125 42.4188 63.3312 45.625 67.25 45.625C71.1687 45.625 74.375 42.4188 74.375 38.5Z" fill="#6B71F2"/>
<path d="M24.875 56.5H15.375C14.0633 56.5 13 57.5633 13 58.875V85C13 86.3117 14.0633 87.375 15.375 87.375H24.875C26.1867 87.375 27.25 86.3117 27.25 85V58.875C27.25 57.5633 26.1867 56.5 24.875 56.5Z" fill="#6B71F2"/>
<path d="M43.875 47H34.375C33.0633 47 32 48.0633 32 49.375V85C32 86.3117 33.0633 87.375 34.375 87.375H43.875C45.1867 87.375 46.25 86.3117 46.25 85V49.375C46.25 48.0633 45.1867 47 43.875 47Z" fill="#6B71F2"/>
<path d="M62.875 63.625H53.375C52.0633 63.625 51 64.6883 51 66V85C51 86.3117 52.0633 87.375 53.375 87.375H62.875C64.1867 87.375 65.25 86.3117 65.25 85V66C65.25 64.6883 64.1867 63.625 62.875 63.625Z" fill="#6B71F2"/>
<path d="M15 17.125H19.75C21.0562 17.125 22.125 16.0563 22.125 14.75C22.125 13.4438 21.0562 12.375 19.75 12.375H15C13.6938 12.375 12.625 13.4438 12.625 14.75C12.625 16.0563 13.6938 17.125 15 17.125Z" fill="#5063BF"/>
<path d="M29.25 17.125H48.25C49.5562 17.125 50.625 16.0563 50.625 14.75C50.625 13.4438 49.5562 12.375 48.25 12.375H29.25C27.9438 12.375 26.875 13.4438 26.875 14.75C26.875 16.0563 27.9438 17.125 29.25 17.125Z" fill="#5063BF"/>
<path d="M15 29H19.75C21.0562 29 22.125 27.9313 22.125 26.625C22.125 25.3188 21.0562 24.25 19.75 24.25H15C13.6938 24.25 12.625 25.3188 12.625 26.625C12.625 27.9313 13.6938 29 15 29Z" fill="#5063BF"/>
<path d="M29.25 29H48.25C49.5562 29 50.625 27.9313 50.625 26.625C50.625 25.3188 49.5562 24.25 48.25 24.25H29.25C27.9438 24.25 26.875 25.3188 26.875 26.625C26.875 27.9313 27.9438 29 29.25 29Z" fill="#5063BF"/>
<path d="M15 40.875H19.75C21.0562 40.875 22.125 39.8063 22.125 38.5C22.125 37.1938 21.0562 36.125 19.75 36.125H15C13.6938 36.125 12.625 37.1938 12.625 38.5C12.625 39.8063 13.6938 40.875 15 40.875Z" fill="#5063BF"/>
<path d="M50.625 38.5C50.625 37.1938 49.5562 36.125 48.25 36.125H29.25C27.9438 36.125 26.875 37.1938 26.875 38.5C26.875 39.8063 27.9438 40.875 29.25 40.875H48.25C49.5562 40.875 50.625 39.8063 50.625 38.5Z" fill="#5063BF"/>
</svg>
