<svg width="25" height="25" viewBox="0 0 25 25" fill="none" xmlns="http://www.w3.org/2000/svg">
<path d="M6.24984 22.9167H18.7498C19.3024 22.9167 19.8323 22.6972 20.223 22.3065C20.6137 21.9158 20.8332 21.3859 20.8332 20.8333V8.33333L14.5832 2.08333H6.24984C5.6973 2.08333 5.1674 2.30282 4.7767 2.69352C4.386 3.08422 4.1665 3.61413 4.1665 4.16666V20.8333C4.1665 21.3859 4.386 21.9158 4.7767 22.3065C5.1674 22.6972 5.6973 22.9167 6.24984 22.9167ZM13.5415 4.16666L18.7498 9.375H13.5415V4.16666ZM8.854 11.4583C9.05926 11.4584 9.2625 11.4989 9.45211 11.5775C9.64171 11.6561 9.81398 11.7713 9.95907 11.9165C10.1042 12.0617 10.2192 12.234 10.2977 12.4237C10.3762 12.6133 10.4166 12.8166 10.4165 13.0219C10.4164 13.2271 10.3759 13.4304 10.2973 13.62C10.2187 13.8096 10.1035 13.9818 9.95834 14.1269C9.81315 14.272 9.6408 14.3871 9.45114 14.4656C9.26148 14.5441 9.05822 14.5844 8.85296 14.5844C8.43842 14.5842 8.04092 14.4194 7.74789 14.1262C7.45487 13.833 7.29032 13.4354 7.29046 13.0208C7.2906 12.6063 7.45541 12.2088 7.74863 11.9158C8.04185 11.6227 8.43947 11.4582 8.854 11.4583ZM9.37484 16.6667L11.0384 18.0865L13.5415 13.5417L17.7082 19.7917H7.2915L9.37484 16.6667Z" fill="#5063BF"/>
</svg>
