<svg width="30" height="30" viewBox="0 0 30 30" fill="none" xmlns="http://www.w3.org/2000/svg">
<path d="M23.4375 7.96875V2.66078C23.4921 2.70207 23.5436 2.74735 23.5915 2.79625L28.6897 8.31894C28.7219 8.35683 28.7521 8.39641 28.7801 8.4375H23.9062C23.782 8.43734 23.6628 8.3879 23.575 8.30003C23.4871 8.21215 23.4377 8.09302 23.4375 7.96875ZM29.0625 9.375V26.25C29.0621 26.6228 28.9138 26.9803 28.6502 27.2439C28.3865 27.5076 28.0291 27.6558 27.6562 27.6562H13.125C12.7522 27.6558 12.3947 27.5076 12.1311 27.2439C11.8674 26.9803 11.7192 26.6228 11.7188 26.25V3.75C11.7192 3.37716 11.8674 3.01972 12.1311 2.75608C12.3947 2.49245 12.7522 2.34416 13.125 2.34375H22.5V5.15625H16.4062C16.0334 5.15666 15.676 5.30495 15.4123 5.56858C15.1487 5.83222 15.0004 6.18966 15 6.5625V7.03125C15.0004 7.40409 15.1487 7.76153 15.4123 8.02517C15.676 8.2888 16.0334 8.43709 16.4062 8.4375H22.5864C22.6827 8.7109 22.8613 8.94779 23.0976 9.11565C23.3339 9.28351 23.6164 9.37411 23.9062 9.375H29.0625ZM16.4062 22.5C16.406 22.2514 16.3071 22.0131 16.1314 21.8374C15.9556 21.6616 15.7173 21.5627 15.4688 21.5625H14.5312C14.2827 21.5627 14.0444 21.6616 13.8686 21.8374C13.6928 22.0131 13.594 22.2514 13.5938 22.5V23.4375C13.594 23.6861 13.6928 23.9244 13.8686 24.1001C14.0444 24.2759 14.2827 24.3748 14.5312 24.375H15.4688C15.7173 24.3748 15.9556 24.2759 16.1314 24.1001C16.3071 23.9244 16.406 23.6861 16.4062 23.4375V22.5ZM16.4062 18.75C16.406 18.5014 16.3071 18.2631 16.1314 18.0874C15.9556 17.9116 15.7173 17.8127 15.4688 17.8125H14.5312C14.2827 17.8127 14.0444 17.9116 13.8686 18.0874C13.6928 18.2631 13.594 18.5014 13.5938 18.75V19.6875C13.594 19.9361 13.6928 20.1744 13.8686 20.3501C14.0444 20.5259 14.2827 20.6248 14.5312 20.625H15.4688C15.7173 20.6248 15.9556 20.5259 16.1314 20.3501C16.3071 20.1744 16.406 19.9361 16.4062 19.6875V18.75ZM16.4062 15C16.406 14.7514 16.3071 14.5131 16.1314 14.3374C15.9556 14.1616 15.7173 14.0627 15.4688 14.0625H14.5312C14.2827 14.0627 14.0444 14.1616 13.8686 14.3374C13.6928 14.5131 13.594 14.7514 13.5938 15V15.9375C13.594 16.1861 13.6928 16.4244 13.8686 16.6001C14.0444 16.7759 14.2827 16.8748 14.5312 16.875H15.4688C15.7173 16.8748 15.9556 16.7759 16.1314 16.6001C16.3071 16.4244 16.406 16.1861 16.4062 15.9375V15ZM16.4062 11.25C16.406 11.0014 16.3071 10.7631 16.1314 10.5874C15.9556 10.4116 15.7173 10.3127 15.4688 10.3125H14.5312C14.2827 10.3127 14.0444 10.4116 13.8686 10.5874C13.6928 10.7631 13.594 11.0014 13.5938 11.25V12.1875C13.594 12.4361 13.6928 12.6744 13.8686 12.8501C14.0444 13.0259 14.2827 13.1248 14.5312 13.125H15.4688C15.7173 13.1248 15.9556 13.0259 16.1314 12.8501C16.3071 12.6744 16.406 12.4361 16.4062 12.1875V11.25ZM27.1875 22.9688C27.1875 22.8444 27.1381 22.7252 27.0502 22.6373C26.9623 22.5494 26.8431 22.5 26.7188 22.5H17.8125C17.6882 22.5 17.569 22.5494 17.481 22.6373C17.3931 22.7252 17.3438 22.8444 17.3438 22.9688C17.3438 23.0931 17.3931 23.2123 17.481 23.3002C17.569 23.3881 17.6882 23.4375 17.8125 23.4375H26.7188C26.8431 23.4375 26.9623 23.3881 27.0502 23.3002C27.1381 23.2123 27.1875 23.0931 27.1875 22.9688ZM27.1875 19.2188C27.1875 19.0944 27.1381 18.9752 27.0502 18.8873C26.9623 18.7994 26.8431 18.75 26.7188 18.75H17.8125C17.6882 18.75 17.569 18.7994 17.481 18.8873C17.3931 18.9752 17.3438 19.0944 17.3438 19.2188C17.3438 19.3431 17.3931 19.4623 17.481 19.5502C17.569 19.6381 17.6882 19.6875 17.8125 19.6875H26.7188C26.8431 19.6875 26.9623 19.6381 27.0502 19.5502C27.1381 19.4623 27.1875 19.3431 27.1875 19.2188ZM27.1875 15.4688C27.1875 15.3444 27.1381 15.2252 27.0502 15.1373C26.9623 15.0494 26.8431 15 26.7188 15H17.8125C17.6882 15 17.569 15.0494 17.481 15.1373C17.3931 15.2252 17.3438 15.3444 17.3438 15.4688C17.3438 15.5931 17.3931 15.7123 17.481 15.8002C17.569 15.8881 17.6882 15.9375 17.8125 15.9375H26.7188C26.8431 15.9375 26.9623 15.8881 27.0502 15.8002C27.1381 15.7123 27.1875 15.5931 27.1875 15.4688ZM27.1875 11.7188C27.1875 11.5944 27.1381 11.4752 27.0502 11.3873C26.9623 11.2994 26.8431 11.25 26.7188 11.25H17.8125C17.6882 11.25 17.569 11.2994 17.481 11.3873C17.3931 11.4752 17.3438 11.5944 17.3438 11.7188C17.3438 11.8431 17.3931 11.9623 17.481 12.0502C17.569 12.1381 17.6882 12.1875 17.8125 12.1875H26.7188C26.8431 12.1875 26.9623 12.1381 27.0502 12.0502C27.1381 11.9623 27.1875 11.8431 27.1875 11.7188ZM10.7812 19.9564C9.7017 19.6513 8.75125 19.0022 8.07439 18.1076C7.39752 17.213 7.03125 16.1218 7.03125 15C7.03125 13.8782 7.39752 12.787 8.07439 11.8924C8.75125 10.9978 9.7017 10.3487 10.7812 10.0436V4.05004C10.5535 4.20592 10.3671 4.41493 10.2383 4.65899C10.1094 4.90306 10.042 5.17483 10.0417 5.45082V6.46088C9.19875 6.67115 8.39227 7.00727 7.64946 7.45791L6.93077 6.73944C6.60686 6.42995 6.17611 6.25725 5.72811 6.25725C5.28011 6.25725 4.84936 6.42995 4.52545 6.73944L3.92693 7.33795C3.60995 7.65797 3.43212 8.09018 3.43212 8.54061C3.43212 8.99104 3.60995 9.42325 3.92693 9.74327L4.655 10.4713C4.21092 11.2122 3.8804 12.0154 3.67447 12.8542H2.63832C2.1874 12.8548 1.75511 13.0341 1.43626 13.353C1.11741 13.6718 0.938046 14.1041 0.9375 14.5551V15.4449C0.938046 15.8959 1.11741 16.3282 1.43626 16.647C1.75511 16.9659 2.1874 17.1452 2.63832 17.1458H3.68957C3.90017 17.9771 4.23334 18.7724 4.67812 19.5055L3.92693 20.2567C3.60995 20.5767 3.43212 21.009 3.43212 21.4594C3.43212 21.9098 3.60995 22.342 3.92693 22.662L4.52545 23.2606C4.84941 23.57 5.28015 23.7426 5.72811 23.7426C6.17607 23.7426 6.60681 23.57 6.93077 23.2606L7.69134 22.5C8.42258 22.9386 9.21459 23.2668 10.0417 23.4739V24.5492C10.042 24.8252 10.1094 25.0969 10.2383 25.341C10.3671 25.5851 10.5535 25.7941 10.7812 25.95V19.9564Z" fill="#FF8A23"/>
</svg>
