<svg width="50" height="50" viewBox="0 0 50 50" fill="none" xmlns="http://www.w3.org/2000/svg">
<circle cx="25" cy="25" r="25" fill="white"/>
<path d="M19.2568 25.976C19.2328 27.0288 17.6732 27.8788 15.75 27.8788C13.8276 27.8788 12.2672 27.0288 12.2444 25.976C9.3032 26.2448 7 25.976 7 31.728C7 34.6036 9.1016 34.7456 11.854 34.7456C12.154 34.7456 12.462 34.7436 12.776 34.7436H18.7252C19.038 34.7436 19.3464 34.7456 19.6468 34.7456C22.3988 34.7456 24.5012 34.604 24.5012 31.728C24.5012 25.976 22.1972 26.2444 19.2568 25.976Z" fill="#00DFFF"/>
<path d="M15.7504 26.7304C18.4112 26.7304 20.5668 22.7304 20.5668 20.0708C20.5668 17.4108 18.4112 15.254 15.7504 15.254C13.0904 15.254 10.934 17.4104 10.934 20.0708C10.934 22.7308 13.0908 26.7304 15.7504 26.7304Z" fill="#00DFFF"/>
<path d="M35.1708 33.3384H28.1408V18.58H29.974C29.852 18.3548 29.7828 18.098 29.7828 17.8248C29.7828 17.6096 29.8288 17.4064 29.9068 17.2188H28.1364C27.3252 17.2188 26.6672 17.8768 26.6672 18.688V33.2296C26.6672 34.0412 27.3252 34.6992 28.1364 34.6992H36.3412C35.8716 34.3256 35.4748 33.864 35.1708 33.3384Z" fill="#00DFFF"/>
<path d="M37.4128 18.58H39.2456V26.0572C39.76 26.0572 40.2548 26.1444 40.7196 26.2996V18.6884C40.7196 17.8768 40.0616 17.2192 39.25 17.2192H37.48C37.5572 17.4068 37.6036 17.61 37.6036 17.8252C37.6036 18.0984 37.5344 18.3552 37.4128 18.58Z" fill="#00DFFF"/>
<path d="M31.6028 21.0272H38.2932V21.7616H31.6028V21.0272Z" fill="#00DFFF"/>
<path d="M31.6028 22.2416H34.4124V22.9764H31.6028V22.2416Z" fill="#00DFFF"/>
<path d="M29.0933 23.0252H31.0373V21.0816H29.0933V23.0252ZM29.3465 21.91C29.3861 21.8688 29.4381 21.8468 29.4941 21.8468C29.5485 21.8468 29.5997 21.868 29.6381 21.9068L29.8333 22.102L30.5093 21.5612C30.5453 21.532 30.5905 21.5164 30.6365 21.5164C30.7005 21.5164 30.7601 21.546 30.7993 21.5976C30.8681 21.6888 30.8517 21.82 30.7633 21.8908L29.9497 22.5412L29.9397 22.55L29.9349 22.552C29.9201 22.562 29.9049 22.5704 29.8933 22.5748L29.8809 22.5796L29.8761 22.5808C29.8557 22.5868 29.8373 22.59 29.8177 22.5904C29.8037 22.5904 29.7901 22.5884 29.7761 22.5856L29.7653 22.5824L29.7633 22.582C29.7537 22.5796 29.7433 22.576 29.7301 22.5696L29.7197 22.564L29.7177 22.5628C29.7101 22.5584 29.7025 22.554 29.6961 22.5488C29.6913 22.5452 29.6869 22.5416 29.6841 22.5388L29.6765 22.5332L29.6733 22.5296L29.3489 22.2048C29.2701 22.1252 29.2685 21.9928 29.3465 21.91Z" fill="#00DFFF"/>
<path d="M31.6028 24.9844H38.2932V25.7188H31.6028V24.9844Z" fill="#00DFFF"/>
<path d="M31.6028 26.1992H34.4124V26.9336H31.6028V26.1992Z" fill="#00DFFF"/>
<path d="M29.0933 26.9828H31.0373V25.0388H29.0933V26.9828ZM29.3465 25.8676C29.3861 25.8264 29.4381 25.804 29.4941 25.804C29.5485 25.804 29.5997 25.8256 29.6381 25.864L29.8333 26.0592L30.5093 25.5184C30.5453 25.4892 30.5905 25.4732 30.6365 25.4732C30.7005 25.4732 30.7601 25.5028 30.7993 25.5548C30.8681 25.646 30.8517 25.7772 30.7633 25.8476L29.9429 26.504L29.9353 26.5092L29.9341 26.5096C29.9189 26.5204 29.9037 26.5288 29.8925 26.5324L29.8805 26.5372L29.8761 26.5384C29.8557 26.5448 29.8365 26.5476 29.8173 26.548C29.8037 26.548 29.7905 26.546 29.7773 26.5436L29.7641 26.54L29.7609 26.5392C29.7517 26.536 29.7425 26.5328 29.7341 26.5296L29.7205 26.5224L29.7173 26.5204C29.7101 26.516 29.7037 26.512 29.6957 26.5064C29.6909 26.5028 29.6865 26.4988 29.6729 26.4876L29.3485 26.1624C29.2701 26.082 29.2689 25.9504 29.3465 25.8676Z" fill="#00DFFF"/>
<path d="M31.6028 29.6276H34.682C34.7492 29.3736 34.8356 29.1284 34.9404 28.8928H31.6024V29.6276H31.6028Z" fill="#00DFFF"/>
<path d="M31.6028 30.108H34.4124V30.8424H31.6028V30.108Z" fill="#00DFFF"/>
<path d="M29.0933 30.8916H31.0373V28.9476H29.0933V30.8916ZM29.3465 29.776C29.3861 29.7348 29.4381 29.7124 29.4941 29.7124C29.5485 29.7124 29.5997 29.7336 29.6381 29.7724L29.8333 29.9676L30.5093 29.4268C30.5453 29.3976 30.5905 29.3816 30.6365 29.3816C30.7005 29.3816 30.7601 29.4112 30.7993 29.4632C30.8681 29.554 30.8517 29.6852 30.7633 29.756L29.9429 30.412L29.9353 30.4176L29.9341 30.418C29.9189 30.4284 29.9037 30.4372 29.8925 30.4408L29.8805 30.4452L29.8761 30.4464C29.8557 30.4532 29.8365 30.456 29.8173 30.4564C29.8037 30.4564 29.7905 30.454 29.7773 30.452L29.7641 30.4484L29.7609 30.4472C29.7517 30.4448 29.7425 30.4412 29.7341 30.4376L29.7205 30.4304L29.7173 30.4284C29.7101 30.4244 29.7037 30.42 29.6957 30.4148C29.6909 30.4108 29.6865 30.4072 29.6729 30.3956L29.3485 30.0704C29.2701 29.9912 29.2689 29.8584 29.3465 29.776Z" fill="#00DFFF"/>
<path d="M39.246 27.0372C37.1728 27.0372 35.4916 28.7624 35.4916 30.8916C35.4916 33.02 37.1728 34.746 39.246 34.746C41.3192 34.746 43 33.02 43 30.8916C43 28.762 41.3192 27.0372 39.246 27.0372ZM41.4876 30.4164L38.892 32.4932L38.866 32.5116L38.8616 32.514C38.8124 32.5488 38.7592 32.5764 38.7032 32.5968C38.6936 32.6004 38.684 32.6036 38.6656 32.6092C38.5952 32.6304 38.53 32.6408 38.464 32.6416C38.4184 32.6416 38.3712 32.636 38.3176 32.6252C38.3048 32.622 38.2916 32.618 38.272 32.612C38.24 32.6028 38.208 32.5916 38.1796 32.5788C38.1596 32.57 38.1412 32.5596 38.128 32.5516C38.1004 32.5364 38.0728 32.5192 38.0532 32.504C38.0356 32.492 38.0192 32.478 38.0084 32.468C37.996 32.4584 37.9836 32.448 37.9712 32.436L36.9464 31.4084C36.6732 31.1348 36.6676 30.6836 36.9344 30.4028C37.068 30.2628 37.2468 30.186 37.4392 30.186C37.6248 30.186 37.7996 30.2588 37.9312 30.3912L38.516 30.9776L40.6196 29.2948C40.7428 29.1956 40.8968 29.1412 41.054 29.1412C41.2732 29.1412 41.4756 29.2424 41.61 29.4188C41.8432 29.7276 41.7888 30.1752 41.4876 30.4164Z" fill="#00DFFF"/>
<path d="M30.5176 17.8252C30.5176 18.298 30.902 18.6832 31.3748 18.6832H36.012C36.4848 18.6832 36.8696 18.2984 36.8696 17.8252C36.8696 17.352 36.4848 16.9676 36.012 16.9676H35.7188C35.704 16.8804 35.6852 16.7944 35.6604 16.7112C35.6408 16.6484 35.618 16.5872 35.5928 16.5272C35.2844 15.7812 34.5504 15.2544 33.694 15.2544C32.8376 15.2544 32.1032 15.7812 31.7948 16.5272C31.7696 16.5876 31.7472 16.6484 31.7276 16.7112C31.7024 16.7944 31.684 16.8804 31.6692 16.9676H31.3752C30.902 16.9672 30.5176 17.352 30.5176 17.8252ZM32.6876 16.7112C32.728 16.6448 32.7756 16.5844 32.8268 16.5272C33.0408 16.2884 33.348 16.1356 33.6936 16.1356C34.0392 16.1356 34.3464 16.2888 34.5608 16.5272C34.612 16.5844 34.6592 16.6452 34.6988 16.7112C34.7468 16.7908 34.7836 16.8772 34.8116 16.9676H32.5752C32.6032 16.8772 32.6404 16.7908 32.6876 16.7112Z" fill="#00DFFF"/>
</svg>
