<svg width="30" height="30" viewBox="0 0 30 30" fill="none" xmlns="http://www.w3.org/2000/svg">
<g clip-path="url(#clip0_32_39)">
<path d="M6.93815 23.4268C6.67928 23.4268 6.4694 23.6367 6.4694 23.8956V24.8818H2.62618V23.8956C2.62618 23.6367 2.41629 23.4268 2.15743 23.4268C1.89856 23.4268 1.68868 23.6367 1.68868 23.8956V24.8818H0.826294V23.6187C0.826294 22.54 1.78758 21.6624 2.96924 21.6624H6.12838C7.31004 21.6624 8.27133 22.54 8.27133 23.6187V24.8818H7.40684V23.8956C7.40684 23.6367 7.19702 23.4268 6.93815 23.4268ZM27.0306 21.6625H23.8715C22.6898 21.6625 21.7286 22.54 21.7286 23.6187V24.8818H22.5909V23.8956C22.5909 23.6368 22.8008 23.4269 23.0597 23.4269C23.3186 23.4269 23.5284 23.6368 23.5284 23.8956V24.8818H27.3717V23.8956C27.3717 23.6368 27.5815 23.4269 27.8404 23.4269C28.0993 23.4269 28.3092 23.6368 28.3092 23.8956V24.8818H29.1737V23.6187C29.1737 22.54 28.2124 21.6625 27.0307 21.6625H27.0306ZM22.0197 25.9165C19.99 27.4763 17.5629 28.3008 15.0008 28.3008C12.4388 28.3008 10.0099 27.4763 7.98024 25.9165C7.77493 25.7588 7.48073 25.7972 7.32288 26.0026C7.1652 26.2078 7.2037 26.5021 7.40895 26.6599C9.60405 28.3467 12.2293 29.2383 15.0008 29.2383C17.7724 29.2383 20.3959 28.3467 22.591 26.6599C22.7963 26.5021 22.8348 26.2079 22.6771 26.0026C22.5193 25.7973 22.225 25.7588 22.0197 25.9165ZM19.806 6.2952C23.573 8.02682 26.1319 11.6624 26.4839 15.7831C26.5047 16.0275 26.7096 16.212 26.9504 16.212C26.9637 16.212 26.9772 16.2114 26.9907 16.2103C27.2487 16.1883 27.4399 15.9613 27.4179 15.7034C27.0373 11.2471 24.2706 7.31566 20.1974 5.44336C19.9623 5.33531 19.684 5.43826 19.5758 5.67352C19.4677 5.90877 19.5707 6.18709 19.806 6.2952ZM3.01084 16.2086C3.02438 16.2098 3.03786 16.2104 3.05122 16.2104C3.29204 16.2104 3.49682 16.0259 3.51774 15.7815C3.86983 11.6614 6.42792 8.02717 10.1939 6.29695C10.4291 6.18885 10.5322 5.91053 10.4241 5.67533C10.3161 5.44014 10.0378 5.33695 9.8025 5.44506C5.73047 7.3159 2.96438 11.246 2.5837 15.7017C2.56167 15.9596 2.75292 16.1866 3.01084 16.2086ZM15.0008 4.7434C16.1345 4.7434 16.6444 3.37623 16.6444 2.40539C16.6444 1.49906 15.9071 0.761719 15.0008 0.761719C14.0944 0.761719 13.3571 1.49906 13.3571 2.40539C13.3571 3.37623 13.867 4.7434 15.0008 4.7434ZM12.1406 7.84154C12.1406 7.58268 12.3505 7.37279 12.6094 7.37279C12.8682 7.37279 13.0781 7.58268 13.0781 7.84154V8.82773H16.9214V7.84154C16.9214 7.58268 17.1312 7.37279 17.3901 7.37279C17.649 7.37279 17.8589 7.58268 17.8589 7.84154V8.82773H18.7233V7.56463C18.7233 6.48592 17.7621 5.60836 16.5804 5.60836H13.4213C12.2396 5.60836 11.2783 6.48592 11.2783 7.56463V8.82773H12.1407L12.1406 7.84154ZM2.90508 18.4612C2.90508 19.4321 3.41508 20.7994 4.54887 20.7994C5.68266 20.7994 6.19266 19.4321 6.19266 18.4612C6.19266 17.5548 5.45526 16.8174 4.54887 16.8174C3.64249 16.8174 2.90508 17.5548 2.90508 18.4612ZM25.4511 16.8174C24.5446 16.8174 23.8072 17.5548 23.8072 18.4612C23.8072 19.4321 24.3172 20.7994 25.4511 20.7994C26.5849 20.7994 27.0949 19.4321 27.0949 18.4612C27.0949 17.5548 26.3575 16.8174 25.4511 16.8174ZM17.588 21.2872C17.588 20.1697 18.4972 19.2605 19.6147 19.2605C20.7322 19.2605 21.6414 20.1697 21.6414 21.2872C21.6414 22.4047 20.7322 23.3156 19.6147 23.3156C18.4972 23.3156 17.588 22.4057 17.588 21.2872ZM18.6464 21.6596L19.0915 22.0874C19.1789 22.1715 19.2954 22.2182 19.4163 22.2182C19.4214 22.2182 19.4266 22.2181 19.4317 22.2179C19.5581 22.2138 19.6774 22.1588 19.7626 22.0654L20.6044 21.1425C20.7789 20.9513 20.7652 20.6548 20.574 20.4803C20.3827 20.3058 20.0862 20.3194 19.9117 20.5107L19.3942 21.0781L19.296 20.9838C19.1094 20.8044 18.8126 20.8103 18.6332 20.9969C18.4538 21.1835 18.4597 21.4803 18.6464 21.6597L18.6464 21.6596ZM12.1643 10.3039L10.1513 12.3152C10.1486 12.3179 10.1467 12.3212 10.1441 12.324H12.1712V10.2982C12.169 10.3003 12.1664 10.3017 12.1643 10.3039ZM17.2623 19.4866C17.2901 19.4266 17.3061 19.36 17.3061 19.2896C17.3061 19.0307 17.0963 18.8208 16.8374 18.8208H12.1144C11.8555 18.8208 11.6456 19.0307 11.6456 19.2896C11.6456 19.5485 11.8555 19.7583 12.1144 19.7583H16.8374C16.961 19.7583 17.073 19.7102 17.1568 19.632C16.8373 20.105 16.6505 20.6746 16.6505 21.2871C16.6505 22.0712 16.9567 22.7846 17.455 23.3155H10.317C10.1875 23.3155 10.0826 23.2106 10.0826 23.0811V13.2615H12.64C12.8988 13.2615 13.1087 13.0516 13.1087 12.7928V10.2353H19.6147C19.7441 10.2353 19.849 10.3403 19.849 10.4697V18.3332C19.7716 18.3271 19.6936 18.323 19.6146 18.323C18.657 18.323 17.8045 18.7798 17.2623 19.4866ZM14.0261 12.952C14.0261 13.2108 14.236 13.4207 14.4949 13.4207H17.8311C18.0899 13.4207 18.2998 13.2108 18.2998 12.952C18.2998 12.6931 18.0899 12.4832 17.8311 12.4832H14.4949C14.236 12.4832 14.0261 12.6931 14.0261 12.952ZM11.6319 14.5355C11.6319 14.7944 11.8417 15.0043 12.1006 15.0043H17.8311C18.0899 15.0043 18.2998 14.7944 18.2998 14.5355C18.2998 14.2767 18.0899 14.0668 17.8311 14.0668H12.1006C11.8417 14.0668 11.6319 14.2767 11.6319 14.5355ZM11.6319 16.1208C11.6319 16.3796 11.8417 16.5895 12.1006 16.5895H17.8311C18.0899 16.5895 18.2998 16.3796 18.2998 16.1208C18.2998 15.8619 18.0899 15.652 17.8311 15.652H12.1006C11.8417 15.652 11.6319 15.8619 11.6319 16.1208ZM11.6456 20.8748C11.6456 21.1337 11.8555 21.3436 12.1144 21.3436H15.7972C16.0561 21.3436 16.266 21.1337 16.266 20.8748C16.266 20.616 16.0561 20.4061 15.7972 20.4061H12.1144C11.8555 20.4061 11.6456 20.616 11.6456 20.8748ZM17.831 18.1731C18.0899 18.1731 18.2998 17.9632 18.2998 17.7043C18.2998 17.4455 18.0899 17.2356 17.831 17.2356H12.1006C11.8417 17.2356 11.6318 17.4455 11.6318 17.7043C11.6318 17.9632 11.8417 18.1731 12.1006 18.1731H17.831Z" fill="#2F55FF"/>
</g>
<defs>
<clipPath id="clip0_32_39">
<rect width="30" height="30" fill="white"/>
</clipPath>
</defs>
</svg>
