<svg width="30" height="30" viewBox="0 0 30 30" fill="none" xmlns="http://www.w3.org/2000/svg">
<g clip-path="url(#clip0_33_145)">
<path fill-rule="evenodd" clip-rule="evenodd" d="M6.86285 23.4463V12.3141H7.20147C7.39213 12.3141 7.5767 12.247 7.72293 12.1247C7.86915 12.0023 7.96772 11.8325 8.00139 11.6448L8.11775 10.9968C8.3235 10.9266 8.52455 10.8432 8.71969 10.7474L9.26051 11.1233C9.41705 11.2321 9.60686 11.2824 9.79676 11.2655C9.98666 11.2486 10.1646 11.1655 10.2994 11.0307L11.3396 9.99024C11.4744 9.8556 11.5576 9.6778 11.5745 9.488C11.5914 9.29819 11.541 9.10849 11.4321 8.95213L11.0562 8.41049C11.1524 8.21548 11.2357 8.01441 11.3057 7.80856L11.9537 7.6926C12.1414 7.65899 12.3113 7.56038 12.4336 7.41404C12.5559 7.2677 12.6228 7.08298 12.6226 6.89227V6.55365H23.7554V16.0605H19.2295C19.1052 16.0605 18.9859 16.1099 18.898 16.1978C18.8101 16.2857 18.7607 16.405 18.7607 16.5293V23.4463H6.86285ZM29.6865 29.5312V16.5293C29.6865 16.405 29.6371 16.2857 29.5492 16.1978C29.4613 16.1099 29.3421 16.0605 29.2178 16.0605H24.6928V6.08479C24.6928 5.96047 24.6434 5.84124 24.5555 5.75333C24.4676 5.66542 24.3484 5.61604 24.2241 5.61604H12.6225V5.42086C12.6226 5.23024 12.5557 5.04565 12.4334 4.89942C12.3111 4.75318 12.1413 4.65462 11.9537 4.621L11.3057 4.50463C11.2355 4.29883 11.1522 4.09777 11.0562 3.9027L11.4321 3.36188C11.541 3.20544 11.5914 3.01567 11.5745 2.82581C11.5576 2.63595 11.4744 2.45808 11.3396 2.32336L10.2994 1.2832C10.1647 1.14826 9.98673 1.06504 9.79678 1.04814C9.60682 1.03123 9.41698 1.08172 9.26051 1.19074L8.71969 1.56621C8.52464 1.47013 8.32358 1.38679 8.11775 1.31672L8.00139 0.669141C7.96783 0.48144 7.86929 0.311533 7.72304 0.18919C7.57679 0.0668475 7.39214 -0.000127287 7.20147 7.10814e-07H5.73041C5.53968 -0.000251599 5.35494 0.0666732 5.20862 0.189033C5.06231 0.311392 4.96375 0.48137 4.93025 0.669141L4.81348 1.31666C4.60782 1.38681 4.40689 1.47015 4.21195 1.56615L3.67113 1.19068C3.51474 1.08165 3.32495 1.03117 3.13505 1.04808C2.94515 1.065 2.76728 1.14824 2.63262 1.2832L1.59205 2.32336C1.4572 2.45808 1.37404 2.63595 1.35713 2.82581C1.34021 3.01567 1.39062 3.20544 1.49953 3.36188L1.87541 3.9027C1.77944 4.09784 1.69597 4.29889 1.62551 4.50463L0.977579 4.621C0.790011 4.6547 0.620268 4.75329 0.498058 4.89951C0.375847 5.04574 0.308953 5.23029 0.309083 5.42086V6.89221C0.308767 7.08284 0.375592 7.26749 0.497834 7.41376C0.620075 7.56004 0.789925 7.65859 0.977579 7.69213L1.62551 7.8085C1.69572 8.01433 1.7792 8.21539 1.87541 8.41043L1.49953 8.95125C1.39059 9.10776 1.34016 9.2976 1.35707 9.48755C1.37399 9.67749 1.45717 9.85544 1.59205 9.99024L2.63262 11.0308C2.76738 11.1656 2.94524 11.2487 3.13508 11.2656C3.32492 11.2825 3.51467 11.2322 3.67113 11.1233L4.21195 10.7474C4.40698 10.8432 4.60789 10.9265 4.81348 10.9969L4.93025 11.6449C4.96389 11.8326 5.06248 12.0025 5.20876 12.1248C5.35505 12.2472 5.5397 12.3142 5.73041 12.3141H5.92547V23.9147C5.92547 24.0391 5.97486 24.1583 6.06276 24.2462C6.15067 24.3341 6.2699 24.3835 6.39422 24.3835H18.7607V29.5312C18.7607 29.6556 18.8101 29.7748 18.898 29.8627C18.9859 29.9506 19.1051 30 19.2294 30H29.2177C29.342 30 29.4613 29.9506 29.5492 29.8627C29.6371 29.7748 29.6865 29.6556 29.6865 29.5312H29.6865ZM15.7774 15.4688H19.1332C19.2575 15.4688 19.3768 15.4194 19.4647 15.3315C19.5526 15.2435 19.602 15.1243 19.602 15C19.602 14.8757 19.5526 14.7565 19.4647 14.6685C19.3768 14.5806 19.2575 14.5313 19.1332 14.5313H15.7774V11.1756C15.7774 11.0513 15.728 10.932 15.6401 10.8441C15.5522 10.7562 15.433 10.7068 15.3087 10.7068C15.1844 10.7068 15.0651 10.7562 14.9772 10.8441C14.8893 10.932 14.8399 11.0513 14.8399 11.1756V14.5313H11.4848C11.3605 14.5313 11.2413 14.5806 11.1534 14.6685C11.0655 14.7565 11.0161 14.8757 11.0161 15C11.0161 15.1243 11.0655 15.2435 11.1534 15.3315C11.2413 15.4194 11.3605 15.4688 11.4848 15.4688H14.8402V18.8245C14.8402 18.9489 14.8896 19.0681 14.9775 19.156C15.0654 19.2439 15.1846 19.2933 15.309 19.2933C15.4333 19.2933 15.5525 19.2439 15.6404 19.156C15.7283 19.0681 15.7777 18.9489 15.7777 18.8245V15.4688H15.7774ZM27.0453 26.8008C27.1696 26.8008 27.2888 26.8502 27.3768 26.9381C27.4647 27.026 27.514 27.1452 27.514 27.2695C27.514 27.3939 27.4647 27.5131 27.3768 27.601C27.2888 27.6889 27.1696 27.7383 27.0453 27.7383H21.4024C21.278 27.7383 21.1588 27.6889 21.0709 27.601C20.983 27.5131 20.9336 27.3939 20.9336 27.2695C20.9336 27.1452 20.983 27.026 21.0709 26.9381C21.1588 26.8502 21.278 26.8008 21.4024 26.8008H27.0453ZM27.0453 24.9386C27.1696 24.9386 27.2888 24.9879 27.3768 25.0758C27.4647 25.1638 27.514 25.283 27.514 25.4073C27.514 25.5316 27.4647 25.6509 27.3768 25.7388C27.2888 25.8267 27.1696 25.8761 27.0453 25.8761H21.4024C21.278 25.8761 21.1588 25.8267 21.0709 25.7388C20.983 25.6509 20.9336 25.5316 20.9336 25.4073C20.9336 25.283 20.983 25.1638 21.0709 25.0758C21.1588 24.9879 21.278 24.9386 21.4024 24.9386H27.0453ZM27.0453 23.0763H21.4024C21.278 23.0763 21.1588 23.1257 21.0709 23.2136C20.983 23.3015 20.9336 23.4207 20.9336 23.545C20.9336 23.6693 20.983 23.7886 21.0709 23.8765C21.1588 23.9644 21.278 24.0138 21.4024 24.0138H27.0453C27.1696 24.0138 27.2888 23.9644 27.3768 23.8765C27.4647 23.7886 27.514 23.6693 27.514 23.545C27.514 23.4207 27.4647 23.3015 27.3768 23.2136C27.2888 23.1257 27.1696 23.0763 27.0453 23.0763ZM27.0453 21.2144H21.4024C21.278 21.2144 21.1588 21.2638 21.0709 21.3517C20.983 21.4396 20.9336 21.5588 20.9336 21.6831C20.9336 21.8075 20.983 21.9267 21.0709 22.0146C21.1588 22.1025 21.278 22.1519 21.4024 22.1519H27.0453C27.1696 22.1519 27.2888 22.1025 27.3768 22.0146C27.4647 21.9267 27.514 21.8075 27.514 21.6831C27.514 21.5588 27.4647 21.4396 27.3768 21.3517C27.2888 21.2638 27.1696 21.2144 27.0453 21.2144ZM27.0453 18.322H21.4024C21.278 18.322 21.1588 18.3714 21.0709 18.4593C20.983 18.5472 20.9336 18.6664 20.9336 18.7907C20.9336 18.915 20.983 19.0343 21.0709 19.1222C21.1588 19.2101 21.278 19.2595 21.4024 19.2595H27.0453C27.1696 19.2595 27.2888 19.2101 27.3768 19.1222C27.4647 19.0343 27.514 18.915 27.514 18.7907C27.514 18.6664 27.4647 18.5472 27.3768 18.4593C27.2888 18.3714 27.1696 18.322 27.0453 18.322ZM6.46559 9.1902C7.06561 9.19024 7.65218 9.01235 8.1511 8.67902C8.65003 8.3457 9.0389 7.8719 9.26854 7.31756C9.49818 6.76321 9.55828 6.15322 9.44123 5.56472C9.32418 4.97622 9.03525 4.43564 8.61096 4.01136C8.18668 3.58708 7.64611 3.29814 7.05761 3.18109C6.46911 3.06404 5.85911 3.12414 5.30477 3.35378C4.75043 3.58343 4.27663 3.9723 3.9433 4.47122C3.60997 4.97015 3.43208 5.55671 3.43213 6.15674C3.433 6.961 3.75287 7.73206 4.32157 8.30076C4.89026 8.86945 5.66133 9.18933 6.46559 9.1902ZM8.5619 6.15674C8.56185 5.74219 8.43888 5.33697 8.20855 4.99231C7.97821 4.64765 7.65084 4.37903 7.26785 4.22041C6.88485 4.06179 6.46342 4.0203 6.05684 4.10119C5.65026 4.18207 5.2768 4.3817 4.98367 4.67483C4.69055 4.96795 4.49092 5.34142 4.41003 5.74799C4.32915 6.15457 4.37064 6.576 4.52926 6.959C4.68787 7.342 4.9565 7.66936 5.30116 7.8997C5.64582 8.13004 6.05104 8.253 6.46559 8.25305C7.02137 8.25243 7.55422 8.03137 7.94722 7.63837C8.34022 7.24537 8.56127 6.71252 8.5619 6.15674Z" fill="#2CC6FF"/>
</g>
<defs>
<clipPath id="clip0_33_145">
<rect width="30" height="30" fill="white"/>
</clipPath>
</defs>
</svg>
