<svg width="15" height="15" viewBox="0 0 15 15" fill="none" xmlns="http://www.w3.org/2000/svg">
<g clip-path="url(#clip0_167_219)">
<path d="M7.5 15C5.56723 15 3.74396 14.7422 2.36607 14.274C0.410508 13.6096 0 12.7586 0 12.1617C0 11.3831 0.695772 10.8374 1.27942 10.5167C1.49221 10.3999 1.75931 10.4776 1.87617 10.6903C1.99304 10.903 1.91534 11.1702 1.70262 11.2871C1.17914 11.5746 0.878906 11.8934 0.878906 12.1617C0.878906 12.4899 1.34385 12.9985 2.64882 13.4418C3.93803 13.8799 5.66089 14.1211 7.5 14.1211C9.33911 14.1211 11.062 13.8799 12.3512 13.4418C13.6562 12.9985 14.1211 12.4899 14.1211 12.1617C14.1211 11.8934 13.8209 11.5746 13.2974 11.287C13.0847 11.1702 13.007 10.903 13.1238 10.6903C13.2406 10.4776 13.5078 10.3999 13.7206 10.5167C14.3042 10.8374 15 11.3831 15 12.1617C15 12.7586 14.5895 13.6096 12.6339 14.274C11.256 14.7422 9.43277 15 7.5 15Z" fill="#C9DFF7"/>
<path d="M13.7207 10.5167C13.5079 10.3999 13.2408 10.4776 13.1239 10.6903C13.0071 10.903 13.0848 11.1702 13.2975 11.2871C13.821 11.5746 14.1212 11.8934 14.1212 12.1617C14.1212 12.4899 13.6563 12.9985 12.3513 13.4418C11.0621 13.8799 9.33923 14.1211 7.50012 14.1211H7.5V15H7.50012C9.43289 15 11.2562 14.7422 12.634 14.274C14.5896 13.6096 15.0001 12.7586 15.0001 12.1617C15.0001 11.3831 14.3043 10.8374 13.7207 10.5167Z" fill="#AECEF2"/>
<path d="M7.5002 13.1974C6.25276 13.1974 5.07447 13.0586 4.18238 12.8066C3.09099 12.4983 2.5376 12.052 2.5376 11.4801C2.5376 10.9083 3.09099 10.4621 4.18238 10.1538C5.07447 9.90172 6.25276 9.76294 7.5002 9.76294C8.74763 9.76294 9.92592 9.90172 10.818 10.1538C11.9094 10.4621 12.4628 10.9083 12.4628 11.4801C12.4628 12.052 11.9094 12.4983 10.818 12.8066C9.92592 13.0586 8.74763 13.1974 7.5002 13.1974ZM3.42395 11.4801C3.48427 11.5687 3.77768 11.799 4.58088 12.0035C5.37813 12.2066 6.41492 12.3184 7.50017 12.3184C8.58541 12.3184 9.62223 12.2066 10.4195 12.0035C11.2227 11.799 11.5161 11.5687 11.5764 11.4801C11.5161 11.3916 11.2227 11.1613 10.4195 10.9567C9.6222 10.7536 8.58544 10.6418 7.50017 10.6418C6.41489 10.6418 5.37813 10.7536 4.58088 10.9567C3.77771 11.1613 3.4843 11.3916 3.42395 11.4801Z" fill="#C9DFF7"/>
<path d="M10.8179 10.1537C9.92584 9.90166 8.74755 9.76288 7.50012 9.76288H7.5V10.6418H7.50012C8.58539 10.6418 9.62215 10.7536 10.4194 10.9567C11.2226 11.1612 11.516 11.3916 11.5764 11.4801C11.516 11.5687 11.2226 11.799 10.4194 12.0035C9.62218 12.2066 8.58539 12.3184 7.50012 12.3184H7.5V13.1973H7.50012C8.74755 13.1973 9.92584 13.0585 10.8179 12.8065C11.9093 12.4982 12.4627 12.0519 12.4627 11.4801C12.4627 10.9083 11.9093 10.462 10.8179 10.1537Z" fill="#AECEF2"/>
<path d="M7.5002 0C5.24762 0 3.41504 1.83258 3.41504 4.08513C3.41504 5.48818 5.11962 8.57156 6.54957 10.9111C6.75365 11.245 7.10902 11.4444 7.5002 11.4444C7.8914 11.4444 8.24674 11.245 8.45082 10.9111C9.8808 8.57156 11.5854 5.48818 11.5854 4.08513C11.5854 1.83258 9.75277 0 7.5002 0ZM7.5002 5.44661C6.5948 5.44661 5.85819 4.71003 5.85819 3.80464C5.85819 2.89928 6.5948 2.1627 7.5002 2.1627C8.40559 2.1627 9.1422 2.89928 9.1422 3.80464C9.1422 4.71006 8.40559 5.44661 7.5002 5.44661Z" fill="#FE5857"/>
<path d="M7.50012 0H7.5V2.1627H7.50012C8.40551 2.1627 9.14212 2.89928 9.14212 3.80464C9.14212 4.71003 8.40551 5.44661 7.50012 5.44661H7.5V11.4444H7.50012C7.89132 11.4444 8.24666 11.245 8.45074 10.9111C9.88072 8.57156 11.5853 5.48818 11.5853 4.08513C11.5853 1.83258 9.7527 0 7.50012 0Z" fill="#DB0253"/>
</g>
<defs>
<clipPath id="clip0_167_219">
<rect width="15" height="15" fill="white"/>
</clipPath>
</defs>
</svg>
