<svg width="20" height="20" viewBox="0 0 20 20" fill="none" xmlns="http://www.w3.org/2000/svg">
<g clip-path="url(#clip0_294_1249)">
<path d="M12.7078 15.0001C12.7078 16.3784 11.5862 17.5001 10.2079 17.5001H7.9164C7.5705 17.5001 7.2606 17.2868 7.13807 16.9634L1.09655 1.13065C0.998283 0.874767 1.03322 0.5873 1.18825 0.361477C1.34404 0.135654 1.60068 0.000617981 1.87487 0.000617981H10.2079C11.5862 0.000617981 12.7078 1.12226 12.7078 2.50054V15.0001Z" fill="#2196F3"/>
<path d="M7.70806 3.33379V18.3333C7.70806 18.9084 7.24146 19.375 6.66653 19.375C6.5498 19.375 6.44147 19.3584 6.33313 19.325L1.33329 17.6584C0.924978 17.5167 0.625 17.125 0.625 16.6668V1.66728C0.625 1.09219 1.0916 0.625595 1.66668 0.625595C1.78326 0.625595 1.89159 0.642227 1.99993 0.675642L6.99977 2.34215C7.40808 2.4839 7.70806 2.87559 7.70806 3.33379Z" fill="#64B5F6"/>
<path d="M6.13567 19.9174L1.12911 18.2483C0.453324 18.015 0 17.3792 0 16.6668V1.66729C0 0.569755 1.06747 -0.264417 2.1975 0.0831678L7.20391 1.75227C7.8797 1.98557 8.33302 2.62139 8.33302 3.3338V18.3333C8.33302 19.2525 7.58567 20 6.66651 20C6.48814 20 6.31892 19.9742 6.13567 19.9174ZM1.24996 1.66729V16.6668C1.24996 16.8443 1.36837 17.0092 1.53071 17.066L6.51652 18.7284C6.78735 18.81 7.08306 18.6159 7.08306 18.3333V3.3338C7.08306 3.15634 6.96481 2.9914 6.80231 2.93464L1.81574 1.27316C1.76584 1.25729 1.71915 1.25058 1.66667 1.25058C1.43657 1.25058 1.24996 1.43719 1.24996 1.66729Z" fill="#64B5F6"/>
<path d="M19.3745 9.37533H11.458C11.113 9.37533 10.833 9.09534 10.833 8.75035C10.833 8.40536 11.113 8.12537 11.458 8.12537H19.3745C19.7194 8.12537 19.9994 8.40536 19.9994 8.75035C19.9994 9.09534 19.7194 9.37533 19.3745 9.37533Z" fill="black"/>
<path d="M16.2496 12.5002C16.0895 12.5002 15.9296 12.4394 15.8079 12.317C15.5637 12.0727 15.5637 11.6769 15.8079 11.4328L18.4912 8.74959L15.8079 6.06626C15.5637 5.82213 15.5637 5.42632 15.8079 5.18219C16.0521 4.93791 16.4479 4.93791 16.6921 5.18219L19.817 8.30709C20.0611 8.55123 20.0611 8.94703 19.817 9.19116L16.6921 12.3161C16.5696 12.4394 16.4096 12.5002 16.2496 12.5002Z" fill="black"/>
<path d="M6.66651 20C6.48814 20 6.31892 19.975 6.14986 19.9225L1.13491 18.2517C0.452561 18.0134 0 17.3775 0 16.6668V1.66728C0 0.748123 0.747505 0.000617981 1.66667 0.000617981C1.84488 0.000617981 2.0141 0.0256416 2.18331 0.0781302L7.19811 1.74892C7.88061 1.98725 8.33302 2.62306 8.33302 3.3338V18.3333C8.33302 19.2525 7.58567 20 6.66651 20ZM1.66667 1.25058C1.43749 1.25058 1.24996 1.4381 1.24996 1.66728V16.6668C1.24996 16.8443 1.36913 17.0092 1.53911 17.0684L6.53056 18.7317C6.56641 18.7433 6.6131 18.75 6.66651 18.75C6.89569 18.75 7.08306 18.5625 7.08306 18.3333V3.3338C7.08306 3.15634 6.96389 2.9914 6.79392 2.9322L1.80246 1.26889C1.76661 1.25729 1.71992 1.25058 1.66667 1.25058Z" fill="black"/>
<path d="M12.7079 6.66713C12.363 6.66713 12.083 6.38714 12.083 6.04215V2.29226C12.083 1.71809 11.6156 1.25058 11.0414 1.25058H1.66673C1.32174 1.25058 1.04175 0.970589 1.04175 0.625598C1.04175 0.280608 1.32174 0.000617981 1.66673 0.000617981H11.0414C12.3056 0.000617981 13.3329 1.02811 13.3329 2.29226V6.04215C13.3329 6.38714 13.0529 6.66713 12.7079 6.66713Z" fill="black"/>
<path d="M11.0413 17.5001H7.70799C7.363 17.5001 7.08301 17.2201 7.08301 16.8751C7.08301 16.5301 7.363 16.2501 7.70799 16.2501H11.0413C11.6155 16.2501 12.0829 15.7826 12.0829 15.2084V11.4585C12.0829 11.1136 12.3628 10.8336 12.7078 10.8336C13.0528 10.8336 13.3328 11.1136 13.3328 11.4585V15.2084C13.3328 16.4726 12.3055 17.5001 11.0413 17.5001Z" fill="black"/>
</g>
<defs>
<clipPath id="clip0_294_1249">
<rect width="20" height="20" fill="white"/>
</clipPath>
</defs>
</svg>
