<svg width="251" height="251" viewBox="0 0 251 251" fill="none" xmlns="http://www.w3.org/2000/svg">
<path d="M146.416 135.959C129.118 135.959 115.041 121.883 115.041 104.585C115.041 87.287 129.118 73.2101 146.416 73.2101H167.331V31.3778C167.331 14.08 153.254 0.00317383 135.956 0.00317383H23.5308C20.0896 0.00317383 16.8686 1.696 14.9135 4.53013C12.9679 7.36427 12.5293 10.974 13.7626 14.1834L89.5853 212.891C91.123 216.949 95.0123 219.626 99.3535 219.626H135.956C153.254 219.626 167.331 205.549 167.331 188.251V135.959H146.416Z" fill="#707FCA"/>
<path d="M194.701 156.082C190.8 154.46 188.248 150.643 188.248 146.417V115.042H146.416C140.642 115.042 135.956 110.358 135.956 104.585C135.956 98.8113 140.642 94.1273 146.416 94.1273H188.248V62.7526C188.248 58.5263 190.8 54.7098 194.701 53.0878C198.612 51.4678 203.11 52.3678 206.099 55.359L247.933 97.1912C252.022 101.28 252.022 107.89 247.933 111.979L206.099 153.813C203.11 156.802 198.612 157.702 194.701 156.082Z" fill="#5063BF"/>
<path d="M90.4224 21.985L27.5792 1.03727C13.397 -3.32309 0 7.14599 0 20.9184V209.166C0 218.109 5.68934 226.089 14.1611 229.017L76.9928 249.965C79.3042 250.675 81.4278 251.001 83.6664 251.001C95.2021 251.001 104.582 241.619 104.582 230.083V41.8355C104.582 32.8945 98.8923 24.9149 90.4224 21.985Z" fill="#5063BF"/>
</svg>
