<svg width="141" height="164" viewBox="0 0 141 164" fill="none" xmlns="http://www.w3.org/2000/svg">
<path fill-rule="evenodd" clip-rule="evenodd" d="M110.152 163.872H2.82381C1.67181 163.872 0.903809 163.008 0.903809 161.952V30.624C0.903809 29.568 1.67181 28.704 2.82381 28.704H77.7038L77.9918 28.992C76.4558 30.24 75.6878 32.352 76.2638 34.464L79.0478 44.64C79.4318 45.888 80.2958 47.04 81.4478 47.712C82.0238 48.096 82.6958 48.288 83.3678 48.384C83.1758 49.056 83.0798 49.728 83.1758 50.4C83.3678 51.744 84.0398 52.992 85.0958 53.76L93.4478 60.384C95.1758 61.632 97.3838 61.728 99.1118 60.768C99.3998 61.44 99.7838 62.016 100.264 62.496C101.128 63.456 102.472 64.032 103.816 64.128L111.976 64.416V161.952C112.072 163.008 111.208 163.872 110.152 163.872ZM21.1598 108.192C14.5358 108.192 9.15981 102.912 9.15981 96.288C9.15981 89.664 14.5358 84.288 21.1598 84.288C27.7838 84.288 33.1598 89.664 33.1598 96.288C33.1598 102.912 27.7838 108.192 21.1598 108.192ZM89.2238 125.472H42.8558C41.7998 125.472 40.9358 124.608 40.9358 123.552C40.9358 122.496 41.7998 121.632 42.8558 121.632H89.2238C90.2798 121.632 91.1438 122.496 91.1438 123.552C91.1438 124.608 90.3758 125.472 89.2238 125.472ZM89.2238 70.944H42.8558C41.7998 70.944 40.9358 70.08 40.9358 69.024C40.9358 67.968 41.7998 67.104 42.8558 67.104H89.2238C90.2798 67.104 91.1438 67.872 91.1438 69.024C91.1438 70.08 90.3758 70.944 89.2238 70.944ZM89.2238 98.208H42.8558C41.7998 98.208 40.9358 97.344 40.9358 96.288C40.9358 95.232 41.7998 94.368 42.8558 94.368H89.2238C90.2798 94.368 91.1438 95.232 91.1438 96.288C91.1438 97.344 90.3758 98.208 89.2238 98.208ZM21.1598 134.688C14.5358 134.688 9.15981 129.312 9.15981 122.688C9.15981 116.16 14.5358 110.784 21.1598 110.784C27.7838 110.784 33.1598 116.16 33.1598 122.688C33.1598 129.312 27.7838 134.688 21.1598 134.688ZM21.1598 81.792C14.5358 81.792 9.15981 76.416 9.15981 69.792C9.15981 63.168 14.5358 57.888 21.1598 57.888C27.7838 57.888 33.1598 63.168 33.1598 69.792C33.1598 76.416 27.7838 81.792 21.1598 81.792Z" fill="#5063BF"/>
<path fill-rule="evenodd" clip-rule="evenodd" d="M114.568 61.248C114.472 61.248 114.472 61.248 114.472 61.248L103.912 60.96C103.336 60.864 102.856 60.672 102.568 60.288C102.184 59.904 101.992 59.424 101.992 58.944L102.28 52.224L98.1521 57.504C97.4801 58.368 96.2321 58.464 95.4641 57.792L87.1121 51.264C86.7281 50.976 86.4401 50.496 86.3441 50.016C86.3441 49.536 86.4401 48.96 86.8241 48.576L90.9521 43.392L84.5201 45.12C83.9441 45.216 83.4641 45.216 82.9841 44.928C82.6001 44.64 82.2161 44.256 82.1201 43.776L79.3361 33.6C79.0481 32.544 79.6241 31.488 80.6801 31.2L87.1121 29.472L80.8721 27.072C79.8161 26.688 79.3361 25.536 79.7201 24.576L83.4641 14.688C83.6561 14.208 84.0401 13.824 84.5201 13.632C85.0001 13.44 85.4801 13.44 85.9601 13.632L92.2001 15.936L88.6481 10.368C88.0721 9.408 88.2641 8.256 89.2241 7.68L98.0561 2.016C98.5361 1.728 99.0161 1.632 99.4961 1.728C99.9761 1.824 100.456 2.112 100.744 2.592L102.952 5.952V1.92C102.952 0.864 103.816 0 104.872 0H115.432C116.488 0 117.352 0.864 117.352 1.92V8.64L121.288 3.264C121.96 2.4 123.112 2.208 123.976 2.784L132.52 9.12C132.904 9.408 133.192 9.888 133.288 10.368C133.384 10.848 133.192 11.328 132.904 11.808L128.968 17.184L135.304 15.168C136.36 14.88 137.416 15.456 137.704 16.416L140.872 26.496C141.064 26.976 140.968 27.552 140.776 28.032C140.488 28.416 140.104 28.8 139.624 28.992L133.192 30.912L139.528 33.12C140.008 33.312 140.392 33.6 140.68 34.08C140.872 34.56 140.872 35.04 140.776 35.52L137.224 45.6C136.936 46.56 135.784 47.136 134.824 46.752L128.488 44.544L132.328 50.112C132.904 50.976 132.712 52.128 131.848 52.704L123.112 58.752C122.248 59.328 121 59.136 120.424 58.272L116.68 52.704L116.392 59.424C116.392 59.904 116.2 60.384 115.816 60.768C115.528 61.056 115.048 61.248 114.568 61.248ZM110.152 46.272C101.512 46.272 94.5041 39.264 94.5041 30.624C94.5041 21.984 101.512 14.976 110.152 14.976C118.696 14.976 125.704 21.984 125.704 30.624C125.704 39.264 118.696 46.272 110.152 46.272Z" fill="#707FCA"/>
<path fill-rule="evenodd" clip-rule="evenodd" d="M13 122.784C13 127.2 16.648 130.848 21.16 130.848C25.672 130.848 29.32 127.2 29.32 122.784C29.32 118.272 25.672 114.624 21.16 114.624C16.648 114.624 13 118.272 13 122.784ZM13 69.792C13 74.304 16.648 77.952 21.16 77.952C25.672 77.952 29.32 74.304 29.32 69.792C29.32 65.376 25.672 61.632 21.16 61.632C16.648 61.632 13 65.376 13 69.792ZM13 96.288C13 100.8 16.648 104.448 21.16 104.448C25.672 104.448 29.32 100.8 29.32 96.288C29.32 91.776 25.672 88.128 21.16 88.128C16.648 88.128 13 91.776 13 96.288Z" fill="#707FCA"/>
</svg>
