<svg width="127" height="126" viewBox="0 0 127 126" fill="none" xmlns="http://www.w3.org/2000/svg">
<path d="M27.9001 34.2C28.8001 35.1 30.1501 35.55 31.0501 35.55C31.9501 35.55 33.3001 35.1 34.2001 34.2C36.0001 32.4 36.0001 29.7 34.2001 27.9L24.7501 18.45C22.9501 16.65 20.2501 16.65 18.4501 18.45C16.6501 20.25 16.6501 22.95 18.4501 24.75L27.9001 34.2Z" fill="#5063BF"/>
<path d="M22.5 63C22.5 60.3 20.7 58.5 18 58.5H4.5C1.8 58.5 0 60.3 0 63C0 65.7 1.8 67.5 4.5 67.5H18C20.7 67.5 22.5 65.7 22.5 63Z" fill="#5063BF"/>
<path d="M27.9001 91.8L18.4501 101.25C16.6501 103.05 16.6501 105.75 18.4501 107.55C19.3501 108.45 20.7001 108.9 21.6001 108.9C22.5001 108.9 23.8501 108.45 24.7501 107.55L34.2001 98.0999C36.0001 96.2999 36.0001 93.6 34.2001 91.8C32.4001 90 29.7001 90 27.9001 91.8Z" fill="#5063BF"/>
<path d="M123.3 63.9C121.5 63 119.25 63.45 117.9 65.25C114.3 69.75 108.9 72 103.5 72C93.15 72 84.15 63.45 84.15 52.65C84.15 45.45 88.2 39.15 94.5 35.55C96.3 34.65 97.2 32.4 96.75 30.6C96.3 28.8 94.5 27 92.25 27C91.8 27 90.9 27 90.45 27C81.9 27 73.8 30.15 67.5 35.1V4.5C67.5 1.8 65.7 0 63 0C60.3 0 58.5 1.8 58.5 4.5V27.45C40.95 29.7 27 45 27 63C27 81 40.95 96.3 58.5 98.55V121.5C58.5 124.2 60.3 126 63 126C65.7 126 67.5 124.2 67.5 121.5V90.9C73.8 96.3 81.9 99 90.45 99C108.45 99 123.3 85.95 126 68.4C126.45 66.6 125.1 64.35 123.3 63.9ZM67.5 81C67.5 83.7 65.7 85.5 63 85.5C60.3 85.5 58.5 83.7 58.5 81V45C58.5 42.3 60.3 40.5 63 40.5C65.7 40.5 67.5 42.3 67.5 45V81Z" fill="#5063BF"/>
</svg>
