<svg width="351" height="238" viewBox="0 0 351 238" fill="none" xmlns="http://www.w3.org/2000/svg">
<g clip-path="url(#clip0_14_2)">
<path d="M161.331 0C75.8665 0 6.5892 69.1686 6.5892 154.504C6.55512 178.729 12.2535 202.62 23.2201 224.231H299.442C310.408 202.62 316.107 178.729 316.073 154.504C316.073 69.1686 246.789 0 161.331 0Z" fill="url(#paint0_linear_14_2)"/>
<path d="M65.4777 20.6149C70.0141 16.086 70.0141 8.74326 65.4777 4.2144C60.9413 -0.314468 53.5864 -0.314468 49.05 4.2144C44.5136 8.74326 44.5136 16.086 49.05 20.6149C53.5864 25.1437 60.9413 25.1437 65.4777 20.6149Z" fill="url(#paint1_linear_14_2)"/>
<path d="M276.836 30.2393C278.178 30.2393 279.267 29.1525 279.267 27.8119C279.267 26.4713 278.178 25.3845 276.836 25.3845C275.493 25.3845 274.404 26.4713 274.404 27.8119C274.404 29.1525 275.493 30.2393 276.836 30.2393Z" fill="url(#paint2_linear_14_2)"/>
<path d="M240.577 40.7256C241.92 40.7256 243.008 39.6389 243.008 38.2982C243.008 36.9576 241.92 35.8708 240.577 35.8708C239.234 35.8708 238.146 36.9576 238.146 38.2982C238.146 39.6389 239.234 40.7256 240.577 40.7256Z" fill="white"/>
<path d="M334.442 190.89C338.202 190.89 341.25 187.847 341.25 184.094C341.25 180.34 338.202 177.297 334.442 177.297C330.682 177.297 327.634 180.34 327.634 184.094C327.634 187.847 330.682 190.89 334.442 190.89Z" fill="url(#paint3_linear_14_2)"/>
<path d="M321.299 118.637C328.52 111.428 328.52 99.7392 321.299 92.53C314.078 85.3208 302.37 85.3208 295.149 92.53C287.927 99.7392 287.927 111.428 295.149 118.637C302.37 125.846 314.078 125.846 321.299 118.637Z" fill="white"/>
<path d="M26.6484 209.029C26.6496 210.822 26.1182 212.574 25.1215 214.065C24.1248 215.556 22.7075 216.718 21.0489 217.405C19.3904 218.091 17.5651 218.271 15.8041 217.922C14.0431 217.572 12.4255 216.709 11.156 215.442C9.88639 214.174 9.02193 212.559 8.67195 210.801C8.32197 209.043 8.50221 207.221 9.18985 205.565C9.87749 203.909 11.0416 202.494 12.535 201.499C14.0283 200.504 15.7838 199.974 17.5792 199.975C19.9845 199.975 22.2913 200.929 23.9921 202.627C25.6929 204.325 26.6484 206.628 26.6484 209.029Z" fill="white"/>
<path d="M98.811 237.448C106.085 235.305 110.241 227.682 108.095 220.42C105.949 213.159 98.3123 209.009 91.0387 211.152C83.765 213.294 79.6085 220.918 81.7547 228.18C83.901 235.441 91.5373 239.591 98.811 237.448Z" fill="white"/>
<path d="M0.303955 66.3893H59.2659" stroke="white" stroke-miterlimit="10" stroke-linecap="round"/>
<path d="M291.728 163.109H350.696" stroke="white" stroke-miterlimit="10" stroke-linecap="round"/>
<path d="M192.866 21.2276H251.828" stroke="white" stroke-miterlimit="10" stroke-linecap="round"/>
<path d="M31.6328 185.386H29.3777V183.141C29.3777 182.98 29.3136 182.826 29.1996 182.712C29.0856 182.598 28.931 182.534 28.7698 182.534C28.6086 182.534 28.454 182.598 28.34 182.712C28.226 182.826 28.1619 182.98 28.1619 183.141V185.386H25.9372C25.776 185.386 25.6214 185.45 25.5074 185.564C25.3934 185.678 25.3293 185.832 25.3293 185.993C25.3293 186.154 25.3934 186.308 25.5074 186.422C25.6214 186.536 25.776 186.6 25.9372 186.6H28.1923V188.851C28.1923 189.012 28.2564 189.167 28.3704 189.28C28.4844 189.394 28.639 189.458 28.8002 189.458C28.9614 189.458 29.116 189.394 29.23 189.28C29.344 189.167 29.4081 189.012 29.4081 188.851V186.6H31.6328C31.794 186.6 31.9486 186.536 32.0626 186.422C32.1766 186.308 32.2407 186.154 32.2407 185.993C32.2407 185.832 32.1766 185.678 32.0626 185.564C31.9486 185.45 31.794 185.386 31.6328 185.386Z" fill="white"/>
<path d="M294.044 40.7317H290.61V37.3091C290.61 37.0677 290.513 36.8361 290.342 36.6654C290.172 36.4947 289.94 36.3988 289.698 36.3988C289.456 36.3988 289.224 36.4947 289.053 36.6654C288.882 36.8361 288.786 37.0677 288.786 37.3091V40.7317H285.358C285.116 40.7317 284.884 40.8276 284.713 40.9983C284.542 41.169 284.446 41.4006 284.446 41.642C284.446 41.8834 284.542 42.1149 284.713 42.2856C284.884 42.4563 285.116 42.5522 285.358 42.5522H288.786V45.9749C288.786 46.2163 288.882 46.4478 289.053 46.6185C289.224 46.7892 289.456 46.8851 289.698 46.8851C289.94 46.8851 290.172 46.7892 290.342 46.6185C290.513 46.4478 290.61 46.2163 290.61 45.9749V42.5401H294.044C294.286 42.5401 294.518 42.4442 294.689 42.2735C294.86 42.1028 294.956 41.8713 294.956 41.6298C294.956 41.3884 294.86 41.1569 294.689 40.9862C294.518 40.8155 294.286 40.7196 294.044 40.7196V40.7317Z" fill="url(#paint4_linear_14_2)"/>
<path d="M318.917 208.434H316.668V206.189C316.668 206.028 316.604 205.874 316.49 205.76C316.376 205.646 316.222 205.582 316.06 205.582C315.899 205.582 315.745 205.646 315.631 205.76C315.517 205.874 315.453 206.028 315.453 206.189V208.434H313.198C313.036 208.434 312.882 208.498 312.768 208.612C312.654 208.726 312.59 208.88 312.59 209.041C312.59 209.202 312.654 209.357 312.768 209.47C312.882 209.584 313.036 209.648 313.198 209.648H315.453V211.899C315.453 212.06 315.517 212.215 315.631 212.329C315.745 212.442 315.899 212.506 316.06 212.506C316.222 212.506 316.376 212.442 316.49 212.329C316.604 212.215 316.668 212.06 316.668 211.899V209.648H318.917C319.079 209.648 319.233 209.584 319.347 209.47C319.461 209.357 319.525 209.202 319.525 209.041C319.525 208.88 319.461 208.726 319.347 208.612C319.233 208.498 319.079 208.434 318.917 208.434Z" fill="url(#paint5_linear_14_2)"/>
<path d="M176.485 19.0975H173.014C172.792 19.0975 172.613 19.2769 172.613 19.4981V22.9632C172.613 23.1844 172.792 23.3637 173.014 23.3637H176.485C176.706 23.3637 176.886 23.1844 176.886 22.9632V19.4981C176.886 19.2769 176.706 19.0975 176.485 19.0975Z" fill="white"/>
<path d="M182.199 19.0975H178.728C178.506 19.0975 178.327 19.2769 178.327 19.4981V22.9632C178.327 23.1844 178.506 23.3637 178.728 23.3637H182.199C182.42 23.3637 182.6 23.1844 182.6 22.9632V19.4981C182.6 19.2769 182.42 19.0975 182.199 19.0975Z" fill="white"/>
<path d="M187.912 19.0975H184.442C184.22 19.0975 184.04 19.2769 184.04 19.4981V22.9632C184.04 23.1844 184.22 23.3637 184.442 23.3637H187.912C188.134 23.3637 188.314 23.1844 188.314 22.9632V19.4981C188.314 19.2769 188.134 19.0975 187.912 19.0975Z" fill="white"/>
<path d="M80.7354 176.49H77.2645C77.043 176.49 76.8633 176.669 76.8633 176.89V180.355C76.8633 180.577 77.043 180.756 77.2645 180.756H80.7354C80.957 180.756 81.1366 180.577 81.1366 180.355V176.89C81.1366 176.669 80.957 176.49 80.7354 176.49Z" fill="white"/>
<path d="M86.4492 176.49H82.9783C82.7568 176.49 82.5771 176.669 82.5771 176.89V180.355C82.5771 180.577 82.7568 180.756 82.9783 180.756H86.4492C86.6708 180.756 86.8504 180.577 86.8504 180.355V176.89C86.8504 176.669 86.6708 176.49 86.4492 176.49Z" fill="white"/>
<path d="M92.1631 176.49H88.6922C88.4706 176.49 88.291 176.669 88.291 176.89V180.355C88.291 180.577 88.4706 180.756 88.6922 180.756H92.1631C92.3846 180.756 92.5642 180.577 92.5642 180.355V176.89C92.5642 176.669 92.3846 176.49 92.1631 176.49Z" fill="white"/>
<path d="M198.428 208.798H196.204C196.059 208.798 195.942 208.915 195.942 209.059V211.28C195.942 211.425 196.059 211.541 196.204 211.541H198.428C198.573 211.541 198.69 211.425 198.69 211.28V209.059C198.69 208.915 198.573 208.798 198.428 208.798Z" fill="white"/>
<path d="M202.106 208.798H199.881C199.737 208.798 199.62 208.915 199.62 209.059V211.28C199.62 211.425 199.737 211.541 199.881 211.541H202.106C202.25 211.541 202.367 211.425 202.367 211.28V209.059C202.367 208.915 202.25 208.798 202.106 208.798Z" fill="white"/>
<path d="M205.783 208.798H203.559C203.414 208.798 203.297 208.915 203.297 209.059V211.28C203.297 211.425 203.414 211.541 203.559 211.541H205.783C205.928 211.541 206.045 211.425 206.045 211.28V209.059C206.045 208.915 205.928 208.798 205.783 208.798Z" fill="white"/>
<path d="M72.6813 131.049V125.927C72.6813 125.687 72.5859 125.457 72.416 125.288C72.2462 125.118 72.0158 125.023 71.7756 125.023H70.4565C70.2679 125.024 70.0843 124.962 69.9354 124.847C69.7865 124.731 69.681 124.569 69.6359 124.386C69.1881 122.428 68.4178 120.558 67.3565 118.851C67.2524 118.69 67.2065 118.498 67.2264 118.307C67.2463 118.116 67.3308 117.938 67.4659 117.801L68.3959 116.873C68.5648 116.703 68.6595 116.473 68.6595 116.233C68.6595 115.993 68.5648 115.763 68.3959 115.593L64.7488 111.951C64.6651 111.867 64.5652 111.799 64.4551 111.753C64.345 111.707 64.2269 111.683 64.1075 111.683C63.9881 111.683 63.8699 111.707 63.7598 111.753C63.6497 111.799 63.5499 111.867 63.4662 111.951L62.5362 112.874C62.4005 113.008 62.2228 113.092 62.0327 113.112C61.8426 113.132 61.6513 113.087 61.4907 112.983C59.7816 111.922 57.9084 111.151 55.947 110.701C55.7638 110.659 55.6007 110.555 55.4847 110.407C55.3687 110.259 55.3066 110.076 55.3088 109.888V108.577C55.3088 108.336 55.2127 108.104 55.0417 107.934C54.8707 107.763 54.6388 107.667 54.397 107.667H49.2728C49.031 107.667 48.799 107.763 48.628 107.934C48.4571 108.104 48.361 108.336 48.361 108.577V109.888C48.3648 110.072 48.3071 110.252 48.197 110.399C48.0869 110.546 47.9307 110.653 47.7531 110.701C45.7907 111.148 43.9169 111.919 42.2095 112.983C42.0479 113.087 41.8557 113.133 41.6645 113.113C41.4733 113.093 41.2946 113.009 41.1579 112.874L40.234 111.951C40.1502 111.867 40.0504 111.799 39.9403 111.753C39.8302 111.707 39.7121 111.683 39.5927 111.683C39.4733 111.683 39.3551 111.707 39.245 111.753C39.1349 111.799 39.0351 111.867 38.9514 111.951L35.3043 115.593C35.1354 115.763 35.0406 115.993 35.0406 116.233C35.0406 116.473 35.1354 116.703 35.3043 116.873L36.2343 117.801C36.3684 117.939 36.4522 118.117 36.4721 118.307C36.492 118.498 36.4467 118.69 36.3437 118.851C35.2779 120.556 34.5054 122.427 34.0582 124.386C34.0153 124.569 33.9112 124.731 33.7631 124.847C33.615 124.963 33.4318 125.025 33.2436 125.023H31.9307C31.6905 125.023 31.4601 125.118 31.2902 125.288C31.1204 125.457 31.025 125.687 31.025 125.927V131.049C31.025 131.289 31.1204 131.519 31.2902 131.688C31.4601 131.858 31.6905 131.953 31.9307 131.953H33.274C33.4622 131.951 33.6454 132.013 33.7935 132.129C33.9416 132.245 34.0457 132.408 34.0886 132.59C34.5358 134.55 35.3083 136.42 36.3741 138.125C36.4771 138.287 36.5224 138.478 36.5025 138.669C36.4826 138.859 36.3988 139.038 36.2647 139.175L35.3347 140.097C35.1654 140.269 35.0705 140.5 35.0705 140.74C35.0705 140.981 35.1654 141.212 35.3347 141.384L38.9818 145.025C39.1525 145.193 39.3829 145.288 39.6231 145.288C39.8632 145.288 40.0937 145.193 40.2644 145.025L41.1944 144.096C41.3307 143.963 41.5082 143.879 41.698 143.86C41.8879 143.84 42.0789 143.885 42.2399 143.987C43.949 145.048 45.8222 145.819 47.7835 146.269C47.9611 146.317 48.1173 146.424 48.2274 146.571C48.3375 146.718 48.3952 146.898 48.3914 147.082V148.399C48.3914 148.64 48.4875 148.872 48.6584 149.042C48.8294 149.213 49.0613 149.309 49.3032 149.309H54.4274C54.6692 149.309 54.9011 149.213 55.0721 149.042C55.2431 148.872 55.3392 148.64 55.3392 148.399V147.082C55.337 146.894 55.399 146.711 55.5151 146.563C55.6311 146.415 55.7942 146.312 55.9774 146.269C57.9359 145.816 59.8066 145.045 61.515 143.987C61.6769 143.884 61.8689 143.839 62.0598 143.859C62.2507 143.879 62.4293 143.962 62.5666 144.096L63.4966 145.025C63.6673 145.193 63.8977 145.288 64.1379 145.288C64.378 145.288 64.6085 145.193 64.7792 145.025L68.4263 141.384C68.5956 141.212 68.6905 140.981 68.6905 140.74C68.6905 140.5 68.5956 140.269 68.4263 140.097L67.4963 139.175C67.3611 139.038 67.2767 138.86 67.2568 138.669C67.2369 138.478 67.2828 138.286 67.3869 138.125C68.4482 136.419 69.2184 134.548 69.6663 132.59C69.7112 132.409 69.8158 132.247 69.9634 132.131C70.1111 132.016 70.2933 131.953 70.4809 131.953H71.806C72.0409 131.945 72.2635 131.847 72.4268 131.678C72.5902 131.509 72.6814 131.284 72.6813 131.049ZM51.8501 140.485C49.4733 140.487 47.1495 139.784 45.1726 138.467C43.1957 137.15 41.6545 135.277 40.7438 133.085C39.8331 130.893 39.5939 128.481 40.0564 126.153C40.5189 123.826 41.6624 121.688 43.3422 120.009C45.022 118.33 47.1627 117.186 49.4936 116.722C51.8245 116.258 54.2409 116.495 56.4372 117.402C58.6335 118.309 60.5112 119.845 61.8327 121.818C63.1541 123.79 63.8601 126.109 63.8613 128.482C63.8621 130.058 63.5521 131.618 62.9489 133.074C62.3457 134.53 61.4612 135.853 60.3458 136.967C59.2305 138.082 57.9061 138.966 56.4484 139.57C54.9907 140.174 53.4282 140.485 51.8501 140.485Z" fill="white"/>
<path d="M253.002 82.1734V78.5323C253.002 78.3601 252.933 78.1949 252.811 78.0732C252.689 77.9514 252.524 77.883 252.351 77.883H251.409C251.276 77.8806 251.148 77.8347 251.043 77.7525C250.939 77.6703 250.865 77.5563 250.832 77.4278C250.509 76.0327 249.959 74.7001 249.202 73.4833C249.13 73.3681 249.098 73.2318 249.113 73.0965C249.127 72.9611 249.186 72.8344 249.282 72.7369L249.944 72.0754C250.064 71.953 250.131 71.7885 250.131 71.6173C250.131 71.446 250.064 71.2816 249.944 71.1591L247.355 68.58C247.295 68.5194 247.224 68.4713 247.146 68.4385C247.068 68.4057 246.984 68.3887 246.899 68.3887C246.814 68.3887 246.73 68.4057 246.651 68.4385C246.573 68.4713 246.502 68.5194 246.443 68.58L245.78 69.2415C245.683 69.3364 245.556 69.3958 245.42 69.4101C245.285 69.4244 245.148 69.3928 245.033 69.3203C243.814 68.56 242.476 68.0083 241.075 67.6879C240.947 67.6548 240.833 67.5805 240.75 67.4763C240.668 67.3722 240.622 67.244 240.62 67.1114V66.1708C240.62 66.0858 240.603 66.0017 240.57 65.9232C240.537 65.8448 240.489 65.7736 240.429 65.7138C240.368 65.654 240.296 65.6067 240.218 65.5747C240.139 65.5428 240.054 65.5267 239.969 65.5275H236.322C236.237 65.5267 236.152 65.5428 236.074 65.5747C235.995 65.6067 235.923 65.654 235.862 65.7138C235.802 65.7736 235.754 65.8448 235.721 65.9232C235.688 66.0017 235.672 66.0858 235.672 66.1708V67.1175C235.669 67.2501 235.623 67.3783 235.541 67.4824C235.459 67.5865 235.344 67.6608 235.216 67.694C233.818 68.0139 232.482 68.5635 231.265 69.3203C231.149 69.3951 231.012 69.4287 230.875 69.4154C230.738 69.4022 230.61 69.343 230.511 69.2475L229.854 68.5861C229.795 68.5253 229.723 68.4771 229.644 68.4442C229.565 68.4113 229.481 68.3943 229.396 68.3943C229.31 68.3943 229.226 68.4113 229.147 68.4442C229.068 68.4771 228.997 68.5253 228.937 68.5861L226.353 71.1652C226.292 71.225 226.244 71.2963 226.211 71.375C226.178 71.4537 226.161 71.5381 226.161 71.6233C226.161 71.7086 226.178 71.793 226.211 71.8717C226.244 71.9503 226.292 72.0216 226.353 72.0815L227.01 72.743C227.105 72.8405 227.164 72.9671 227.179 73.1025C227.193 73.2379 227.161 73.3742 227.089 73.4894C226.333 74.7061 225.782 76.0388 225.46 77.4339C225.425 77.5674 225.346 77.6853 225.236 77.768C225.125 77.8507 224.99 77.8934 224.852 77.889H223.91C223.737 77.889 223.572 77.9575 223.45 78.0792C223.328 78.201 223.259 78.3662 223.259 78.5384V82.1795C223.259 82.2645 223.276 82.3486 223.309 82.427C223.342 82.5055 223.39 82.5767 223.45 82.6365C223.511 82.6963 223.582 82.7435 223.661 82.7755C223.74 82.8075 223.825 82.8235 223.91 82.8227H224.852C224.99 82.8184 225.125 82.8611 225.236 82.9438C225.346 83.0265 225.425 83.1443 225.46 83.2779C225.781 84.6753 226.332 86.0101 227.089 87.2284C227.162 87.343 227.195 87.4789 227.182 87.6143C227.168 87.7496 227.11 87.8766 227.016 87.9749L226.353 88.6363C226.293 88.6957 226.244 88.7665 226.211 88.8446C226.179 88.9228 226.162 89.0067 226.162 89.0915C226.162 89.1762 226.179 89.2602 226.211 89.3383C226.244 89.4165 226.293 89.4873 226.353 89.5466L228.937 92.1318C229.059 92.2515 229.224 92.3185 229.396 92.3185C229.567 92.3185 229.732 92.2515 229.854 92.1318L230.517 91.4703C230.615 91.3754 230.742 91.3159 230.877 91.3016C231.013 91.2873 231.149 91.319 231.265 91.3914C232.483 92.1473 233.818 92.6968 235.216 93.0178C235.349 93.0522 235.468 93.131 235.55 93.2413C235.633 93.3516 235.676 93.4868 235.672 93.6246V94.5652C235.672 94.7375 235.74 94.9026 235.862 95.0244C235.984 95.1462 236.15 95.2146 236.322 95.2146H239.969C240.142 95.2146 240.307 95.1462 240.429 95.0244C240.551 94.9026 240.62 94.7375 240.62 94.5652V93.6246C240.615 93.4868 240.658 93.3516 240.741 93.2413C240.824 93.131 240.942 93.0522 241.075 93.0178C242.474 92.6979 243.809 92.1483 245.027 91.3914C245.142 91.319 245.278 91.2873 245.414 91.3016C245.55 91.3159 245.676 91.3754 245.774 91.4703L246.443 92.1318C246.564 92.2511 246.728 92.318 246.899 92.318C247.069 92.318 247.233 92.2511 247.355 92.1318L249.944 89.5466C250.064 89.4252 250.131 89.2617 250.131 89.0915C250.131 88.9212 250.064 88.7578 249.944 88.6363L249.282 87.9749C249.186 87.8773 249.127 87.7507 249.113 87.6153C249.098 87.4799 249.13 87.3437 249.202 87.2284C249.96 86.0101 250.51 84.6753 250.832 83.2779C250.865 83.1494 250.939 83.0354 251.043 82.9532C251.148 82.871 251.276 82.8252 251.409 82.8227H252.351C252.437 82.8235 252.522 82.8073 252.601 82.7749C252.68 82.7426 252.752 82.6948 252.813 82.6343C252.873 82.5739 252.921 82.502 252.954 82.4228C252.986 82.3437 253.002 82.2589 253.002 82.1734ZM238.121 88.9033C236.426 88.9045 234.768 88.4037 233.358 87.4643C231.948 86.5248 230.848 85.1889 230.199 83.6255C229.549 82.062 229.378 80.3414 229.708 78.6812C230.038 77.021 230.854 75.4958 232.053 74.2985C233.251 73.1013 234.778 72.2857 236.441 71.9551C238.104 71.6244 239.827 71.7935 241.394 72.441C242.96 73.0884 244.299 74.1851 245.241 75.5924C246.183 76.9996 246.686 78.6542 246.686 80.3468C246.686 82.6151 245.784 84.7906 244.178 86.395C242.572 87.9995 240.393 88.9017 238.121 88.9033Z" fill="white"/>
<path d="M36.6719 112.564V109.105C36.6719 108.944 36.6079 108.79 36.4939 108.676C36.3799 108.562 36.2253 108.498 36.0641 108.498H35.1705C35.0437 108.5 34.9201 108.458 34.8205 108.38C34.7209 108.301 34.6513 108.191 34.6234 108.068C34.3164 106.744 33.7949 105.479 33.0795 104.323C33.0083 104.216 32.9767 104.087 32.99 103.958C33.0033 103.83 33.0607 103.71 33.1524 103.619L33.7603 103.013C33.8182 102.956 33.8642 102.889 33.8956 102.814C33.927 102.74 33.9432 102.66 33.9432 102.579C33.9432 102.498 33.927 102.418 33.8956 102.343C33.8642 102.269 33.8182 102.201 33.7603 102.145L31.3289 99.7174C31.2723 99.6596 31.2046 99.6137 31.13 99.5823C31.0554 99.551 30.9752 99.5348 30.8942 99.5348C30.8133 99.5348 30.7331 99.551 30.6585 99.5823C30.5838 99.6137 30.5162 99.6596 30.4596 99.7174L29.8518 100.324C29.7561 100.41 29.6358 100.463 29.508 100.476C29.3803 100.489 29.2516 100.461 29.1406 100.397C27.9823 99.6658 26.7079 99.1364 25.3719 98.8314C25.2482 98.8013 25.1382 98.7304 25.0599 98.6302C24.9816 98.53 24.9394 98.4063 24.9403 98.2792V97.3932C24.9403 97.2322 24.8763 97.0779 24.7623 96.9641C24.6483 96.8503 24.4937 96.7863 24.3324 96.7863H20.8555C20.6943 96.7863 20.5397 96.8503 20.4257 96.9641C20.3117 97.0779 20.2477 97.2322 20.2477 97.3932V98.2792C20.2485 98.4063 20.2064 98.53 20.1281 98.6302C20.0497 98.7304 19.9398 98.8013 19.8161 98.8314C18.4885 99.1325 17.2208 99.6535 16.0656 100.373C15.957 100.442 15.8283 100.472 15.7004 100.459C15.5724 100.446 15.4527 100.39 15.3605 100.3L14.7526 99.6931C14.696 99.6353 14.6284 99.5894 14.5538 99.558C14.4792 99.5267 14.399 99.5105 14.318 99.5105C14.2371 99.5105 14.1569 99.5267 14.0823 99.558C14.0076 99.5894 13.94 99.6353 13.8834 99.6931L11.452 102.121C11.3941 102.177 11.3481 102.245 11.3167 102.319C11.2853 102.394 11.2691 102.474 11.2691 102.554C11.2691 102.635 11.2853 102.715 11.3167 102.79C11.3481 102.864 11.3941 102.932 11.452 102.988L12.0598 103.595C12.1496 103.687 12.2056 103.807 12.2189 103.934C12.2321 104.062 12.2018 104.191 12.1328 104.299C11.4148 105.454 10.8931 106.719 10.5888 108.043C10.5587 108.167 10.4877 108.277 10.3873 108.355C10.2869 108.433 10.163 108.475 10.0357 108.474H9.12391C8.96269 108.474 8.80808 108.538 8.69409 108.652C8.58009 108.766 8.51605 108.92 8.51605 109.081V112.54C8.51605 112.701 8.58009 112.855 8.69409 112.969C8.80808 113.083 8.96269 113.147 9.12391 113.147H10.0175C10.1437 113.147 10.2662 113.19 10.3654 113.268C10.4645 113.346 10.5346 113.455 10.5645 113.578C10.8693 114.902 11.391 116.167 12.1085 117.322C12.179 117.431 12.2102 117.561 12.197 117.69C12.1837 117.819 12.1268 117.94 12.0355 118.032L11.4277 118.639C11.3698 118.695 11.3238 118.763 11.2924 118.837C11.261 118.912 11.2448 118.992 11.2448 119.073C11.2448 119.154 11.261 119.234 11.2924 119.308C11.3238 119.383 11.3698 119.45 11.4277 119.507L13.8591 121.934C13.9157 121.992 13.9833 122.038 14.058 122.069C14.1326 122.101 14.2127 122.117 14.2937 122.117C14.3747 122.117 14.4548 122.101 14.5295 122.069C14.6041 122.038 14.6717 121.992 14.7283 121.934L15.3362 121.327C15.428 121.235 15.5486 121.177 15.6779 121.163C15.8072 121.149 15.9376 121.179 16.0474 121.248C17.2011 121.966 18.4666 122.487 19.7918 122.79C19.9155 122.82 20.0254 122.891 20.1038 122.991C20.1821 123.091 20.2242 123.215 20.2233 123.342V124.234C20.2233 124.395 20.2874 124.549 20.4014 124.663C20.5154 124.777 20.67 124.841 20.8312 124.841H24.3021C24.4633 124.841 24.6179 124.777 24.7319 124.663C24.8459 124.549 24.9099 124.395 24.9099 124.234V123.342C24.909 123.215 24.9512 123.091 25.0295 122.991C25.1078 122.891 25.2178 122.82 25.3415 122.79C26.6667 122.487 27.9321 121.966 29.0859 121.248C29.1969 121.184 29.3256 121.156 29.4533 121.169C29.5811 121.182 29.7014 121.236 29.7971 121.321L30.4049 121.928C30.4615 121.986 30.5291 122.032 30.6038 122.063C30.6784 122.094 30.7586 122.111 30.8395 122.111C30.9205 122.111 31.0007 122.094 31.0753 122.063C31.1499 122.032 31.2175 121.986 31.2742 121.928L33.7056 119.501C33.7635 119.444 33.8095 119.377 33.8409 119.302C33.8723 119.228 33.8885 119.148 33.8885 119.067C33.8885 118.986 33.8723 118.906 33.8409 118.831C33.8095 118.757 33.7635 118.689 33.7056 118.633L33.0977 118.026C33.0065 117.934 32.9495 117.813 32.9363 117.684C32.923 117.555 32.9542 117.425 33.0248 117.316C33.7423 116.161 34.2639 114.896 34.5687 113.572C34.5976 113.449 34.6675 113.339 34.7668 113.261C34.8662 113.183 34.9892 113.14 35.1158 113.141H36.0093C36.0912 113.148 36.1736 113.139 36.2518 113.114C36.3299 113.089 36.4022 113.048 36.4641 112.994C36.526 112.94 36.5763 112.874 36.6121 112.8C36.6478 112.727 36.6681 112.646 36.6719 112.564ZM22.5879 118.026C21.164 118.027 19.7718 117.607 18.587 116.819C17.4022 116.03 16.478 114.909 15.9312 113.597C15.3843 112.284 15.2394 110.839 15.5147 109.445C15.79 108.05 16.4731 106.768 17.4778 105.761C18.4825 104.753 19.7637 104.066 21.1595 103.785C22.5553 103.505 24.0031 103.643 25.3201 104.184C26.6371 104.724 27.7641 105.642 28.5587 106.821C29.3534 108.001 29.7801 109.389 29.7849 110.811C29.7881 111.756 29.6044 112.694 29.2442 113.569C28.884 114.443 28.3545 115.239 27.6859 115.909C27.0174 116.579 26.223 117.111 25.3482 117.475C24.4734 117.838 23.5354 118.025 22.5879 118.026Z" fill="url(#paint6_linear_14_2)"/>
<path d="M122.264 173.067C109.28 173.067 96.8276 167.918 87.6464 158.752C78.4653 149.586 73.3074 137.154 73.3074 124.192C73.3074 111.229 78.4653 98.7973 87.6464 89.6313C96.8276 80.4654 109.28 75.316 122.264 75.316C155.277 75.316 176.187 118.451 177.062 120.283L178.922 124.192L177.062 128.1C176.187 129.932 155.277 173.067 122.264 173.067ZM122.264 93.5215C114.116 93.5215 106.302 96.7528 100.541 102.505C94.7797 108.256 91.543 116.057 91.543 124.192C91.543 132.326 94.7797 140.127 100.541 145.879C106.302 151.63 114.116 154.862 122.264 154.862C138.026 154.862 152.262 135.37 158.541 124.192C152.262 113.02 138.026 93.5215 122.264 93.5215Z" fill="url(#paint7_linear_14_2)"/>
<path d="M215.388 173.067C182.375 173.067 161.465 129.932 160.589 128.1L158.729 124.192L160.589 120.283C161.465 118.463 182.375 75.316 215.388 75.316C228.372 75.316 240.824 80.4654 250.005 89.6313C259.186 98.7973 264.344 111.229 264.344 124.192C264.344 137.154 259.186 149.586 250.005 158.752C240.824 167.918 228.372 173.067 215.388 173.067ZM179.111 124.192C185.39 135.37 199.62 154.862 215.388 154.862C223.535 154.862 231.349 151.63 237.111 145.879C242.872 140.127 246.109 132.326 246.109 124.192C246.109 116.057 242.872 108.256 237.111 102.505C231.349 96.7528 223.535 93.5215 215.388 93.5215C199.62 93.5215 185.39 113.02 179.111 124.192Z" fill="url(#paint8_linear_14_2)"/>
<path style="mix-blend-mode:multiply" d="M195.912 145.82L184.399 159.88C178.5 154.579 173.271 148.579 168.826 142.015C173.883 134.678 179.105 124.21 179.105 124.21C182.612 130.424 188.581 139.241 195.912 145.82Z" fill="url(#paint9_linear_14_2)"/>
<path style="mix-blend-mode:multiply" d="M168.826 106.381C163.768 113.717 158.541 124.198 158.541 124.198C155.04 117.971 149.07 109.154 141.74 102.576L153.253 88.515C159.151 93.8167 164.381 99.8161 168.826 106.381Z" fill="url(#paint10_linear_14_2)"/>
<path style="mix-blend-mode:multiply" d="M221.77 84.7525L215.388 93.5215C206.537 93.5215 198.167 99.6688 191.42 107.042L182.053 90.6571C190.885 82.2402 202.167 75.3221 215.388 75.3221L221.77 84.7525Z" fill="url(#paint11_linear_14_2)"/>
<path style="mix-blend-mode:multiply" d="M154.45 89.5709L141.168 102.06C135.485 97.0958 129.011 93.5215 122.264 93.5215L115.882 84.1092L122.264 75.3342C134.92 75.316 145.8 81.6818 154.45 89.5709Z" fill="url(#paint12_linear_14_2)"/>
<path style="mix-blend-mode:multiply" d="M128.647 163.637L122.264 173.073C109.789 173.084 97.7842 168.319 88.7226 159.759L97.9194 142.883C100.785 146.61 104.471 149.63 108.692 151.708C112.914 153.786 117.557 154.867 122.264 154.868L128.647 163.637Z" fill="url(#paint13_linear_14_2)"/>
<path style="mix-blend-mode:multiply" d="M244.2 163.691C235.84 169.799 225.747 173.086 215.388 173.073L209.011 163.637L215.388 154.868C219.561 154.87 223.69 154.021 227.523 152.373C231.356 150.726 234.811 148.314 237.678 145.286L244.2 163.691Z" fill="url(#paint14_linear_14_2)"/>
<path d="M253.956 133.871C253.956 133.871 254.843 139.332 254.278 141.717C255.777 141.842 257.284 141.607 258.673 141.032C261.354 140.049 257.943 133.871 257.943 133.871" fill="#09085F"/>
<path d="M251.494 125.375C251.494 125.375 250.965 128.409 252.71 129.562L253.318 126.941" fill="#09085F"/>
<path d="M257.469 154.291L253.591 150.941L253.062 151.433L247.403 156.694L230.827 158.843C230.003 158.983 229.229 159.332 228.578 159.856C228.349 160.158 228.146 160.479 227.97 160.815C228.343 160.905 228.73 160.915 229.107 160.845L230.73 160.505L230.93 161.185C230.93 161.185 245.27 163.006 248.558 162.678H248.801C251.597 162.253 260.034 156.543 260.034 156.543L257.469 154.291Z" fill="#FF928A"/>
<path d="M264.016 139.084L258.083 140.722L257.822 139.988C257.864 139.514 257.881 139.038 257.87 138.562C257.838 137.443 257.633 136.336 257.263 135.279L259.275 134.065L261.773 131.407L264.016 139.084Z" fill="#FFA49A"/>
<path d="M257.87 138.556C257.838 137.437 257.633 136.329 257.263 135.273L259.275 134.059L259.937 133.889C259.937 133.889 260.004 137.081 257.87 138.556Z" fill="#FF8189"/>
<path d="M228.517 209.424L225.891 217.434L223.338 219.71L220.895 215.735L222.548 208.082L228.517 209.424Z" fill="#FFA49A"/>
<path d="M263.28 129.228C262.241 130.526 261.403 131.972 260.794 133.519C260.507 134.461 260.002 135.322 259.32 136.032C258.638 136.743 257.798 137.283 256.868 137.609C251.233 139.466 252.4 129.113 252.418 127.754C252.418 126.801 252.144 123.348 255.919 122.857C259.585 122.383 263.469 123.937 263.28 129.228Z" fill="#FFA49A"/>
<path d="M242.832 223.994H244.2L246.631 210.546H274.593L277.024 223.994H278.367L270.629 181.296C270.619 181.206 270.59 181.119 270.545 181.041C270.5 180.962 270.439 180.894 270.366 180.84C270.293 180.786 270.21 180.748 270.121 180.727C270.033 180.707 269.942 180.704 269.852 180.721C269.763 180.737 269.678 180.771 269.603 180.822C269.527 180.872 269.463 180.937 269.414 181.013C269.365 181.089 269.332 181.175 269.317 181.264C269.303 181.354 269.306 181.445 269.329 181.533L274.343 209.223H246.856L251.871 181.533C251.893 181.445 251.897 181.354 251.882 181.264C251.867 181.175 251.835 181.089 251.785 181.013C251.736 180.937 251.672 180.872 251.597 180.822C251.521 180.771 251.436 180.737 251.347 180.721C251.258 180.704 251.166 180.707 251.078 180.727C250.99 180.748 250.907 180.786 250.834 180.84C250.761 180.894 250.7 180.962 250.655 181.041C250.609 181.119 250.58 181.206 250.57 181.296L245.707 208.04L245.47 209.369L245.306 210.231L245.063 211.578L242.832 223.994Z" fill="white"/>
<path d="M249.968 182.759L236.675 185.277L227.988 211.723L221.332 209.903L228.019 180.264C228.357 179.064 228.985 177.964 229.848 177.062C230.71 176.159 231.781 175.482 232.967 175.088L246.947 170.446" fill="url(#paint15_linear_14_2)"/>
<path d="M235.732 206.468L236.48 209.272L238.085 215.122L238.322 216.56L240.99 216.87L243.063 214.151L242.443 207.008L242.382 206.28L235.732 206.468Z" fill="#FFA49A"/>
<path d="M267.396 167.945L261.408 166.422L252.54 168.995C249.883 169.602 245.33 170.051 238.559 171.52C238.559 171.52 228.651 172.679 228.833 181.047C228.833 182.097 234.456 208.088 234.456 208.088L242.498 206.875L241.203 182.419C246.254 182.807 258.661 183.511 263.755 181.46C271.961 178.171 267.396 167.945 267.396 167.945Z" fill="url(#paint16_linear_14_2)"/>
<path d="M263.603 137.73C263.603 137.73 267.377 142.069 268.399 147.44C269.195 151.658 267.985 157.508 267.821 161.288C267.675 164.638 267.724 165.117 268.155 167.163C268.368 168.158 268.763 169.59 268.155 170.264C267.766 169.748 258.813 169.274 252.527 168.983C252.527 168.983 253.907 165.803 253.944 164.177C254.023 160.827 252.91 153.994 252.996 150.753C253.087 147.416 254.084 146.457 255.245 144.752C256.204 143.216 257.061 141.618 257.81 139.97C259.911 139.773 261.916 138.998 263.603 137.73Z" fill="url(#paint17_linear_14_2)"/>
<path style="mix-blend-mode:multiply" opacity="0.5" d="M264.174 150.323C264.174 150.323 263.286 155.529 262.904 157.259L258.649 157.835L264.174 150.323Z" fill="url(#paint18_linear_14_2)"/>
<path d="M256.965 152.283L254.394 150.899C254.26 151.221 250.99 158.758 250.99 158.758C244.425 157.065 235.331 156.433 235.331 156.433C235.331 156.433 231.909 156.433 230.614 156.597C229.32 156.761 227.624 157.932 226.87 158.703C226.42 159.164 225.308 160.754 225.308 160.754C225.949 160.897 226.621 160.802 227.198 160.487C228.049 159.959 228.827 159.413 228.827 159.413L230.961 158.837C231.389 158.721 231.845 158.77 232.237 158.976C232.651 159.18 233.091 159.327 233.544 159.413C234.393 159.6 235.258 159.7 236.127 159.71C240.194 161.306 251.111 166.993 254.114 165.658C256.375 164.668 259.129 159.704 260.582 156.828C261.189 155.614 261.572 154.759 261.572 154.759L256.965 152.283Z" fill="#FFA49A"/>
<path d="M265.067 145.11C265.067 145.11 264.368 151.785 262.344 155.857C262.344 155.857 256.065 154.643 253.008 152.27C254.212 149.155 255.688 146.152 257.421 143.295" fill="url(#paint19_linear_14_2)"/>
<path d="M251.494 125.375C251.531 126.13 251.785 126.858 252.226 127.473C252.667 128.088 253.276 128.562 253.98 128.84C255.493 129.417 257.074 129.795 258.685 129.963C259.025 129.931 259.368 129.974 259.69 130.087C260.012 130.2 260.306 130.381 260.551 130.618C261.366 131.425 262.545 134.259 262.612 136.863C262.69 138.246 262.498 139.631 262.046 140.941C262.046 140.941 267.238 140.983 269.949 138.355C268.329 135.786 267.198 132.941 266.611 129.963C265.748 125.248 264.618 120.12 259.378 121.613C251.458 119.78 251.494 125.375 251.494 125.375Z" fill="#09085F"/>
<path d="M258.345 130.934C258.345 130.934 257.846 129.313 259.056 129.004C261.457 128.397 260.989 133.058 259.925 133.033C258.861 133.009 258.345 130.934 258.345 130.934Z" fill="#FFA49A"/>
<path d="M226.572 215.34C226.572 215.34 225.557 216.663 220.883 215.735C220.883 215.735 213.339 218.49 212.373 218.86C210.968 219.394 210.476 220.766 212.98 220.766H226.396C226.545 220.778 226.696 220.76 226.839 220.714C226.982 220.667 227.113 220.592 227.227 220.494C227.34 220.395 227.433 220.275 227.499 220.14C227.565 220.006 227.603 219.859 227.611 219.71C227.788 218.83 227.344 216.311 226.572 215.34Z" fill="#0E085D"/>
<path d="M241.975 162.399H197.924V165.391H241.975V162.399Z" fill="white"/>
<path d="M219.253 223.994H220.639V165.397H219.253V223.994Z" fill="#32338F"/>
<path d="M235.094 223.988H204.817V222.944C204.817 222.363 205.048 221.806 205.46 221.395C205.871 220.984 206.429 220.753 207.011 220.753H232.9C233.482 220.753 234.04 220.984 234.451 221.395C234.863 221.806 235.094 222.363 235.094 222.944V223.988Z" fill="#32338F"/>
<path d="M215.533 220.766H224.195C224.195 220.461 224.074 220.17 223.859 219.955C223.643 219.739 223.351 219.619 223.046 219.619H216.682C216.378 219.619 216.085 219.739 215.87 219.955C215.654 220.17 215.533 220.461 215.533 220.766Z" fill="#32338F"/>
<path d="M252.369 131.401C252.369 131.401 251.762 134.29 251.986 134.611C252.211 134.933 253.312 134.575 253.312 134.575" fill="#FFA49A"/>
<path d="M242.948 212.846C243.437 213.574 243.86 214.343 244.212 215.146C244.729 216.36 244.37 218.787 242.236 220.11C240.717 221.045 239.805 223.642 238.845 223.994H231.052C231.052 223.994 228.997 222.562 233.593 220.96C235.884 219.364 238.085 215.152 238.085 215.152C238.358 215.411 238.699 215.586 239.069 215.657C239.438 215.728 239.82 215.692 240.17 215.553C243.063 214.412 242.948 212.846 242.948 212.846Z" fill="#0E085D"/>
<path d="M277.632 155.305C275.748 155.541 275.51 161.161 272.806 166.932C271.776 168.732 270.21 170.166 268.326 171.034C265.068 172.576 263.189 171.411 259.937 172.497C257.731 173.237 255.184 176.994 253.774 179.336C253.425 179.912 252.934 180.39 252.348 180.721C251.761 181.053 251.099 181.228 250.424 181.229C249.887 181.231 249.372 181.445 248.993 181.825C248.613 182.205 248.4 182.72 248.4 183.256C248.4 183.792 248.613 184.306 248.993 184.685C249.373 185.064 249.887 185.277 250.424 185.277H271.31C271.726 185.266 272.137 185.186 272.526 185.04C278.404 182.31 279.462 168.995 279.717 163.625C279.966 157.963 280.1 154.995 277.632 155.305Z" fill="white"/>
<path d="M239.416 161.082L219.551 160.621L212.804 141.869C212.771 141.775 212.721 141.689 212.654 141.615C212.588 141.541 212.508 141.481 212.419 141.438C212.329 141.395 212.232 141.37 212.133 141.364C212.034 141.358 211.934 141.372 211.841 141.405C211.747 141.438 211.66 141.488 211.586 141.554C211.512 141.62 211.452 141.7 211.409 141.79C211.365 141.879 211.34 141.976 211.335 142.075C211.329 142.174 211.343 142.273 211.376 142.367L217.649 162.393H240.705C240.702 162.05 240.566 161.722 240.325 161.478C240.085 161.233 239.759 161.091 239.416 161.082Z" fill="#32338F"/>
<path d="M205.376 150.978C202.55 154.388 205.376 157.113 205.376 157.113C205.376 157.113 208.197 154.388 205.376 150.978Z" fill="white"/>
<path d="M203.018 151.469C201.729 155.717 205.388 157.131 205.388 157.131C205.388 157.131 206.938 153.508 203.018 151.469Z" fill="white"/>
<path d="M207.729 151.469C209.017 155.717 205.358 157.131 205.358 157.131C205.358 157.131 203.826 153.508 207.729 151.469Z" fill="white"/>
<path d="M209.753 152.805C209.303 157.21 205.376 157.113 205.376 157.113C205.376 157.113 205.34 153.193 209.753 152.805Z" fill="white"/>
<path d="M200.993 152.805C201.443 157.21 205.376 157.113 205.376 157.113C205.376 157.113 205.406 153.193 200.993 152.805Z" fill="white"/>
<path d="M208.002 162.399H202.744L201.863 156.148H208.883L208.002 162.399Z" fill="#8FABD8"/>
<path d="M132.354 200.333C133.194 200.671 134.079 200.886 134.98 200.97L136.008 198.148L131.753 195.266C131.753 195.266 131.175 197.96 130.944 199.004C130.902 199.004 131.017 199.787 132.354 200.333Z" fill="#EF9795"/>
<path d="M139.041 206.171C138.237 205.577 137.385 205.052 136.494 204.599C135.169 202.979 135.278 201.371 134.932 200.958C134.043 200.784 133.174 200.523 132.336 200.181C131.023 199.635 130.877 198.967 130.877 198.967C129.419 199.858 128.295 201.204 127.68 202.797C127.68 202.797 132.743 207.045 134.172 208.186H139.551C139.674 207.837 139.691 207.46 139.6 207.101C139.509 206.743 139.315 206.419 139.041 206.171Z" fill="#222842"/>
<path d="M160.887 203.762C160.887 203.762 161.714 204.29 163.775 204.132C164.441 204.053 165.101 203.929 165.75 203.762C166.508 204.12 167.285 204.436 168.078 204.708C169.415 205.176 171.184 205.655 172.473 206.529C172.741 206.711 172.955 206.962 173.091 207.256C173.227 207.55 173.28 207.876 173.245 208.198H160.249C160.249 208.198 159.015 206.128 160.887 203.762Z" fill="#222842"/>
<path d="M160.668 200.278C160.802 201.698 160.887 203.762 160.887 203.762C162.468 204.884 165.75 203.762 165.75 203.762C165.75 203.762 165.859 201.516 165.951 200.175L160.668 200.278Z" fill="#EF9795"/>
<path d="M194.524 68.7194L137.556 73.8453C135.219 74.0556 133.495 76.1175 133.706 78.4508L134.878 91.4393C135.089 93.7726 137.154 95.4936 139.491 95.2833L196.46 90.1574C198.797 89.9471 200.521 87.8852 200.31 85.5519L199.138 72.5634C198.927 70.2301 196.862 68.5091 194.524 68.7194Z" fill="url(#paint20_linear_14_2)"/>
<path d="M154.152 86.7915C154.264 88.0305 153.878 89.2631 153.081 90.2187C152.283 91.1744 151.138 91.7751 149.897 91.8891L143.819 92.4413C142.664 92.5441 141.515 92.1852 140.625 91.4434C139.735 90.7015 139.176 89.6374 139.071 88.4846L138.354 80.5106C138.251 79.3577 138.61 78.211 139.354 77.3224C140.097 76.4338 141.163 75.8759 142.317 75.7711L148.663 75.2068C149.248 75.1508 149.838 75.2108 150.399 75.3833C150.96 75.5558 151.482 75.8374 151.934 76.2119C152.386 76.5864 152.759 77.0463 153.032 77.5654C153.306 78.0844 153.473 78.6523 153.526 79.2363L154.152 86.7915Z" fill="url(#paint21_linear_14_2)"/>
<path d="M159.027 76.2202C158.888 76.2131 158.757 76.1546 158.659 76.056C158.561 75.9574 158.503 75.8258 158.497 75.687C158.491 75.5482 158.537 75.4122 158.626 75.3054C158.715 75.1986 158.841 75.1289 158.979 75.1097L194.416 71.9723C194.491 71.9617 194.568 71.9664 194.641 71.9861C194.714 72.0058 194.782 72.0402 194.842 72.087C194.901 72.1339 194.95 72.1923 194.986 72.2587C195.022 72.3251 195.045 72.3982 195.052 72.4734C195.059 72.5487 195.05 72.6246 195.027 72.6965C195.004 72.7684 194.966 72.8349 194.916 72.8919C194.867 72.9488 194.806 72.9951 194.738 73.028C194.67 73.0608 194.595 73.0794 194.52 73.0828L159.1 76.2202H159.027Z" fill="url(#paint22_linear_14_2)"/>
<path d="M159.276 79.0421C159.138 79.0426 159.004 78.9911 158.901 78.8979C158.799 78.8046 158.735 78.6763 158.723 78.5384C158.71 78.3912 158.755 78.2446 158.85 78.1308C158.944 78.017 159.08 77.9454 159.228 77.9315L194.672 74.7456C194.814 74.7413 194.953 74.7917 195.06 74.8864C195.167 74.9811 195.233 75.113 195.246 75.255C195.258 75.397 195.216 75.5384 195.127 75.6501C195.038 75.7619 194.91 75.8356 194.769 75.8561L159.331 79.0421H159.276Z" fill="url(#paint23_linear_14_2)"/>
<path d="M159.532 81.8396C159.393 81.8402 159.259 81.7887 159.157 81.6954C159.054 81.6021 158.991 81.4738 158.979 81.3359C158.967 81.1891 159.013 81.0433 159.107 80.93C159.201 80.8166 159.336 80.7445 159.483 80.7291L194.927 77.5431C195.07 77.5389 195.209 77.5893 195.315 77.684C195.422 77.7787 195.489 77.9106 195.501 78.0526C195.513 78.1946 195.471 78.3359 195.382 78.4477C195.294 78.5595 195.166 78.6332 195.024 78.6537L159.586 81.8396H159.532Z" fill="url(#paint24_linear_14_2)"/>
<path d="M159.787 84.6433C159.648 84.6439 159.513 84.5927 159.41 84.4995C159.306 84.4064 159.241 84.278 159.228 84.1396C159.216 83.9927 159.262 83.847 159.356 83.7336C159.45 83.6202 159.585 83.5481 159.732 83.5327L195.176 80.3468C195.251 80.3362 195.328 80.3409 195.401 80.3606C195.474 80.3804 195.542 80.4147 195.601 80.4615C195.661 80.5084 195.71 80.5668 195.746 80.6332C195.782 80.6996 195.805 80.7727 195.812 80.8479C195.819 80.9232 195.81 80.9991 195.787 81.071C195.764 81.1429 195.726 81.2094 195.676 81.2664C195.627 81.3233 195.566 81.3696 195.498 81.4025C195.429 81.4353 195.355 81.454 195.28 81.4573L159.836 84.6433H159.787Z" fill="url(#paint25_linear_14_2)"/>
<path d="M160.036 87.4409C159.898 87.4414 159.764 87.3899 159.661 87.2966C159.559 87.2034 159.495 87.0751 159.483 86.9372C159.47 86.7899 159.515 86.6434 159.61 86.5296C159.704 86.4158 159.84 86.3442 159.988 86.3303L195.426 83.1444C195.5 83.1338 195.577 83.1385 195.65 83.1582C195.723 83.1779 195.791 83.2123 195.851 83.2591C195.91 83.306 195.959 83.3644 195.995 83.4308C196.032 83.4972 196.054 83.5703 196.061 83.6455C196.068 83.7208 196.059 83.7966 196.036 83.8686C196.013 83.9405 195.975 84.007 195.926 84.0639C195.876 84.1209 195.815 84.1672 195.747 84.2C195.679 84.2329 195.604 84.2515 195.529 84.2549L160.085 87.4409H160.036Z" fill="url(#paint26_linear_14_2)"/>
<path d="M160.316 90.2445C160.176 90.2449 160.042 90.1926 159.939 90.098C159.836 90.0035 159.773 89.8737 159.763 89.7347C159.754 89.6615 159.761 89.5874 159.782 89.5168C159.803 89.4462 159.838 89.3806 159.885 89.3239C159.932 89.2672 159.99 89.2206 160.056 89.1869C160.122 89.1532 160.194 89.1332 160.267 89.1279L195.705 85.9359C195.78 85.9253 195.856 85.93 195.929 85.9497C196.003 85.9694 196.071 86.0038 196.13 86.0506C196.19 86.0975 196.239 86.1559 196.275 86.2223C196.311 86.2887 196.333 86.3618 196.34 86.437C196.347 86.5123 196.339 86.5882 196.316 86.6601C196.292 86.732 196.255 86.7985 196.205 86.8554C196.155 86.9124 196.095 86.9587 196.026 86.9915C195.958 87.0244 195.884 87.043 195.808 87.0464L160.316 90.2384V90.2445Z" fill="url(#paint27_linear_14_2)"/>
<path d="M165.829 95.6394C165.829 95.3542 166.303 94.6077 166.358 94.0858C166.413 93.564 166.479 92.8721 166.479 92.8721L165.932 92.9207H165.726L165.118 91.3672C165.118 91.3672 164.948 90.4508 164.881 89.7772C164.814 89.1036 164.115 88.873 164.072 89.1704C164.072 89.2857 164.072 89.6862 164.072 89.8682C164.042 89.6558 164.012 89.4495 163.993 89.2614C163.933 88.5878 163.082 88.3086 163.039 88.6181C163.021 88.9294 163.021 89.2414 163.039 89.5527C162.82 89.0672 162.188 88.8973 162.152 89.1643C162.115 89.5799 162.105 89.9975 162.121 90.4144C161.957 89.9653 161.562 89.844 161.513 90.1838C161.465 90.5236 161.167 91.4582 161.325 91.8891C161.463 92.3539 161.648 92.8033 161.878 93.2302C162.286 93.8289 162.64 94.4625 162.936 95.1235C163.051 95.518 160.146 102.843 160.146 102.843C161.602 103.082 163.072 103.226 164.546 103.274C164.546 103.274 165.829 95.9125 165.829 95.6394Z" fill="#FF928A"/>
<path d="M165.385 132.991L157.72 133.155L147.484 131.061L143.229 129.647C144.159 128.433 145.211 124.944 145.916 122.262C146.432 120.332 146.767 118.815 146.767 118.815L154.456 117.996L158.146 117.595C158.146 117.595 163.009 116.916 164.115 119.561C164.286 119.991 164.358 120.453 164.328 120.915C164.286 122.332 164.33 123.751 164.461 125.163C164.747 128.968 165.385 132.991 165.385 132.991Z" fill="#FFA49A"/>
<path d="M165.385 132.991L164.662 127.456C164.662 127.456 162.267 128.555 157.094 128.391C152.134 128.233 146.548 127.086 144.87 125.824C142.706 127.554 140.305 131.498 140.743 137.281C141.01 140.801 141.32 144.327 140.895 147.834C140.056 154.716 139.679 162.86 139.424 164.529C136.257 171.204 130.853 197.906 130.853 197.906C130.853 197.906 133.461 199.526 136.068 199.514C136.068 199.514 145.648 176.975 148.779 167.187C149.745 164.153 150.839 160.512 151.885 156.561C152.93 152.61 153.952 148.49 154.748 144.485C155.617 140.413 156.162 136.28 156.377 132.123C158.711 132.73 160.425 133.185 160.522 133.173C160.857 133.094 165.385 132.991 165.385 132.991Z" fill="url(#paint28_linear_14_2)"/>
<path style="mix-blend-mode:multiply" opacity="0.5" d="M154.748 144.466C153.952 148.472 152.924 152.629 151.885 156.543C149.871 150.32 148.606 143.881 148.116 137.36C148.116 137.36 152.821 142.597 154.748 144.466Z" fill="url(#paint29_linear_14_2)"/>
<path d="M166.054 201.662C164.243 202.034 162.371 201.982 160.583 201.51C160.583 201.51 157.003 173.905 157.738 165.706C157.738 165.706 153.447 154.243 150.566 145.328C150.013 143.623 149.058 140.352 148.669 138.926C147.79 135.872 147.961 132.611 149.156 129.665L165.404 133.009C166.072 139.229 168.072 158.381 168.188 167.193C168.315 177.77 166.054 201.662 166.054 201.662Z" fill="url(#paint30_linear_14_2)"/>
<path d="M161.75 95.1053C161.075 95.3111 160.362 95.3634 159.663 95.2584C158.965 95.1534 158.299 94.8937 157.714 94.4985C155.708 93.1209 157.751 90.5297 157.751 90.5297H161.471L161.38 91.2155C161.359 91.6198 161.359 92.0248 161.38 92.4291C161.372 93.3345 161.497 94.236 161.75 95.1053Z" fill="#FFA49A"/>
<path d="M161.38 91.2397C161.359 91.644 161.359 92.0491 161.38 92.4534C160.43 92.3475 159.518 92.0212 158.717 91.5007C158.717 91.5007 160.097 91.173 160.541 90.5479H161.477L161.38 91.2397Z" fill="#FF8189"/>
<path d="M161.75 95.1053C161.75 95.1053 164.218 98.5644 165.154 101.69C166.151 104.997 164.164 118.372 164.297 121.643C158.314 122.709 152.159 122.278 146.384 120.387C146.795 116.9 146.573 113.368 145.727 109.961C144.682 105.604 145.806 98.619 146.797 96.6103C147.788 94.6017 156.839 94.3165 156.839 94.3165C158.37 95.0322 160.072 95.3055 161.75 95.1053Z" fill="url(#paint31_linear_14_2)"/>
<path d="M180.339 92.059L180.108 91.1184C180.108 91.1184 180.065 90.5843 180.053 89.7408C180.053 88.788 179.548 88.5817 179.348 88.6606V88.5514C179.481 87.72 178.922 87.3377 178.74 87.4408C178.694 87.4828 178.659 87.5347 178.637 87.5926C178.685 86.6034 178.126 86.4213 177.931 86.5002C177.654 87.0795 177.45 87.6911 177.324 88.3208C177.326 88.1987 177.316 88.0767 177.293 87.9567C177.184 87.5197 176.825 87.4408 176.594 87.9567C176.293 88.6622 176.088 89.4053 175.986 90.1656C175.986 90.5418 176.15 91.9861 176.15 91.9861L175.129 92.0772C175.39 92.6571 175.619 93.2506 175.816 93.8552C175.907 94.2861 176.156 95.5301 176.156 95.5301C175.512 97.2475 174.005 100.737 172.759 103.456C171.154 106.951 169.81 110.022 169.81 110.022L174.065 114.464C175.846 111.988 176.333 109.658 177.324 105.361C178.15 101.799 179.178 97.2718 179.439 95.961C179.893 95.2219 180.237 94.4205 180.46 93.5822C180.537 93.0718 180.495 92.5508 180.339 92.059Z" fill="#FFA49A"/>
<path d="M170.431 105.737C170.431 105.737 174.181 111.903 174.515 112.655C174.85 113.408 173.907 116.127 170.479 115.368C167.543 114.719 164.297 109.439 164.297 109.439L170.431 105.737Z" fill="#FFA49A"/>
<path d="M163.148 96.6892C164.55 97.5062 165.786 98.5762 166.796 99.8448C168.373 101.955 169.78 104.187 171.002 106.52C168.836 108.448 166.397 110.045 163.762 111.26C163.762 111.26 159.143 105.592 158.17 102.048C157.198 98.5037 160.766 95.4937 163.148 96.6892Z" fill="url(#paint32_linear_14_2)"/>
<path d="M162.808 80.3346C163.745 82.2437 164.426 84.2678 164.832 86.3546C164.97 87.166 164.877 87.9997 164.565 88.7613C164.252 89.5228 163.732 90.1817 163.063 90.6632C162.574 91.0169 162.053 91.3257 161.507 91.5856C160.773 91.9408 159.946 92.0581 159.142 91.921C158.337 91.7839 157.596 91.3993 157.021 90.821C156.19 89.9668 155.491 88.9932 154.948 87.9324C151.952 82.2462 158.492 75.9168 162.808 80.3346Z" fill="#FFA49A"/>
<path d="M162.395 76.2202C161.793 75.3531 160.918 74.7122 159.909 74.3997C157.173 73.7139 154.365 74.9701 152.444 76.73C151.794 77.3502 151.111 77.9337 150.396 78.4777C149.072 79.5003 148.015 80.8262 147.314 82.3433C145.49 86.3667 148.42 89.7651 147.678 91.0152C146.937 92.2653 143.977 92.4898 143.764 95.0629C143.551 97.6359 144.712 98.2488 143.764 100.7C142.423 102.247 141.474 104.093 140.998 106.083C139.6 112.51 146.469 114.057 149.447 112.273C152.426 110.489 154.255 111.508 155.757 110.914C162.911 108.092 158.365 95.2449 158.523 92.1014C158.523 91.531 158.523 90.8878 158.523 90.1959C158.533 88.9501 158.8 87.7197 159.306 86.5809C159.812 85.442 160.547 84.419 161.465 83.5752C163.112 82.0217 164.236 79.394 162.395 76.2202Z" fill="url(#paint33_linear_14_2)"/>
<path d="M160.608 86.4153C160.249 85.2683 158.918 84.5523 158.279 85.6021C157.641 86.652 158.17 89.3281 159.38 89.3888C160.589 89.4495 161.404 88.964 160.608 86.4153Z" fill="#FFA49A"/>
<path d="M129.029 212.136V224.297" stroke="url(#paint34_linear_14_2)" stroke-miterlimit="10"/>
<path d="M172.473 212.136V224.297" stroke="url(#paint35_linear_14_2)" stroke-miterlimit="10"/>
<path d="M179.171 208.21H122.331V212.13H179.171V208.21Z" fill="white"/>
<path d="M299.977 104.906H279.462C276.175 104.906 273.511 107.566 273.511 110.847V121.224C273.511 124.505 276.175 127.165 279.462 127.165H299.977C303.263 127.165 305.928 124.505 305.928 121.224V110.847C305.928 107.566 303.263 104.906 299.977 104.906Z" fill="white"/>
<path d="M299.977 127.475H279.455C277.797 127.473 276.207 126.815 275.034 125.644C273.862 124.473 273.202 122.886 273.201 121.23V110.847C273.202 109.191 273.862 107.604 275.034 106.433C276.207 105.263 277.797 104.604 279.455 104.603H299.971C301.628 104.606 303.218 105.265 304.39 106.435C305.562 107.605 306.222 109.192 306.225 110.847V121.23C306.222 122.884 305.563 124.47 304.392 125.64C303.221 126.81 301.634 127.47 299.977 127.475ZM279.455 105.209C277.958 105.211 276.523 105.805 275.464 106.862C274.406 107.919 273.81 109.352 273.808 110.847V121.23C273.81 122.725 274.406 124.158 275.464 125.215C276.523 126.272 277.958 126.866 279.455 126.868H299.971C301.468 126.866 302.903 126.272 303.962 125.215C305.02 124.158 305.616 122.725 305.618 121.23V110.847C305.616 109.352 305.02 107.919 303.962 106.862C302.903 105.805 301.468 105.211 299.971 105.209H279.455Z" fill="url(#paint36_linear_14_2)"/>
<path d="M286.178 126.279C286.085 126.278 285.993 126.262 285.905 126.231C285.808 126.195 285.72 126.14 285.644 126.07C285.568 126 285.508 125.916 285.465 125.823C285.422 125.729 285.398 125.628 285.394 125.525C285.39 125.422 285.407 125.32 285.443 125.223L292.524 106.308C292.597 106.113 292.744 105.955 292.933 105.869C293.122 105.782 293.338 105.774 293.533 105.847C293.728 105.919 293.887 106.066 293.973 106.255C294.06 106.444 294.068 106.659 293.995 106.854L286.908 125.769C286.853 125.919 286.754 126.048 286.623 126.139C286.493 126.23 286.338 126.279 286.178 126.279Z" fill="url(#paint37_linear_14_2)"/>
<path d="M283.285 123.008C283.165 123.01 283.046 122.987 282.935 122.941C282.824 122.895 282.724 122.827 282.641 122.741L277.389 117.486C277.006 117.104 276.791 116.585 276.791 116.045C276.791 115.504 277.006 114.986 277.389 114.603L282.75 109.251C282.921 109.08 283.153 108.983 283.395 108.982C283.637 108.982 283.87 109.077 284.042 109.248C284.213 109.419 284.31 109.65 284.311 109.892C284.311 110.134 284.216 110.366 284.045 110.538L278.677 115.89C278.657 115.91 278.641 115.933 278.63 115.959C278.619 115.985 278.614 116.013 278.614 116.042C278.614 116.07 278.619 116.098 278.63 116.124C278.641 116.15 278.657 116.174 278.677 116.193L283.929 121.437C284.015 121.521 284.082 121.621 284.128 121.731C284.175 121.842 284.198 121.96 284.198 122.08C284.198 122.199 284.175 122.318 284.128 122.428C284.082 122.539 284.015 122.639 283.929 122.723C283.847 122.812 283.747 122.883 283.636 122.932C283.526 122.981 283.406 123.007 283.285 123.008Z" fill="url(#paint38_linear_14_2)"/>
<path d="M296.038 123.008C295.918 123.009 295.799 122.986 295.688 122.94C295.578 122.894 295.477 122.827 295.393 122.741C295.308 122.657 295.24 122.557 295.194 122.447C295.148 122.336 295.124 122.218 295.124 122.098C295.124 121.978 295.148 121.86 295.194 121.749C295.24 121.639 295.308 121.539 295.393 121.455L300.755 116.102C300.775 116.083 300.791 116.059 300.802 116.033C300.813 116.007 300.819 115.979 300.819 115.951C300.819 115.922 300.813 115.894 300.802 115.868C300.791 115.842 300.775 115.819 300.755 115.799L295.509 110.556C295.348 110.383 295.26 110.155 295.264 109.919C295.269 109.683 295.364 109.458 295.531 109.291C295.698 109.125 295.924 109.029 296.16 109.025C296.396 109.021 296.625 109.108 296.798 109.269L302.049 114.506C302.432 114.889 302.647 115.407 302.647 115.948C302.647 116.488 302.432 117.006 302.049 117.389L296.682 122.741C296.599 122.827 296.498 122.895 296.388 122.941C296.277 122.987 296.158 123.01 296.038 123.008Z" fill="url(#paint39_linear_14_2)"/>
<path d="M59.8495 213.884L59.6124 219.637C59.6124 219.637 62.1107 220.693 64.068 219.637L64.9676 214.06" fill="#FFA49A"/>
<path d="M37.6263 211.997L36.1857 218.83C36.1857 218.83 38.9575 220.189 41.1275 219.254L42.9146 213.568" fill="#FFA49A"/>
<path d="M58.804 224.024H70.9611C70.9956 224.024 71.0297 224.016 71.0609 224.001C71.0921 223.986 71.1196 223.965 71.1416 223.938C71.1636 223.912 71.1795 223.881 71.1883 223.847C71.197 223.814 71.1983 223.779 71.1921 223.745C71.0827 223.248 70.3654 222.453 68.9855 221.736C67.6057 221.02 64.0315 219.637 64.0315 219.637C62.5567 219.885 61.0508 219.885 59.576 219.637C59.1283 220.127 58.8327 220.736 58.7249 221.391C58.6544 222.269 58.6809 223.152 58.804 224.024Z" fill="url(#paint40_linear_14_2)"/>
<path d="M49.3336 145.013C49.3336 145.013 45.0056 158.327 43.5589 170.1C42.1122 181.873 42.6532 179.136 42.173 182.158C41.7415 184.883 40.702 188.833 39.4316 194.477C37.991 200.915 36.4349 215.935 36.4349 215.935C38.2833 216.539 40.2388 216.746 42.173 216.542C42.173 216.542 49.1755 198.579 50.1542 193.524C50.7565 190.464 51.1626 187.369 51.3699 184.257C51.3699 184.257 56.7798 172.224 58.8587 164.547L59.971 164.231L60.2932 185.01C59.3079 188.932 58.6351 192.925 58.2812 196.953C57.7767 203.234 59.4665 216.73 59.4665 216.73C59.4665 216.73 63.4601 217.944 64.8156 217.003C64.8156 217.003 69.794 192.231 70.6693 184.421C71.4656 177.291 72.9487 163.394 73.1007 160.427C73.7086 149.989 72.2132 145.528 72.2132 145.528L49.3336 145.013Z" fill="url(#paint41_linear_14_2)"/>
<path d="M41.1761 219.042C39.508 219.225 37.8203 219.1 36.1978 218.672L35.8939 219.637C35.8939 219.637 33.6144 220.407 32.7452 221.348C31.4505 222.774 32.0583 224.024 32.0583 224.024H41.4922C42.0201 222.383 41.9072 220.604 41.1761 219.042Z" fill="url(#paint42_linear_14_2)"/>
<path d="M78.9118 141.378C78.9118 141.378 74.1705 141.984 71.4777 141.705C68.3534 141.347 71.2528 138.386 71.2528 138.386L78.5775 140.146L78.9118 141.378Z" fill="#FFA49A"/>
<path d="M71.8789 128.027C72.3591 127.912 72.8272 127.79 73.2648 127.657C77.8055 126.328 79.0638 124.738 79.0638 124.738C76.2129 116.758 74.4076 114.967 73.0764 113.499C70.645 110.792 72.4685 119.44 72.7603 119.567L71.8789 128.027Z" fill="url(#paint43_linear_14_2)"/>
<path style="mix-blend-mode:multiply" d="M72.8697 120.126L73.9092 124.95L71.3926 124.325L72.8697 120.126Z" fill="url(#paint44_linear_14_2)"/>
<path d="M50.0812 141.396C49.9293 142.688 48.3002 145.213 48.3124 146.694C48.3124 147.052 49.5281 148.569 52.6464 149.121C52.6464 149.121 58.184 150.444 66.4326 149.327C68.3473 149.066 71.9397 148.32 72.6874 147.683C73.2041 147.24 72.0066 143.198 71.8242 140.619C71.3927 134.642 72.4321 133.27 72.505 128.154C72.505 128.027 72.505 127.899 72.505 127.766C72.6388 119.877 73.4411 115.932 73.0703 113.499C71.2468 111.454 66.1833 109.858 65.8612 109.785C65.8612 109.785 60.5424 109.743 59.3875 109.785C56.7373 110.465 52.0507 111.867 49.7165 115.854C49.8442 119.021 49.6436 122.869 50.0265 127.808C50.0995 128.531 50.7499 135.898 50.0812 141.396Z" fill="url(#paint45_linear_14_2)"/>
<path d="M71.1799 97.6359C71.1799 97.6359 71.581 100.385 70.2985 100.889L69.7939 97.8544" fill="#192139"/>
<path d="M64.4935 113.693C67.5936 113.323 66.2016 110.161 65.8733 109.743C65.8733 109.743 65.3567 106.381 65.3141 106.217L60.0197 103.929C60.0197 103.929 59.8981 109.67 59.3693 109.749C58.5912 110.125 59.6611 114.27 64.4935 113.693Z" fill="#FFA49A"/>
<path style="mix-blend-mode:multiply" d="M61.8737 105.84C62.2513 106.596 62.7934 107.257 63.4602 107.775C64.1271 108.294 64.9017 108.657 65.7275 108.838L65.308 106.223L61.8737 105.84Z" fill="url(#paint46_linear_14_2)"/>
<path d="M70.5477 97.5085C70.5477 97.5085 71.7634 106.569 67.7394 108.056C67.7394 108.056 63.7519 108.426 61.4299 105.306C60.7612 104.408 59.9163 104.208 59.6367 103.122C59.193 101.362 58.5608 98.1093 59.3632 96.1491C60.5181 93.3576 70.4444 90.7118 70.5477 97.5085Z" fill="#FFA49A"/>
<path d="M67.8792 91.1487C67.8792 91.1487 66.9431 88.9944 64.074 90.0139C62.8692 90.443 61.814 91.21 61.0348 92.2228C60.915 92.1327 60.777 92.0696 60.6303 92.0381C60.4837 92.0065 60.3319 92.0073 60.1856 92.0402C60.0392 92.0731 59.9018 92.1374 59.7829 92.2287C59.664 92.32 59.5664 92.436 59.4969 92.5687C59.0167 93.218 59.3267 94.6017 59.3267 94.6017C54.555 95.4755 59.3753 105.598 59.43 105.925L59.9406 106.223C60.0743 104.742 60.0318 103.389 60.1169 102.351C60.1473 102.042 60.6397 101.86 60.7551 101.641C61.6973 101.793 62.6213 101.781 63.1501 101.332C64.0862 100.537 64.2746 99.2319 64.3658 98.352C65.2533 98.6493 72.5415 99.7963 72.1828 95.6454C72.3849 95.2356 72.532 94.801 72.6205 94.3529C73.4836 89.2007 67.8792 91.1487 67.8792 91.1487Z" fill="#192139"/>
<path d="M61.6912 103.619C59.8677 104.311 59.3206 99.8752 61.0408 99.6749C62.3416 99.5232 62.3903 101.338 62.3903 101.338C62.3903 101.338 62.7246 103.225 61.6912 103.619Z" fill="#FFA49A"/>
<path style="mix-blend-mode:multiply" d="M57.2843 121.892L55.2055 128.731L51.0052 129.313L57.2843 121.892Z" fill="url(#paint47_linear_14_2)"/>
<path d="M43.796 129.896C45.1686 126.024 46.7701 122.237 48.592 118.554L55.6188 122.577C55.6188 122.577 52.932 127.93 51.151 131.68C52.8713 132.099 57.3086 133.209 60.7004 134.302C63.4043 135.159 66.1851 135.753 69.0037 136.074C68.8882 136.912 68.8273 137.758 68.8214 138.604C62.9195 138.877 57.0075 138.849 51.1085 138.519C49.3144 138.465 47.5313 138.218 45.7897 137.785C44.1485 137.221 43.0301 136.778 42.9511 135.06C42.9275 133.303 43.2135 131.555 43.796 129.896Z" fill="#FFA49A"/>
<path d="M60.7612 140.619H70.4869V139.666H60.7612C60.6982 139.666 60.6357 139.679 60.5774 139.703C60.5192 139.727 60.4663 139.762 60.4217 139.807C60.3771 139.851 60.3417 139.904 60.3176 139.962C60.2934 140.02 60.281 140.083 60.281 140.146C60.281 140.208 60.2935 140.27 60.3177 140.328C60.3419 140.386 60.3774 140.438 60.422 140.483C60.4667 140.527 60.5197 140.561 60.5779 140.585C60.6361 140.608 60.6984 140.62 60.7612 140.619Z" fill="white"/>
<path d="M66.0253 140.619H89.294C89.4326 140.615 89.5664 140.567 89.6757 140.482C89.7851 140.397 89.8643 140.279 89.9018 140.146L94.8923 122.213C94.9218 122.12 94.9283 122.021 94.9113 121.925C94.8942 121.829 94.8542 121.738 94.7945 121.661C94.7348 121.583 94.6573 121.521 94.5685 121.48C94.4797 121.439 94.3823 121.42 94.2845 121.424H71.8485C71.5811 121.423 71.3205 121.509 71.1073 121.671C70.8941 121.832 70.7402 122.059 70.6693 122.316L65.697 140.182C65.6831 140.233 65.6811 140.286 65.691 140.338C65.7008 140.39 65.7224 140.439 65.7541 140.481C65.7858 140.523 65.8267 140.557 65.8737 140.581C65.9207 140.605 65.9725 140.618 66.0253 140.619Z" fill="white"/>
<path d="M66.9067 140.619H90.1754C90.3143 140.616 90.4485 140.568 90.558 140.483C90.6676 140.398 90.7466 140.279 90.7832 140.146L95.7737 122.213C95.8032 122.12 95.8097 122.021 95.7927 121.925C95.7756 121.829 95.7356 121.738 95.6759 121.661C95.6162 121.583 95.5387 121.521 95.4499 121.48C95.3611 121.439 95.2637 121.42 95.1659 121.424H72.6752C72.4172 121.44 72.1708 121.537 71.9719 121.702C71.7729 121.867 71.6318 122.09 71.5689 122.341L66.5967 140.206C66.5871 140.254 66.5877 140.303 66.5985 140.351C66.6092 140.398 66.6299 140.443 66.6592 140.482C66.6885 140.521 66.7256 140.553 66.7683 140.577C66.8109 140.6 66.8581 140.615 66.9067 140.619Z" fill="url(#paint48_linear_14_2)"/>
<path d="M87.4461 140.619C87.4461 140.619 87.0449 141.517 85.2214 141.705L85.3429 140.619H87.4461Z" fill="#FFA49A"/>
<path d="M87.0206 137.573C86.9841 137.403 86.5708 137.215 86.2425 137.324C86.3408 137.072 86.4241 136.815 86.4918 136.553C86.4553 136.08 85.9933 136.14 85.7319 136.286C85.4706 136.432 85.0694 137.245 84.9782 137.33C85.0791 137.138 85.1566 136.934 85.2092 136.723C85.1589 136.635 85.09 136.56 85.0073 136.501C84.9246 136.443 84.8301 136.403 84.7304 136.385C84.6307 136.367 84.5283 136.372 84.4304 136.397C84.3325 136.423 84.2414 136.47 84.1637 136.535C83.8427 136.949 83.5541 137.387 83.3005 137.846C83.3278 137.755 83.3461 137.661 83.3552 137.567C83.2884 137.281 82.7474 137.178 82.3948 137.506C81.878 138.189 81.451 138.935 81.1244 139.727C80.784 140.498 80.4618 140.595 80.3646 140.595H78.4498C78.5167 140.851 78.6478 141.087 78.8306 141.279C79.0135 141.471 79.2422 141.613 79.4953 141.693C80.8041 142.055 82.1632 142.203 83.5193 142.13C83.9838 142.147 84.4458 142.054 84.868 141.86C85.2903 141.666 85.6612 141.376 85.9508 141.013C86.2327 140.31 86.4603 139.585 86.6316 138.847C86.6984 138.604 87.0267 137.603 87.0206 137.573Z" fill="#FFA49A"/>
<path d="M49.7226 115.835C49.7226 115.835 48.1726 117.771 45.3947 124.495C48.2989 126.103 51.4274 127.269 54.6766 127.954C54.6766 127.954 55.7464 125.794 58.2569 119.458" fill="url(#paint49_linear_14_2)"/>
<path d="M49.9718 76.8938C49.9734 78.4304 50.5855 79.9035 51.6738 80.99C52.7621 82.0765 54.2377 82.6876 55.7768 82.6892H85.5496C87.0892 82.6892 88.5657 82.0786 89.6543 80.9918C90.743 79.9049 91.3546 78.4308 91.3546 76.8938C91.3546 75.3568 90.743 73.8827 89.6543 72.7958C88.5657 71.709 87.0892 71.0984 85.5496 71.0984H55.7647C54.2277 71.1032 52.7552 71.7157 51.6695 72.8019C50.5838 73.888 49.9734 75.3594 49.9718 76.8938Z" fill="white"/>
<path d="M85.1059 74.8487H59.9771C59.8046 74.8487 59.6392 74.7803 59.5172 74.6585C59.3952 74.5368 59.3267 74.3716 59.3267 74.1994C59.3267 74.0272 59.3952 73.862 59.5172 73.7403C59.6392 73.6185 59.8046 73.5501 59.9771 73.5501H85.1059C85.2784 73.5501 85.4438 73.6185 85.5658 73.7403C85.6878 73.862 85.7563 74.0272 85.7563 74.1994C85.7563 74.3716 85.6878 74.5368 85.5658 74.6585C85.4438 74.7803 85.2784 74.8487 85.1059 74.8487Z" fill="url(#paint50_linear_14_2)"/>
<path d="M75.6294 77.5553H59.9771C59.8046 77.5553 59.6392 77.4869 59.5172 77.3651C59.3952 77.2433 59.3267 77.0782 59.3267 76.906C59.3267 76.7337 59.3952 76.5686 59.5172 76.4468C59.6392 76.325 59.8046 76.2566 59.9771 76.2566H75.6294C75.8019 76.2566 75.9673 76.325 76.0893 76.4468C76.2113 76.5686 76.2798 76.7337 76.2798 76.906C76.2798 77.0782 76.2113 77.2433 76.0893 77.3651C75.9673 77.4869 75.8019 77.5553 75.6294 77.5553Z" fill="url(#paint51_linear_14_2)"/>
<path d="M85.1059 77.5553H78.4195C78.247 77.5553 78.0815 77.4869 77.9595 77.3651C77.8376 77.2433 77.769 77.0782 77.769 76.906C77.769 76.7337 77.8376 76.5686 77.9595 76.4468C78.0815 76.325 78.247 76.2566 78.4195 76.2566H85.1059C85.2784 76.2566 85.4438 76.325 85.5658 76.4468C85.6877 76.5686 85.7563 76.7337 85.7563 76.906C85.7563 77.0782 85.6877 77.2433 85.5658 77.3651C85.4438 77.4869 85.2784 77.5553 85.1059 77.5553Z" fill="url(#paint52_linear_14_2)"/>
<path d="M71.8911 80.2679H59.9771C59.8046 80.2679 59.6392 80.1995 59.5172 80.0777C59.3952 79.9559 59.3267 79.7908 59.3267 79.6186C59.3267 79.4464 59.3952 79.2812 59.5172 79.1594C59.6392 79.0377 59.8046 78.9692 59.9771 78.9692H71.8911C72.0636 78.9692 72.229 79.0377 72.351 79.1594C72.473 79.2812 72.5415 79.4464 72.5415 79.6186C72.5415 79.7908 72.473 79.9559 72.351 80.0777C72.229 80.1995 72.0636 80.2679 71.8911 80.2679Z" fill="url(#paint53_linear_14_2)"/>
<path d="M57.643 74.1994C57.643 74.3273 57.6051 74.4524 57.5341 74.5589C57.4632 74.6654 57.3623 74.7486 57.2442 74.7981C57.1261 74.8475 56.9959 74.8611 56.8701 74.837C56.7443 74.8129 56.6284 74.7523 56.5369 74.6627C56.4455 74.5731 56.3826 74.4585 56.3562 74.3334C56.3297 74.2082 56.3409 74.0781 56.3883 73.9592C56.4356 73.8404 56.5171 73.7381 56.6224 73.6654C56.7278 73.5926 56.8523 73.5525 56.9804 73.5501C57.0671 73.5476 57.1533 73.5626 57.234 73.5943C57.3147 73.6259 57.3882 73.6734 57.4501 73.734C57.5119 73.7947 57.5609 73.8671 57.594 73.9471C57.6272 74.027 57.6438 74.1129 57.643 74.1994Z" fill="url(#paint54_linear_14_2)"/>
<path d="M57.643 76.906C57.643 77.0346 57.6047 77.1604 57.5329 77.2673C57.4612 77.3742 57.3592 77.4574 57.24 77.5064C57.1208 77.5554 56.9898 77.5679 56.8634 77.5423C56.7371 77.5168 56.6212 77.4543 56.5305 77.3629C56.4398 77.2715 56.3783 77.1552 56.3539 77.0289C56.3295 76.9025 56.3433 76.7718 56.3934 76.6532C56.4436 76.5347 56.5279 76.4337 56.6357 76.3631C56.7434 76.2925 56.8698 76.2554 56.9986 76.2566C57.0838 76.2566 57.1681 76.2735 57.2466 76.3062C57.3252 76.3389 57.3965 76.3868 57.4564 76.4472C57.5163 76.5075 57.5637 76.5792 57.5957 76.6579C57.6277 76.7367 57.6438 76.821 57.643 76.906Z" fill="url(#paint55_linear_14_2)"/>
<path d="M57.643 79.6186C57.643 79.7473 57.6047 79.873 57.5329 79.9799C57.4612 80.0868 57.3592 80.1701 57.24 80.219C57.1208 80.268 56.9898 80.2805 56.8634 80.2549C56.7371 80.2294 56.6212 80.1669 56.5305 80.0755C56.4398 79.9841 56.3783 79.8678 56.3539 79.7415C56.3295 79.6151 56.3433 79.4844 56.3934 79.3658C56.4436 79.2473 56.5279 79.1463 56.6357 79.0757C56.7434 79.0051 56.8698 78.968 56.9986 78.9692C57.0838 78.9692 57.1681 78.9861 57.2466 79.0188C57.3252 79.0515 57.3965 79.0994 57.4564 79.1598C57.5163 79.2202 57.5637 79.2918 57.5957 79.3705C57.6277 79.4493 57.6438 79.5336 57.643 79.6186Z" fill="url(#paint56_linear_14_2)"/>
<path d="M180.314 52.717C180.314 54.2524 180.925 55.7249 182.013 56.8106C183.1 57.8963 184.575 58.5063 186.113 58.5063H215.898C216.66 58.5063 217.414 58.3566 218.117 58.0656C218.821 57.7747 219.46 57.3482 219.999 56.8106C220.537 56.273 220.964 55.6348 221.256 54.9324C221.547 54.2301 221.697 53.4772 221.697 52.717C221.697 51.181 221.086 49.7078 219.999 48.6211C218.912 47.5345 217.437 46.9232 215.898 46.9216H186.113C184.575 46.9232 183.1 47.5345 182.012 48.6211C180.925 49.7078 180.314 51.181 180.314 52.717Z" stroke="white" stroke-miterlimit="10"/>
<path d="M215.442 50.6658H190.313C190.141 50.6658 189.976 50.5974 189.854 50.4756C189.732 50.3539 189.663 50.1887 189.663 50.0165C189.663 49.8443 189.732 49.6791 189.854 49.5573C189.976 49.4356 190.141 49.3672 190.313 49.3672H215.442C215.615 49.3672 215.78 49.4356 215.902 49.5573C216.024 49.6791 216.093 49.8443 216.093 50.0165C216.093 50.1887 216.024 50.3539 215.902 50.4756C215.78 50.5974 215.615 50.6658 215.442 50.6658Z" fill="white"/>
<path d="M205.966 53.3784H190.313C190.141 53.3784 189.976 53.31 189.854 53.1882C189.732 53.0665 189.663 52.9013 189.663 52.7291C189.663 52.5569 189.732 52.3917 189.854 52.27C189.976 52.1482 190.141 52.0798 190.313 52.0798H205.966C206.138 52.0798 206.304 52.1482 206.426 52.27C206.548 52.3917 206.616 52.5569 206.616 52.7291C206.616 52.9013 206.548 53.0665 206.426 53.1882C206.304 53.31 206.138 53.3784 205.966 53.3784Z" fill="white"/>
<path d="M215.442 53.3784H208.756C208.583 53.3784 208.418 53.31 208.296 53.1882C208.174 53.0665 208.105 52.9013 208.105 52.7291C208.105 52.5569 208.174 52.3917 208.296 52.27C208.418 52.1482 208.583 52.0798 208.756 52.0798H215.442C215.615 52.0798 215.78 52.1482 215.902 52.27C216.024 52.3917 216.093 52.5569 216.093 52.7291C216.093 52.9013 216.024 53.0665 215.902 53.1882C215.78 53.31 215.615 53.3784 215.442 53.3784Z" fill="white"/>
<path d="M202.258 56.091H190.344C190.171 56.091 190.006 56.0226 189.884 55.9009C189.762 55.7791 189.693 55.6139 189.693 55.4417C189.693 55.2695 189.762 55.1043 189.884 54.9826C190.006 54.8608 190.171 54.7924 190.344 54.7924H202.258C202.43 54.7924 202.596 54.8608 202.718 54.9826C202.84 55.1043 202.908 55.2695 202.908 55.4417C202.908 55.6139 202.84 55.7791 202.718 55.9009C202.596 56.0226 202.43 56.091 202.258 56.091Z" fill="white"/>
<path d="M187.985 50.0165C187.985 50.1449 187.947 50.2705 187.876 50.3772C187.804 50.484 187.703 50.5672 187.584 50.6164C187.465 50.6655 187.334 50.6784 187.208 50.6533C187.082 50.6283 186.966 50.5664 186.875 50.4756C186.784 50.3848 186.722 50.2691 186.697 50.1432C186.672 50.0172 186.685 49.8866 186.734 49.768C186.783 49.6493 186.867 49.5479 186.974 49.4766C187.081 49.4052 187.206 49.3672 187.335 49.3672C187.507 49.3672 187.673 49.4356 187.795 49.5573C187.917 49.6791 187.985 49.8443 187.985 50.0165Z" fill="white"/>
<path d="M187.985 52.7291C187.985 52.8575 187.947 52.9831 187.876 53.0898C187.804 53.1966 187.703 53.2799 187.584 53.329C187.465 53.3781 187.334 53.391 187.208 53.366C187.082 53.3409 186.966 53.2791 186.875 53.1882C186.784 53.0974 186.722 52.9817 186.697 52.8558C186.672 52.7298 186.685 52.5993 186.734 52.4806C186.783 52.362 186.867 52.2606 186.974 52.1892C187.081 52.1179 187.206 52.0798 187.335 52.0798C187.507 52.0798 187.673 52.1482 187.795 52.27C187.917 52.3917 187.985 52.5569 187.985 52.7291Z" fill="white"/>
<path d="M187.985 55.4417C187.985 55.5701 187.947 55.6957 187.876 55.8025C187.804 55.9092 187.703 55.9925 187.584 56.0416C187.465 56.0908 187.334 56.1036 187.208 56.0786C187.082 56.0535 186.966 55.9917 186.875 55.9009C186.784 55.81 186.722 55.6944 186.697 55.5684C186.672 55.4424 186.685 55.3119 186.734 55.1932C186.783 55.0746 186.867 54.9732 186.974 54.9018C187.081 54.8305 187.206 54.7924 187.335 54.7924C187.507 54.7924 187.673 54.8608 187.795 54.9826C187.917 55.1043 187.985 55.2695 187.985 55.4417Z" fill="white"/>
<path d="M149.684 34.2141H139.533C137.553 34.2141 135.947 35.8171 135.947 37.7945V47.9289C135.947 49.9063 137.553 51.5093 139.533 51.5093H149.684C151.665 51.5093 153.271 49.9063 153.271 47.9289V37.7945C153.271 35.8171 151.665 34.2141 149.684 34.2141Z" fill="white"/>
<path d="M140.864 42.4734C140.744 42.6642 140.558 42.8045 140.342 42.8678C140.559 42.927 140.745 43.0656 140.864 43.2562C140.989 43.5042 141.045 43.7805 141.029 44.0572V46.2722C141.015 46.5114 141.091 46.7472 141.241 46.9337C141.329 47.0125 141.432 47.0729 141.544 47.1115C141.655 47.15 141.774 47.1659 141.892 47.1582H142.141V48.3052H141.533C141.266 48.3256 140.998 48.2932 140.743 48.2099C140.489 48.1266 140.253 47.994 140.05 47.8197C139.874 47.6309 139.739 47.4079 139.653 47.1646C139.567 46.9213 139.533 46.663 139.551 46.4057V43.9783C139.551 43.6021 139.375 43.42 139.023 43.42H138.64V42.2063H139.041C139.393 42.2063 139.57 42.0182 139.57 41.642V39.2146C139.551 38.9573 139.585 38.699 139.671 38.4557C139.757 38.2124 139.892 37.9894 140.068 37.8006C140.48 37.4515 141.012 37.2772 141.551 37.3151H142.159V38.5956H141.91C141.791 38.5873 141.673 38.6035 141.561 38.6432C141.449 38.6828 141.346 38.7452 141.26 38.8262C141.108 39.0096 141.031 39.2441 141.047 39.4816V41.6966C141.054 41.9668 140.991 42.2343 140.864 42.4734Z" fill="url(#paint57_linear_14_2)"/>
<path d="M150.59 42.2731V43.4868H150.195C150.125 43.4818 150.055 43.4917 149.989 43.5157C149.923 43.5398 149.862 43.5775 149.812 43.6264C149.763 43.6839 149.726 43.7505 149.703 43.8224C149.68 43.8942 149.672 43.9699 149.678 44.0451V46.4725C149.697 46.7307 149.661 46.9898 149.573 47.2333C149.485 47.4768 149.347 47.6993 149.168 47.8864C148.964 48.0612 148.727 48.1941 148.472 48.2774C148.216 48.3607 147.946 48.3928 147.678 48.3719H147.071V47.2068H147.32C147.439 47.2149 147.558 47.1993 147.671 47.1607C147.784 47.1222 147.887 47.0615 147.976 46.9822C148.132 46.7982 148.21 46.5612 148.195 46.3208V44.0572C148.176 43.779 148.231 43.5008 148.353 43.2501C148.469 43.0606 148.654 42.9235 148.87 42.8678C148.654 42.8101 148.468 42.6708 148.353 42.4794C148.23 42.229 148.176 41.9506 148.195 41.6723V39.4573C148.211 39.2186 148.133 38.9832 147.976 38.8019C147.889 38.7204 147.785 38.6578 147.672 38.6182C147.559 38.5785 147.439 38.5625 147.32 38.5713H147.071V37.3819H147.678C148.219 37.343 148.754 37.5173 149.168 37.8674C149.347 38.0545 149.485 38.277 149.573 38.5205C149.661 38.764 149.697 39.0231 149.678 39.2813V41.7087C149.672 41.7839 149.68 41.8596 149.703 41.9315C149.726 42.0033 149.763 42.07 149.812 42.1275C149.862 42.1774 149.922 42.2163 149.988 42.2414C150.054 42.2665 150.124 42.2773 150.195 42.2731H150.59Z" fill="url(#paint58_linear_14_2)"/>
<path d="M108.302 200.855C114.119 200.855 118.836 196.146 118.836 190.338C118.836 184.53 114.119 179.821 108.302 179.821C102.484 179.821 97.7675 184.53 97.7675 190.338C97.7675 196.146 102.484 200.855 108.302 200.855Z" fill="url(#paint59_linear_14_2)"/>
<path d="M106.861 186.06L112.806 189.482C112.961 189.572 113.09 189.701 113.18 189.856C113.269 190.011 113.316 190.186 113.316 190.365C113.316 190.544 113.269 190.72 113.18 190.875C113.09 191.03 112.961 191.159 112.806 191.248L106.861 194.671C106.706 194.761 106.531 194.808 106.352 194.809C106.173 194.809 105.997 194.762 105.843 194.673C105.688 194.583 105.559 194.455 105.47 194.3C105.381 194.145 105.335 193.97 105.335 193.791V186.915C105.339 186.739 105.388 186.567 105.479 186.415C105.57 186.264 105.699 186.138 105.853 186.052C106.007 185.966 106.181 185.921 106.358 185.922C106.535 185.924 106.708 185.971 106.861 186.06Z" fill="white"/>
<path d="M273.663 89.8986L271.535 94.7534C271.471 94.9007 271.364 95.0258 271.229 95.1132C271.094 95.2006 270.936 95.2464 270.775 95.2449H269.438C269.344 95.2449 269.255 95.2078 269.189 95.1418C269.123 95.0758 269.085 94.9863 269.085 94.893V88.1205C269.085 88.0207 269.125 87.925 269.196 87.8545C269.266 87.7839 269.362 87.7443 269.462 87.7443H270.55C270.665 87.7443 270.775 87.6989 270.856 87.6181C270.936 87.5373 270.982 87.4277 270.982 87.3134C270.982 87.1991 270.936 87.0896 270.856 87.0088C270.775 86.9279 270.665 86.8826 270.55 86.8826H266.757C266.643 86.8826 266.533 86.9279 266.452 87.0088C266.371 87.0896 266.326 87.1991 266.326 87.3134C266.326 87.4277 266.371 87.5373 266.452 87.6181C266.533 87.6989 266.643 87.7443 266.757 87.7443H267.845C267.945 87.7443 268.041 87.7839 268.112 87.8545C268.183 87.925 268.222 88.0207 268.222 88.1205V94.8808C268.222 94.9742 268.185 95.0637 268.119 95.1297C268.053 95.1957 267.963 95.2328 267.87 95.2328H266.539C266.377 95.2339 266.218 95.1881 266.082 95.1008C265.946 95.0135 265.839 94.8886 265.773 94.7412L263.651 89.8865C263.138 89.0103 262.869 88.0128 262.873 86.9979C262.889 85.4952 263.486 84.0567 264.537 82.9818C265.589 81.9068 267.016 81.2782 268.52 81.2267C269.291 81.2081 270.058 81.3436 270.775 81.6253C271.493 81.907 272.147 82.3291 272.698 82.8669C273.25 83.4047 273.688 84.0472 273.988 84.7566C274.287 85.4661 274.441 86.2281 274.441 86.9979C274.446 88.0169 274.178 89.0188 273.663 89.8986Z" fill="url(#paint60_linear_14_2)"/>
<path d="M271.146 96.6528H266.18C266.109 96.6536 266.039 96.6404 265.973 96.6139C265.908 96.5874 265.848 96.5482 265.798 96.4985C265.747 96.4489 265.707 96.3897 265.68 96.3245C265.653 96.2594 265.639 96.1894 265.639 96.1188C265.639 95.9755 265.696 95.8382 265.797 95.7369C265.899 95.6356 266.036 95.5787 266.18 95.5787H271.146C271.29 95.5787 271.427 95.6356 271.529 95.7369C271.63 95.8382 271.687 95.9755 271.687 96.1188C271.687 96.1894 271.673 96.2594 271.646 96.3245C271.619 96.3897 271.579 96.4489 271.528 96.4985C271.478 96.5482 271.418 96.5874 271.353 96.6139C271.287 96.6404 271.217 96.6536 271.146 96.6528Z" fill="url(#paint61_linear_14_2)"/>
<path d="M271.146 98.0668H266.18C266.036 98.0668 265.899 98.0099 265.797 97.9086C265.696 97.8073 265.639 97.6699 265.639 97.5267C265.639 97.3834 265.696 97.2461 265.797 97.1448C265.899 97.0435 266.036 96.9866 266.18 96.9866H271.146C271.29 96.9866 271.427 97.0435 271.529 97.1448C271.63 97.2461 271.687 97.3834 271.687 97.5267C271.687 97.6699 271.63 97.8073 271.529 97.9086C271.427 98.0099 271.29 98.0668 271.146 98.0668Z" fill="url(#paint62_linear_14_2)"/>
<path d="M270.076 98.4552C270.113 98.4555 270.15 98.4639 270.183 98.4796C270.216 98.4954 270.246 98.5182 270.27 98.5465C270.293 98.5747 270.311 98.6078 270.32 98.6434C270.33 98.6789 270.332 98.7162 270.325 98.7525C270.255 99.1411 270.049 99.4926 269.746 99.7456C269.442 99.9986 269.059 100.137 268.663 100.137C268.267 100.137 267.884 99.9986 267.58 99.7456C267.277 99.4926 267.071 99.1411 267.001 98.7525C266.993 98.7165 266.994 98.6794 267.003 98.6438C267.012 98.6082 267.029 98.575 267.052 98.5466C267.075 98.5182 267.104 98.4953 267.138 98.4795C267.171 98.4636 267.207 98.4553 267.244 98.4552H270.076Z" fill="url(#paint63_linear_14_2)"/>
<path d="M97.7675 63.3975C93.8114 63.3975 89.9442 62.2261 86.655 60.0315C83.3659 57.8368 80.8027 54.7176 79.2896 51.0684C77.7765 47.4191 77.3815 43.4038 78.1547 39.5304C78.9278 35.657 80.8343 32.0996 83.6329 29.3081C86.4316 26.5166 89.9967 24.6166 93.8772 23.8483C97.7577 23.08 101.779 23.4779 105.433 24.9919C109.087 26.5058 112.209 29.0676 114.404 32.3533C116.6 35.639 117.77 39.5008 117.766 43.4504C117.755 48.7404 115.643 53.8102 111.895 57.5491C108.146 61.288 103.066 63.3911 97.7675 63.3975ZM97.7675 23.9523C93.9077 23.9523 90.1345 25.0949 86.925 27.2355C83.7155 29.3761 81.2138 32.4186 79.7361 35.9785C78.2585 39.5384 77.8713 43.4557 78.6234 47.2353C79.3755 51.0149 81.2333 54.4869 83.9617 57.2126C86.6902 59.9382 90.1668 61.795 93.9522 62.5483C97.7376 63.3015 101.662 62.9173 105.228 61.4444C108.795 59.9714 111.844 57.4757 113.99 54.2729C116.137 51.07 117.283 47.3038 117.286 43.4504C117.284 38.2812 115.228 33.324 111.568 29.6671C107.909 26.0102 102.945 23.9527 97.7675 23.9463V23.9523Z" fill="white"/>
<path d="M103.967 59.4205C112.814 56.0015 117.21 46.0695 113.786 37.2367C110.361 28.4038 100.413 24.015 91.5651 27.4339C82.7177 30.8529 78.3215 40.7849 81.7462 49.6177C85.1708 58.4506 95.1193 62.8394 103.967 59.4205Z" fill="white"/>
<path d="M99.3297 43.4504C99.3297 43.7588 99.2381 44.0604 99.0664 44.3168C98.8948 44.5733 98.6508 44.7732 98.3653 44.8913C98.0799 45.0093 97.7658 45.0402 97.4627 44.98C97.1597 44.9198 96.8814 44.7713 96.6629 44.5532C96.4444 44.3351 96.2956 44.0572 96.2353 43.7547C96.1751 43.4521 96.206 43.1385 96.3242 42.8536C96.4425 42.5686 96.6427 42.325 96.8996 42.1536C97.1565 41.9823 97.4585 41.8908 97.7675 41.8908C98.1818 41.8908 98.5792 42.0551 98.8721 42.3476C99.1651 42.6401 99.3297 43.0368 99.3297 43.4504Z" fill="url(#paint64_linear_14_2)"/>
<path d="M97.5973 43.1227C97.5417 43.1547 97.4801 43.1752 97.4164 43.1831C97.3527 43.1909 97.288 43.186 97.2262 43.1684C97.1644 43.1509 97.1068 43.1211 97.0567 43.081C97.0067 43.0408 96.9652 42.991 96.9347 42.9346L91.8835 33.8318C91.8514 33.7763 91.8308 33.7149 91.823 33.6512C91.8151 33.5876 91.8201 33.523 91.8377 33.4613C91.8552 33.3997 91.885 33.3421 91.9252 33.2921C91.9655 33.2422 92.0153 33.2008 92.0719 33.1704C92.1275 33.1383 92.1891 33.1178 92.2528 33.1099C92.3166 33.1021 92.3812 33.1071 92.443 33.1246C92.5048 33.1422 92.5624 33.1719 92.6125 33.2121C92.6625 33.2522 92.704 33.302 92.7345 33.3585L97.7918 42.4612C97.8228 42.5173 97.8424 42.579 97.8494 42.6427C97.8564 42.7064 97.8507 42.7709 97.8326 42.8324C97.8145 42.8939 97.7844 42.9512 97.744 43.001C97.7036 43.0509 97.6538 43.0922 97.5973 43.1227Z" fill="url(#paint65_linear_14_2)"/>
<path d="M98.0167 43.681C98.0619 43.6351 98.1159 43.5987 98.1754 43.5738C98.2348 43.549 98.2987 43.5361 98.3632 43.5361C98.4277 43.5361 98.4915 43.549 98.551 43.5738C98.6105 43.5987 98.6644 43.6351 98.7096 43.681L103.08 48.0442C103.171 48.1363 103.223 48.2606 103.223 48.3901C103.223 48.5197 103.171 48.644 103.08 48.736C102.988 48.8272 102.863 48.8783 102.734 48.8783C102.604 48.8783 102.479 48.8272 102.387 48.736L98.0167 44.3728C97.9254 44.2807 97.8741 44.1564 97.8741 44.0269C97.8741 43.8973 97.9254 43.773 98.0167 43.681Z" fill="url(#paint66_linear_14_2)"/>
<path d="M97.8769 30.3121C97.7157 30.3121 97.5611 30.2482 97.4471 30.1344C97.3331 30.0206 97.269 29.8662 97.269 29.7053V27.733C97.269 27.572 97.3331 27.4177 97.4471 27.3039C97.5611 27.1901 97.7157 27.1261 97.8769 27.1261C98.0381 27.1261 98.1927 27.1901 98.3067 27.3039C98.4207 27.4177 98.4848 27.572 98.4848 27.733V29.7053C98.4848 29.8662 98.4207 30.0206 98.3067 30.1344C98.1927 30.2482 98.0381 30.3121 97.8769 30.3121Z" fill="url(#paint67_linear_14_2)"/>
<path d="M113.511 44.1422H111.535C111.374 44.1422 111.22 44.0783 111.106 43.9645C110.992 43.8506 110.928 43.6963 110.928 43.5353C110.928 43.3744 110.992 43.22 111.106 43.1062C111.22 42.9924 111.374 42.9285 111.535 42.9285H113.511C113.672 42.9285 113.827 42.9924 113.941 43.1062C114.055 43.22 114.119 43.3744 114.119 43.5353C114.119 43.6963 114.055 43.8506 113.941 43.9645C113.827 44.0783 113.672 44.1422 113.511 44.1422Z" fill="url(#paint68_linear_14_2)"/>
<path d="M97.6641 59.7382C97.5029 59.7382 97.3483 59.6743 97.2343 59.5605C97.1203 59.4467 97.0563 59.2923 97.0563 59.1314V57.1591C97.0563 56.9981 97.1203 56.8438 97.2343 56.73C97.3483 56.6162 97.5029 56.5522 97.6641 56.5522C97.8253 56.5522 97.98 56.6162 98.0939 56.73C98.2079 56.8438 98.272 56.9981 98.272 57.1591V59.1314C98.272 59.2923 98.2079 59.4467 98.0939 59.5605C97.98 59.6743 97.8253 59.7382 97.6641 59.7382Z" fill="url(#paint69_linear_14_2)"/>
<path d="M84.0178 43.9359H82.0422C81.881 43.9359 81.7264 43.8719 81.6124 43.7581C81.4984 43.6443 81.4344 43.49 81.4344 43.329C81.4344 43.1681 81.4984 43.0137 81.6124 42.8999C81.7264 42.7861 81.881 42.7222 82.0422 42.7222H84.0178C84.179 42.7222 84.3336 42.7861 84.4476 42.8999C84.5616 43.0137 84.6256 43.1681 84.6256 43.329C84.6256 43.49 84.5616 43.6443 84.4476 43.7581C84.3336 43.8719 84.179 43.9359 84.0178 43.9359Z" fill="url(#paint70_linear_14_2)"/>
<g opacity="0.5">
<path d="M90.9838 31.7928C90.9308 31.7925 90.8787 31.7783 90.8329 31.7517C90.787 31.7251 90.749 31.687 90.7224 31.6411L89.7316 29.9359C89.6923 29.8658 89.6823 29.783 89.704 29.7057C89.7256 29.6283 89.7771 29.5627 89.8471 29.5232C89.8813 29.5027 89.9192 29.4892 89.9587 29.4836C89.9982 29.478 90.0384 29.4803 90.077 29.4905C90.1155 29.5007 90.1516 29.5185 90.1831 29.5429C90.2146 29.5673 90.241 29.5977 90.2605 29.6324L91.2513 31.3377C91.2894 31.409 91.2987 31.4921 91.2772 31.57C91.2557 31.6479 91.2051 31.7146 91.1358 31.7564C91.0888 31.7806 91.0367 31.7931 90.9838 31.7928Z" fill="#DEE2F9"/>
<path d="M109.73 36.9632C109.664 36.9625 109.599 36.9402 109.547 36.8996C109.495 36.859 109.457 36.8025 109.44 36.7385C109.422 36.6746 109.427 36.6068 109.452 36.5454C109.477 36.4841 109.521 36.4326 109.578 36.3988L111.286 35.4096C111.357 35.3695 111.44 35.3585 111.518 35.3789C111.597 35.3993 111.664 35.4495 111.706 35.5189C111.744 35.5901 111.753 35.6733 111.732 35.7512C111.71 35.8291 111.659 35.8958 111.59 35.9376L109.864 36.9207C109.823 36.9457 109.778 36.9603 109.73 36.9632Z" fill="#DEE2F9"/>
<path d="M105.542 57.4079C105.488 57.408 105.435 57.3941 105.388 57.3675C105.341 57.3409 105.302 57.3025 105.274 57.2562L104.29 55.5509C104.27 55.5163 104.257 55.478 104.252 55.4384C104.247 55.3987 104.249 55.3584 104.26 55.3198C104.27 55.2812 104.288 55.2451 104.313 55.2134C104.337 55.1817 104.367 55.1552 104.402 55.1352C104.437 55.1153 104.475 55.1024 104.515 55.0973C104.555 55.0921 104.595 55.0949 104.634 55.1053C104.672 55.1157 104.709 55.1336 104.74 55.158C104.772 55.1824 104.799 55.2128 104.819 55.2475L105.803 56.9528C105.824 56.9869 105.837 57.0248 105.843 57.0642C105.849 57.1036 105.846 57.1437 105.836 57.1822C105.826 57.2207 105.808 57.2567 105.784 57.2882C105.759 57.3197 105.729 57.3459 105.694 57.3654C105.648 57.3935 105.596 57.4083 105.542 57.4079Z" fill="#DEE2F9"/>
<path d="M84.0968 51.4911C84.0435 51.4921 83.991 51.4784 83.9449 51.4517C83.8988 51.425 83.861 51.3861 83.8354 51.3394C83.7956 51.2701 83.7847 51.1879 83.8052 51.1106C83.8257 51.0334 83.8758 50.9673 83.9448 50.9268L85.659 49.9437C85.7276 49.9127 85.8052 49.9083 85.8768 49.9312C85.9485 49.9541 86.0091 50.0027 86.0469 50.0676C86.0847 50.1326 86.0971 50.2092 86.0816 50.2827C86.066 50.3562 86.0238 50.4214 85.9629 50.4655L84.2488 51.4547C84.2018 51.4789 84.1497 51.4914 84.0968 51.4911Z" fill="#DEE2F9"/>
</g>
<g opacity="0.5">
<path d="M85.9143 36.775C85.8606 36.7761 85.8077 36.7613 85.7623 36.7326L84.0482 35.7495C83.9792 35.7089 83.929 35.6429 83.9085 35.5656C83.888 35.4883 83.8989 35.4061 83.9388 35.3368C83.9784 35.2669 84.0441 35.2155 84.1216 35.1939C84.199 35.1723 84.282 35.1822 84.3521 35.2215L86.0663 36.2107C86.1233 36.2445 86.1677 36.296 86.1927 36.3573C86.2177 36.4186 86.2219 36.4865 86.2047 36.5504C86.1875 36.6144 86.1498 36.6709 86.0973 36.7115C86.0449 36.7521 85.9806 36.7744 85.9143 36.775Z" fill="#DEE2F9"/>
<path d="M104.733 31.9203C104.68 31.9206 104.627 31.9059 104.582 31.8778C104.547 31.8583 104.516 31.832 104.492 31.8006C104.467 31.7691 104.45 31.733 104.439 31.6946C104.429 31.6561 104.427 31.6159 104.432 31.5765C104.438 31.5371 104.452 31.4992 104.472 31.4651L105.457 29.7538C105.499 29.6845 105.566 29.6343 105.644 29.6138C105.723 29.5934 105.806 29.6045 105.876 29.6446C105.911 29.6641 105.942 29.6903 105.966 29.7218C105.99 29.7533 106.008 29.7893 106.018 29.8278C106.029 29.8663 106.031 29.9064 106.025 29.9458C106.02 29.9852 106.006 30.0231 105.986 30.0572L105.001 31.7503C104.976 31.8005 104.938 31.8429 104.891 31.8729C104.844 31.9028 104.789 31.9192 104.733 31.9203Z" fill="#DEE2F9"/>
<path d="M111.335 51.6732C111.282 51.6734 111.23 51.6609 111.183 51.6368L109.469 50.6476C109.4 50.6071 109.35 50.541 109.329 50.4637C109.309 50.3865 109.319 50.3042 109.359 50.2349C109.4 50.1661 109.466 50.1159 109.543 50.0955C109.621 50.075 109.703 50.0859 109.773 50.1257L111.487 51.1088C111.544 51.1426 111.588 51.1941 111.613 51.2554C111.638 51.3168 111.642 51.3846 111.625 51.4485C111.608 51.5125 111.57 51.5691 111.518 51.6096C111.465 51.6502 111.401 51.6725 111.335 51.6732Z" fill="#DEE2F9"/>
<path d="M89.8046 57.2805C89.7509 57.2815 89.698 57.2667 89.6526 57.238C89.5838 57.1974 89.5333 57.1317 89.5118 57.0548C89.4903 56.9779 89.4994 56.8957 89.5371 56.8253L90.528 55.114C90.5475 55.0793 90.5738 55.0488 90.6053 55.0245C90.6368 55.0001 90.6729 54.9823 90.7115 54.9721C90.75 54.9619 90.7902 54.9595 90.8297 54.9652C90.8692 54.9708 90.9071 54.9842 90.9413 55.0048C91.0101 55.0454 91.0606 55.111 91.0821 55.1879C91.1037 55.2648 91.0946 55.3471 91.0568 55.4174L90.066 57.1287C90.0395 57.1746 90.0014 57.2127 89.9555 57.2394C89.9097 57.266 89.8576 57.2801 89.8046 57.2805Z" fill="#DEE2F9"/>
</g>
<path d="M10.9354 224.297H326.716" stroke="#232230" stroke-linecap="round" stroke-linejoin="round"/>
</g>
<defs>
<linearGradient id="paint0_linear_14_2" x1="161.331" y1="-1.30472" x2="161.331" y2="230.123" gradientUnits="userSpaceOnUse">
<stop stop-color="#DFEDF2"/>
<stop offset="1" stop-color="#E8F8FF"/>
</linearGradient>
<linearGradient id="paint1_linear_14_2" x1="57.6152" y1="-161.915" x2="57.6152" y2="70.4602" gradientUnits="userSpaceOnUse">
<stop stop-color="#DFEDF2"/>
<stop offset="1" stop-color="#E8F8FF"/>
</linearGradient>
<linearGradient id="paint2_linear_14_2" x1="276.836" y1="-16.834" x2="276.836" y2="31.6472" gradientUnits="userSpaceOnUse">
<stop stop-color="#DFEDF2"/>
<stop offset="1" stop-color="#E8F8FF"/>
</linearGradient>
<linearGradient id="paint3_linear_14_2" x1="334.448" y1="142.652" x2="334.448" y2="374.08" gradientUnits="userSpaceOnUse">
<stop stop-color="#DFEDF2"/>
<stop offset="1" stop-color="#E8F8FF"/>
</linearGradient>
<linearGradient id="paint4_linear_14_2" x1="284.774" y1="46.8791" x2="298.403" y2="32.3104" gradientUnits="userSpaceOnUse">
<stop stop-color="#DFEDF2"/>
<stop offset="1" stop-color="#E8F8FF"/>
</linearGradient>
<linearGradient id="paint5_linear_14_2" x1="312.839" y1="212.476" x2="321.789" y2="202.903" gradientUnits="userSpaceOnUse">
<stop stop-color="#DFEDF2"/>
<stop offset="1" stop-color="#E8F8FF"/>
</linearGradient>
<linearGradient id="paint6_linear_14_2" x1="25.6637" y1="113.906" x2="58.7126" y2="147.009" gradientUnits="userSpaceOnUse">
<stop stop-color="#71D2F9"/>
<stop offset="1" stop-color="#51B9F8"/>
</linearGradient>
<linearGradient id="paint7_linear_14_2" x1="71.4291" y1="124.192" x2="264.326" y2="124.192" gradientUnits="userSpaceOnUse">
<stop stop-color="#3949B2"/>
<stop offset="1" stop-color="#5CA5F7"/>
</linearGradient>
<linearGradient id="paint8_linear_14_2" x1="71.4291" y1="124.192" x2="264.326" y2="124.192" gradientUnits="userSpaceOnUse">
<stop stop-color="#3949B2"/>
<stop offset="1" stop-color="#5CA5F7"/>
</linearGradient>
<linearGradient id="paint9_linear_14_2" x1="189.225" y1="149.248" x2="170.108" y2="130.86" gradientUnits="userSpaceOnUse">
<stop stop-color="#CBE1F2" stop-opacity="0"/>
<stop offset="1" stop-color="#AED2ED"/>
</linearGradient>
<linearGradient id="paint10_linear_14_2" x1="149.964" y1="96.2219" x2="164.973" y2="119.608" gradientUnits="userSpaceOnUse">
<stop stop-color="#CBE1F2" stop-opacity="0"/>
<stop offset="1" stop-color="#AED2ED"/>
</linearGradient>
<linearGradient id="paint11_linear_14_2" x1="187.013" y1="94.2011" x2="222.671" y2="86.6949" gradientUnits="userSpaceOnUse">
<stop stop-color="#CBE1F2" stop-opacity="0"/>
<stop offset="1" stop-color="#AED2ED"/>
</linearGradient>
<linearGradient id="paint12_linear_14_2" x1="141.746" y1="89.9289" x2="115.306" y2="86.1238" gradientUnits="userSpaceOnUse">
<stop stop-color="#CBE1F2" stop-opacity="0"/>
<stop offset="1" stop-color="#AED2ED"/>
</linearGradient>
<linearGradient id="paint13_linear_14_2" x1="98.9467" y1="155.881" x2="126.598" y2="163.186" gradientUnits="userSpaceOnUse">
<stop stop-color="#CBE1F2" stop-opacity="0"/>
<stop offset="1" stop-color="#AED2ED"/>
</linearGradient>
<linearGradient id="paint14_linear_14_2" x1="241.999" y1="156.409" x2="213.131" y2="162.649" gradientUnits="userSpaceOnUse">
<stop stop-color="#CBE1F2" stop-opacity="0"/>
<stop offset="1" stop-color="#AED2ED"/>
</linearGradient>
<linearGradient id="paint15_linear_14_2" x1="235.647" y1="230.087" x2="235.647" y2="192.826" gradientUnits="userSpaceOnUse">
<stop stop-color="#283770"/>
<stop offset="1" stop-color="#141049"/>
</linearGradient>
<linearGradient id="paint16_linear_14_2" x1="248.759" y1="148.253" x2="248.759" y2="203.84" gradientUnits="userSpaceOnUse">
<stop stop-color="#283770"/>
<stop offset="1" stop-color="#141A5A"/>
</linearGradient>
<linearGradient id="paint17_linear_14_2" x1="260.606" y1="135.746" x2="260.606" y2="168" gradientUnits="userSpaceOnUse">
<stop stop-color="#49A5F7"/>
<stop offset="1" stop-color="#1C6CEB"/>
</linearGradient>
<linearGradient id="paint18_linear_14_2" x1="258.624" y1="154.079" x2="264.174" y2="154.079" gradientUnits="userSpaceOnUse">
<stop stop-color="#49A5F7"/>
<stop offset="1" stop-color="#1C6CEB"/>
</linearGradient>
<linearGradient id="paint19_linear_14_2" x1="259.038" y1="135.746" x2="259.038" y2="168" gradientUnits="userSpaceOnUse">
<stop stop-color="#49A5F7"/>
<stop offset="1" stop-color="#1C6CEB"/>
</linearGradient>
<linearGradient id="paint20_linear_14_2" x1="210.817" y1="59.8307" x2="134.182" y2="98.7411" gradientUnits="userSpaceOnUse">
<stop stop-color="#71D2F9"/>
<stop offset="1" stop-color="#51B9F8"/>
</linearGradient>
<linearGradient id="paint21_linear_14_2" x1="157.872" y1="77.883" x2="137.48" y2="88.2327" gradientUnits="userSpaceOnUse">
<stop stop-color="#DFEDF2"/>
<stop offset="1" stop-color="#E8F8FF"/>
</linearGradient>
<linearGradient id="paint22_linear_14_2" x1="176.746" y1="71.9419" x2="176.746" y2="76.2384" gradientUnits="userSpaceOnUse">
<stop stop-color="#DFEDF2"/>
<stop offset="1" stop-color="#E8F8FF"/>
</linearGradient>
<linearGradient id="paint23_linear_14_2" x1="177.001" y1="74.7456" x2="177.001" y2="79.0421" gradientUnits="userSpaceOnUse">
<stop stop-color="#DFEDF2"/>
<stop offset="1" stop-color="#E8F8FF"/>
</linearGradient>
<linearGradient id="paint24_linear_14_2" x1="177.257" y1="77.5431" x2="177.257" y2="81.8396" gradientUnits="userSpaceOnUse">
<stop stop-color="#DFEDF2"/>
<stop offset="1" stop-color="#E8F8FF"/>
</linearGradient>
<linearGradient id="paint25_linear_14_2" x1="177.506" y1="80.3468" x2="177.506" y2="84.6433" gradientUnits="userSpaceOnUse">
<stop stop-color="#DFEDF2"/>
<stop offset="1" stop-color="#E8F8FF"/>
</linearGradient>
<linearGradient id="paint26_linear_14_2" x1="177.755" y1="83.1444" x2="177.755" y2="87.4409" gradientUnits="userSpaceOnUse">
<stop stop-color="#DFEDF2"/>
<stop offset="1" stop-color="#E8F8FF"/>
</linearGradient>
<linearGradient id="paint27_linear_14_2" x1="178.01" y1="85.9419" x2="178.01" y2="90.2445" gradientUnits="userSpaceOnUse">
<stop stop-color="#DFEDF2"/>
<stop offset="1" stop-color="#E8F8FF"/>
</linearGradient>
<linearGradient id="paint28_linear_14_2" x1="148.116" y1="202.596" x2="148.116" y2="124.768" gradientUnits="userSpaceOnUse">
<stop stop-color="#283770"/>
<stop offset="1" stop-color="#141A5A"/>
</linearGradient>
<linearGradient id="paint29_linear_14_2" x1="148.116" y1="146.955" x2="154.748" y2="146.955" gradientUnits="userSpaceOnUse">
<stop stop-color="#283770"/>
<stop offset="1" stop-color="#141A5A"/>
</linearGradient>
<linearGradient id="paint30_linear_14_2" x1="158.14" y1="203.719" x2="158.14" y2="124.695" gradientUnits="userSpaceOnUse">
<stop stop-color="#283770"/>
<stop offset="1" stop-color="#141A5A"/>
</linearGradient>
<linearGradient id="paint31_linear_14_2" x1="157.27" y1="93.7096" x2="153.635" y2="121.723" gradientUnits="userSpaceOnUse">
<stop stop-color="#CBE1F2"/>
<stop offset="1" stop-color="#AED2ED"/>
</linearGradient>
<linearGradient id="paint32_linear_14_2" x1="165.653" y1="94.7958" x2="162.018" y2="122.81" gradientUnits="userSpaceOnUse">
<stop stop-color="#CBE1F2"/>
<stop offset="1" stop-color="#AED2ED"/>
</linearGradient>
<linearGradient id="paint33_linear_14_2" x1="156.219" y1="68.6103" x2="149.772" y2="109.248" gradientUnits="userSpaceOnUse">
<stop stop-color="#272E79"/>
<stop offset="1" stop-color="#0B1B38"/>
</linearGradient>
<linearGradient id="paint34_linear_14_2" x1="-nan" y1="-nan" x2="-nan" y2="-nan" gradientUnits="userSpaceOnUse">
<stop stop-color="#51B9F8"/>
<stop offset="1" stop-color="#71D2F9"/>
</linearGradient>
<linearGradient id="paint35_linear_14_2" x1="-nan" y1="-nan" x2="-nan" y2="-nan" gradientUnits="userSpaceOnUse">
<stop stop-color="#51B9F8"/>
<stop offset="1" stop-color="#71D2F9"/>
</linearGradient>
<linearGradient id="paint36_linear_14_2" x1="274.532" y1="106.029" x2="306.946" y2="127.469" gradientUnits="userSpaceOnUse">
<stop stop-color="#71D2F9"/>
<stop offset="1" stop-color="#51B9F8"/>
</linearGradient>
<linearGradient id="paint37_linear_14_2" x1="289.716" y1="105.889" x2="289.716" y2="124.034" gradientUnits="userSpaceOnUse">
<stop stop-color="#71D2F9"/>
<stop offset="1" stop-color="#51B9F8"/>
</linearGradient>
<linearGradient id="paint38_linear_14_2" x1="280.55" y1="105.889" x2="280.55" y2="124.034" gradientUnits="userSpaceOnUse">
<stop stop-color="#71D2F9"/>
<stop offset="1" stop-color="#51B9F8"/>
</linearGradient>
<linearGradient id="paint39_linear_14_2" x1="298.889" y1="105.889" x2="298.889" y2="124.034" gradientUnits="userSpaceOnUse">
<stop stop-color="#71D2F9"/>
<stop offset="1" stop-color="#51B9F8"/>
</linearGradient>
<linearGradient id="paint40_linear_14_2" x1="64.9676" y1="216.129" x2="64.9676" y2="224.862" gradientUnits="userSpaceOnUse">
<stop stop-color="#1A2F79"/>
<stop offset="1" stop-color="#160545"/>
</linearGradient>
<linearGradient id="paint41_linear_14_2" x1="54.8407" y1="214.843" x2="54.8407" y2="125.017" gradientUnits="userSpaceOnUse">
<stop stop-color="#283770"/>
<stop offset="1" stop-color="#141A5A"/>
</linearGradient>
<linearGradient id="paint42_linear_14_2" x1="36.8604" y1="216.511" x2="36.8604" y2="225.323" gradientUnits="userSpaceOnUse">
<stop stop-color="#1A2F79"/>
<stop offset="1" stop-color="#160545"/>
</linearGradient>
<linearGradient id="paint43_linear_14_2" x1="75.441" y1="110.07" x2="75.441" y2="145.443" gradientUnits="userSpaceOnUse">
<stop stop-color="#6EC4F7"/>
<stop offset="1" stop-color="#398EF6"/>
</linearGradient>
<linearGradient id="paint44_linear_14_2" x1="72.6509" y1="120.745" x2="72.6509" y2="126.267" gradientUnits="userSpaceOnUse">
<stop stop-color="#6EC4F7"/>
<stop offset="1" stop-color="#398EF6"/>
</linearGradient>
<linearGradient id="paint45_linear_14_2" x1="60.7369" y1="110.07" x2="60.7369" y2="145.292" gradientUnits="userSpaceOnUse">
<stop stop-color="#6EC4F7"/>
<stop offset="1" stop-color="#398EF6"/>
</linearGradient>
<linearGradient id="paint46_linear_14_2" x1="61.8797" y1="105.209" x2="68.4493" y2="109.953" gradientUnits="userSpaceOnUse">
<stop stop-color="#F4CFB3"/>
<stop offset="1" stop-color="#F2BB9B"/>
</linearGradient>
<linearGradient id="paint47_linear_14_2" x1="54.1417" y1="118.366" x2="54.1417" y2="140.036" gradientUnits="userSpaceOnUse">
<stop stop-color="#6EC4F7"/>
<stop offset="1" stop-color="#398EF6"/>
</linearGradient>
<linearGradient id="paint48_linear_14_2" x1="81.1852" y1="118.238" x2="81.1852" y2="143.216" gradientUnits="userSpaceOnUse">
<stop stop-color="#71D2F9"/>
<stop offset="1" stop-color="#51B9F8"/>
</linearGradient>
<linearGradient id="paint49_linear_14_2" x1="51.8258" y1="110.07" x2="51.8258" y2="145.443" gradientUnits="userSpaceOnUse">
<stop stop-color="#6EC4F7"/>
<stop offset="1" stop-color="#398EF6"/>
</linearGradient>
<linearGradient id="paint50_linear_14_2" x1="86.8686" y1="69.0958" x2="51.0915" y2="81.8772" gradientUnits="userSpaceOnUse">
<stop stop-color="#B6DFF6"/>
<stop offset="1" stop-color="#DDEAF7"/>
</linearGradient>
<linearGradient id="paint51_linear_14_2" x1="85.4767" y1="70.6129" x2="49.6995" y2="83.3943" gradientUnits="userSpaceOnUse">
<stop stop-color="#B6DFF6"/>
<stop offset="1" stop-color="#DDEAF7"/>
</linearGradient>
<linearGradient id="paint52_linear_14_2" x1="87.051" y1="75.0247" x2="51.2739" y2="87.8061" gradientUnits="userSpaceOnUse">
<stop stop-color="#B6DFF6"/>
<stop offset="1" stop-color="#DDEAF7"/>
</linearGradient>
<linearGradient id="paint53_linear_14_2" x1="84.4008" y1="73.0403" x2="48.6297" y2="85.8217" gradientUnits="userSpaceOnUse">
<stop stop-color="#B6DFF6"/>
<stop offset="1" stop-color="#DDEAF7"/>
</linearGradient>
<linearGradient id="paint54_linear_14_2" x1="56.6826" y1="73.1374" x2="58.9551" y2="80.804" gradientUnits="userSpaceOnUse">
<stop stop-color="#71D2F9"/>
<stop offset="1" stop-color="#51B9F8"/>
</linearGradient>
<linearGradient id="paint55_linear_14_2" x1="55.941" y1="73.3559" x2="58.2135" y2="81.0224" gradientUnits="userSpaceOnUse">
<stop stop-color="#71D2F9"/>
<stop offset="1" stop-color="#51B9F8"/>
</linearGradient>
<linearGradient id="paint56_linear_14_2" x1="55.1994" y1="73.5804" x2="57.4719" y2="81.2409" gradientUnits="userSpaceOnUse">
<stop stop-color="#71D2F9"/>
<stop offset="1" stop-color="#51B9F8"/>
</linearGradient>
<linearGradient id="paint57_linear_14_2" x1="137.783" y1="39.8518" x2="150.075" y2="50.1883" gradientUnits="userSpaceOnUse">
<stop stop-color="#71D2F9"/>
<stop offset="1" stop-color="#51B9F8"/>
</linearGradient>
<linearGradient id="paint58_linear_14_2" x1="140.451" y1="36.6779" x2="152.743" y2="47.0145" gradientUnits="userSpaceOnUse">
<stop stop-color="#71D2F9"/>
<stop offset="1" stop-color="#51B9F8"/>
</linearGradient>
<linearGradient id="paint59_linear_14_2" x1="99.2142" y1="181.26" x2="116.109" y2="198.182" gradientUnits="userSpaceOnUse">
<stop stop-color="#71D2F9"/>
<stop offset="1" stop-color="#51B9F8"/>
</linearGradient>
<linearGradient id="paint60_linear_14_2" x1="264.356" y1="79.8795" x2="275.573" y2="99.9214" gradientUnits="userSpaceOnUse">
<stop stop-color="#71D2F9"/>
<stop offset="1" stop-color="#51B9F8"/>
</linearGradient>
<linearGradient id="paint61_linear_14_2" x1="260.697" y1="81.9306" x2="271.914" y2="101.973" gradientUnits="userSpaceOnUse">
<stop stop-color="#71D2F9"/>
<stop offset="1" stop-color="#51B9F8"/>
</linearGradient>
<linearGradient id="paint62_linear_14_2" x1="260.089" y1="82.2705" x2="271.306" y2="102.312" gradientUnits="userSpaceOnUse">
<stop stop-color="#71D2F9"/>
<stop offset="1" stop-color="#51B9F8"/>
</linearGradient>
<linearGradient id="paint63_linear_14_2" x1="259.554" y1="82.5678" x2="270.771" y2="102.61" gradientUnits="userSpaceOnUse">
<stop stop-color="#71D2F9"/>
<stop offset="1" stop-color="#51B9F8"/>
</linearGradient>
<linearGradient id="paint64_linear_14_2" x1="108.934" y1="62.4994" x2="87.7114" y2="26.1367" gradientUnits="userSpaceOnUse">
<stop stop-color="#B6DFF6"/>
<stop offset="1" stop-color="#DDEAF7"/>
</linearGradient>
<linearGradient id="paint65_linear_14_2" x1="109.049" y1="62.4326" x2="87.8269" y2="26.0638" gradientUnits="userSpaceOnUse">
<stop stop-color="#B6DFF6"/>
<stop offset="1" stop-color="#DDEAF7"/>
</linearGradient>
<linearGradient id="paint66_linear_14_2" x1="109.791" y1="61.9957" x2="88.5684" y2="25.633" gradientUnits="userSpaceOnUse">
<stop stop-color="#B6DFF6"/>
<stop offset="1" stop-color="#DDEAF7"/>
</linearGradient>
<linearGradient id="paint67_linear_14_2" x1="115.432" y1="58.7066" x2="94.2093" y2="22.3378" gradientUnits="userSpaceOnUse">
<stop stop-color="#B6DFF6"/>
<stop offset="1" stop-color="#DDEAF7"/>
</linearGradient>
<linearGradient id="paint68_linear_14_2" x1="119.869" y1="56.1153" x2="98.6467" y2="19.7526" gradientUnits="userSpaceOnUse">
<stop stop-color="#B6DFF6"/>
<stop offset="1" stop-color="#DDEAF7"/>
</linearGradient>
<linearGradient id="paint69_linear_14_2" x1="102.436" y1="66.2922" x2="81.2134" y2="29.9295" gradientUnits="userSpaceOnUse">
<stop stop-color="#B6DFF6"/>
<stop offset="1" stop-color="#DDEAF7"/>
</linearGradient>
<linearGradient id="paint70_linear_14_2" x1="97.9924" y1="68.8834" x2="76.77" y2="32.5147" gradientUnits="userSpaceOnUse">
<stop stop-color="#B6DFF6"/>
<stop offset="1" stop-color="#DDEAF7"/>
</linearGradient>
<clipPath id="clip0_14_2">
<rect width="351" height="238" fill="white"/>
</clipPath>
</defs>
</svg>
