<svg width="318" height="328" viewBox="0 0 318 328" fill="none" xmlns="http://www.w3.org/2000/svg">
<g clip-path="url(#clip0_14_174)">
<path d="M95.1155 328H34.2362L27.6449 317.163H85.7799L95.1155 328Z" fill="#589BF0"/>
<path d="M90.4435 314.677H38.1001L32.5021 305.683H82.0002L90.4435 314.677Z" fill="#4568C9"/>
<path d="M90.4435 314.677H38.1001V325.591H90.4435V314.677Z" fill="#3C50B7"/>
<path d="M32.5021 305.683L38.1001 314.677V325.599L32.5021 317.163V305.683Z" fill="#4C7BD8"/>
<path d="M168.529 328H107.65L101.067 317.163H159.194L168.529 328Z" fill="#589BF0"/>
<path d="M163.765 239.806H111.421L105.823 230.803H155.321L163.765 239.806Z" fill="#4568C9"/>
<path d="M163.765 239.806H111.421V325.599H163.765V239.806Z" fill="#3C50B7"/>
<path d="M105.823 230.803L111.421 239.806V325.599L105.823 317.163V230.803Z" fill="#4C7BD8"/>
<path d="M241.951 328H181.072L174.481 317.163H232.616L241.951 328Z" fill="#589BF0"/>
<path d="M237.086 220.211H184.742L179.144 211.216H228.642L237.086 220.211Z" fill="#4568C9"/>
<path d="M237.086 220.211H184.742V325.599H237.086V220.211Z" fill="#3C50B7"/>
<path d="M179.144 211.216L184.742 220.211V325.599L179.144 317.163V211.216Z" fill="#4C7BD8"/>
<path d="M315.365 328H254.486L247.903 317.163H306.03L315.365 328Z" fill="#589BF0"/>
<path d="M310.407 195.84H258.064L252.466 186.845H301.964L310.407 195.84Z" fill="#4568C9"/>
<path d="M310.407 195.84H258.063V325.599H310.407V195.84Z" fill="#3C50B7"/>
<path d="M252.466 186.845L258.064 195.84V325.599L252.466 317.163V186.845Z" fill="#4C7BD8"/>
<g style="mix-blend-mode:multiply">
<path d="M63.2279 308.151C58.1771 307.999 42.629 308.904 43.1172 310.18C43.6054 311.457 49.3802 314.263 56.2662 313.291C65.425 312.006 74.0704 313.68 75.3078 314.677C76.5453 315.675 79.1128 321.161 80.3586 321.085C81.6045 321.009 82.5558 314.694 82.5558 314.694C82.5558 314.694 80.426 308.692 63.2279 308.151Z" fill="#A6C6D7"/>
</g>
<path d="M53.724 172.762C53.724 172.762 52.6044 178.629 52.1666 180.176C51.7289 181.723 51.2322 184.106 55.7443 182.813C58.504 181.962 60.8219 180.06 62.201 177.513C62.201 177.513 62.3104 167.369 62.6471 166.101C62.9838 164.833 53.724 172.762 53.724 172.762Z" fill="#FFD8A3"/>
<path d="M45.0955 159.913C45.0955 159.913 44.3295 171.469 52.3182 176.414C54.6416 177.851 61.4602 173.278 61.9737 171.063C62.7061 167.901 65.484 162.398 65.5093 159.363C65.5093 157.258 63.6826 155.035 63.6826 155.035C63.6826 155.035 47.2674 150.656 45.0955 159.913Z" fill="#FFE1BD"/>
<path d="M62.5292 151.333C61.8626 149.926 60.7901 148.753 59.451 147.966C58.112 147.179 56.5683 146.815 55.0203 146.92C49.1277 147.038 44.2621 153.793 41.7283 154.35C39.1944 154.908 40.836 160.75 45.0955 161.206C47.4441 161.46 49.6833 158.002 53.7745 156.861C56.0897 156.196 58.4881 155.869 60.8961 155.889C60.8961 155.889 59.5324 157.098 61.1319 158.949C62.7313 160.8 62.2851 162.026 62.2851 162.026C62.2851 162.026 63.792 159.727 64.2886 161.231C64.6085 162.195 63.2869 165.348 62.6724 165.34C62.7494 166.502 62.7494 167.669 62.6724 168.831C62.6724 168.831 65.7365 163.497 66.0396 160.099C66.3426 156.7 66.9403 149.769 62.5292 151.333Z" fill="#705E4E"/>
<path d="M64.2885 176.65C68.6712 177.425 72.8218 179.188 76.4274 181.807C76.4274 181.807 75.0215 193.811 72.7318 201.588C69.7266 211.783 67.58 214.175 66.4183 223.043C66.4183 223.043 48.2269 225.198 44.1021 223.237C44.1021 223.237 45.6005 188.578 43.3108 183.253C43.3108 183.253 48.0838 179.364 50.6176 178.485C51.5184 178.172 51.8467 183.802 54.6331 183.253C59.6334 182.247 64.2885 176.65 64.2885 176.65Z" fill="#EBFFFD"/>
<path d="M52.8485 177.175L53.9765 182.331L50.02 186.186V178.722L52.8485 177.175Z" fill="#D1F0FF"/>
<path d="M53.9764 182.331L62.2514 174.571L64.2717 176.65L59.1788 185.56L53.9764 182.331Z" fill="#D1F0FF"/>
<path d="M53.9681 182.331L56.5693 183.946C55.8773 184.304 55.223 184.732 54.6163 185.222C58.1687 197.581 47.0401 205.468 53.7156 216.5L52.5707 220.862L47.9997 220.287C47.0418 217.454 46.6752 214.453 46.9229 211.472C47.1705 208.49 48.0271 205.592 49.4392 202.957C54.7341 192.712 53.1937 186.558 53.1011 185.264L51.8973 184.368L53.9681 182.331Z" fill="#45769F"/>
<path d="M28.1836 190.607C28.1836 190.607 27.7291 185.882 26.1549 185.645C22.9729 185.163 22.1479 183.295 20.9104 183.253C19.673 183.21 20.3381 184.588 21.3819 185.882C22.4257 187.175 18.284 187.082 14.1844 184.444C12.5008 183.371 10.0343 184.013 11.0361 184.977C13.41 187.243 14.5212 188.536 16.0869 189.204C18.082 190.049 21.466 189.948 22.7119 190.353C23.9578 190.759 23.9241 192.974 23.9241 192.974C25.2912 192.093 26.7141 191.302 28.1836 190.607Z" fill="#FFE1BD"/>
<path d="M43.294 183.253C43.294 183.253 38.9167 195.409 34.5056 201.064C32.3843 203.786 29.7747 198.874 28.0574 189.998C28.0574 189.998 23.8484 192.044 23.8484 192.957C23.8484 199.847 28.15 211.411 32.7463 211.411C37.5614 211.411 44.5315 195.645 44.5315 195.645C44.5315 195.645 44.9271 187.42 43.294 183.253Z" fill="#E4F0F4"/>
<path d="M44.0852 225.782C44.0852 225.782 39.2196 265.513 51.2995 303.274C51.2995 303.274 57.1921 304.838 56.8807 303.274C50.5166 274.321 51.1227 245.436 55.1129 237.464L56.384 225.934L44.0852 225.782Z" fill="#433C44"/>
<path d="M52.6465 225.934C51.6615 261.353 61.5023 284.178 71.8649 306.047C71.8649 306.047 77.4881 307.044 76.9157 305.573C64.9789 275.361 66.3931 225.934 66.3931 225.934H52.6465Z" fill="#535054"/>
<path d="M51.2996 303.274C51.2322 302.648 56.8807 303.688 56.8807 303.688C56.8807 303.688 58.3875 307.23 57.5289 308.236C56.6702 309.242 49.2287 313.697 44.582 311.321C39.9352 308.946 46.8717 309.631 48.0923 308.785C49.3129 307.94 51.51 305.193 51.2996 303.274Z" fill="#433C44"/>
<path d="M71.8649 306.089C71.8649 306.089 71.343 310.197 72.008 311.448C72.673 312.699 81.0237 320.164 84.4583 319.538C85.8809 319.276 84.2478 315.7 83.2629 314.272C80.9311 310.89 76.9073 305.683 76.9073 305.683L71.8649 306.089Z" fill="#433C44"/>
<path d="M44.0852 223.169C44.0852 223.169 43.5128 226.196 44.0852 226.407C44.6576 226.618 66.4015 226.407 66.4015 226.407V223.026C66.4015 223.026 46.5601 223.88 44.0852 223.169Z" fill="#433C44"/>
<path d="M49.1782 223.262C49.1782 223.389 48.7321 226.695 49.3718 226.703H54.4227C54.4227 226.703 54.7846 223.203 54.2711 223.212C53.7576 223.22 49.1782 223.262 49.1782 223.262Z" fill="#B1B2B9"/>
<path d="M74.8449 229.941C74.8449 229.941 63.6826 232.62 62.6808 236.069C61.6791 239.518 65.2062 246.129 65.2062 246.129L67.3528 244.929C67.3528 244.929 64.7684 237.532 67.0582 236.889C69.3479 236.247 75.4762 233.136 76.4106 234.632C77.345 236.129 78.271 240.381 78.271 240.381L80.2577 239.434C80.2577 239.434 79.1128 229.941 74.8449 229.941Z" fill="#9F6542"/>
<path d="M87.5898 235.3H83.0945C83.0945 235.3 55.7106 248.099 54.086 248.58C52.4613 249.062 54.9278 277.981 55.475 277.601C56.0221 277.22 61.4686 278.979 62.504 279.934C63.5394 280.889 87.5898 235.3 87.5898 235.3Z" fill="#9F6542"/>
<path d="M56.384 250.246C56.384 250.246 86.3607 235.3 87.5897 235.3C88.8188 235.3 95.3007 263.653 95.3007 263.653C95.3007 263.653 63.4552 279.647 62.4703 279.934C61.4854 280.221 56.384 250.246 56.384 250.246Z" fill="#AA8251"/>
<path d="M65.6523 262.385L68.7839 260.77L69.9119 263.982L67.0076 265.732L65.6523 262.385Z" fill="#FFD8A3"/>
<path d="M82.1937 253.788L85.3168 252.165L86.4448 255.385L83.5406 257.135L82.1937 253.788Z" fill="#FFD8A3"/>
<path d="M56.384 250.246C56.384 250.246 86.3607 235.3 87.5897 235.3C88.179 235.3 90.0141 241.987 91.7482 248.868L59.1873 265.732C57.7394 258.107 56.384 250.246 56.384 250.246Z" fill="#9F724C"/>
<path d="M73.338 179.651C82.4379 183.878 99.3077 202.645 75.1311 231.521L71.9827 227.244C71.9827 227.244 90.2246 204.606 73.7505 192.348C70.358 189.821 69.0533 177.665 73.338 179.651Z" fill="#EBFFFD"/>
<path d="M71.9826 227.244C71.9826 227.244 67.5463 227.633 66.351 229.366C65.6039 230.598 65.2106 232.014 65.2145 233.457C65.2145 233.457 66.7803 231.953 67.8325 232.24C68.8848 232.527 70.3579 235.757 67.0581 236.906C65.4923 237.456 69.2299 240.49 70.6273 237.811C70.6273 237.811 71.9321 239.916 73.077 237.329C73.077 237.329 73.742 239.442 74.8869 237.143C74.8869 237.143 75.6529 238.834 76.4105 236.467C77.1681 234.1 75.131 231.538 75.131 231.538L71.9826 227.244Z" fill="#FFE1BD"/>
<path d="M28.756 158.856C27.9984 152.702 22.8129 150.47 18.7049 150.47C14.5968 150.47 9.40292 152.702 8.6032 158.856C7.68563 166.304 12.425 168.594 13.4015 171.781C13.4883 172.078 13.6678 172.338 13.9134 172.524C14.1591 172.709 14.4577 172.811 14.7652 172.813H22.5519C22.8594 172.811 23.1581 172.709 23.4037 172.524C23.6493 172.338 23.8288 172.078 23.9156 171.781C24.9342 168.594 29.6736 166.304 28.756 158.856Z" fill="#FACA51"/>
<path d="M22.7035 175.18H14.6643C14.0413 175.18 13.5363 175.687 13.5363 176.312V176.405C13.5363 177.031 14.0413 177.538 14.6643 177.538H22.7035C23.3265 177.538 23.8315 177.031 23.8315 176.405V176.312C23.8315 175.687 23.3265 175.18 22.7035 175.18Z" fill="#C8C8C8"/>
<path d="M22.7035 172.813H14.6643C14.0413 172.813 13.5363 173.32 13.5363 173.945V174.038C13.5363 174.664 14.0413 175.171 14.6643 175.171H22.7035C23.3265 175.171 23.8315 174.664 23.8315 174.038V173.945C23.8315 173.32 23.3265 172.813 22.7035 172.813Z" fill="#C8C8C8"/>
<path d="M13.5363 174.123V173.869C13.5362 173.591 13.6459 173.323 13.8415 173.125C14.037 172.927 14.3025 172.815 14.5801 172.813H22.7792C22.9174 172.812 23.0543 172.839 23.1817 172.893C23.309 172.946 23.4241 173.026 23.52 173.125L13.5363 174.123Z" fill="#9B9E99"/>
<path d="M13.5363 176.481V176.228C13.5363 175.95 13.6462 175.683 13.842 175.487C14.0377 175.29 14.3032 175.18 14.5801 175.18H22.7792C22.9169 175.177 23.0535 175.203 23.1809 175.255C23.3083 175.307 23.4237 175.385 23.52 175.484L13.5363 176.481Z" fill="#9B9E99"/>
<path d="M22.7035 177.538H14.6643C14.0413 177.538 13.5363 178.045 13.5363 178.671V178.764C13.5363 179.389 14.0413 179.897 14.6643 179.897H22.7035C23.3265 179.897 23.8315 179.389 23.8315 178.764V178.671C23.8315 178.045 23.3265 177.538 22.7035 177.538Z" fill="#C8C8C8"/>
<path d="M18.6881 181.672C19.6644 181.672 20.4559 180.877 20.4559 179.897C20.4559 178.916 19.6644 178.121 18.6881 178.121C17.7118 178.121 16.9203 178.916 16.9203 179.897C16.9203 180.877 17.7118 181.672 18.6881 181.672Z" fill="#C8C8C8"/>
<path d="M13.5363 178.848V178.586C13.5385 178.309 13.6491 178.044 13.8444 177.848C14.0397 177.651 14.3039 177.54 14.5801 177.538H22.7792C22.9166 177.537 23.0527 177.564 23.1799 177.616C23.307 177.668 23.4226 177.745 23.52 177.842L13.5363 178.848Z" fill="#9B9E99"/>
<path d="M18.7049 169.676C23.7911 169.676 27.9143 165.536 27.9143 160.428C27.9143 155.321 23.7911 151.18 18.7049 151.18C13.6188 151.18 9.49561 155.321 9.49561 160.428C9.49561 165.536 13.6188 169.676 18.7049 169.676Z" fill="#FAE67F"/>
<path d="M18.7049 165.086C22.759 165.086 26.0454 162.077 26.0454 158.366C26.0454 154.654 22.759 151.645 18.7049 151.645C14.6508 151.645 11.3644 154.654 11.3644 158.366C11.3644 162.077 14.6508 165.086 18.7049 165.086Z" fill="url(#paint0_linear_14_174)"/>
<path d="M21.466 172.813H20.801V169.609C20.8033 169.199 20.9043 168.796 21.0956 168.434L22.2405 166.346C22.2943 166.25 22.3227 166.143 22.3227 166.033C22.3227 165.923 22.2943 165.816 22.2405 165.72C22.1835 165.626 22.103 165.549 22.0071 165.495C21.9111 165.442 21.803 165.415 21.6933 165.416H21.3566C21.3319 165.99 21.1255 166.541 20.7673 166.988C20.6781 167.101 20.5638 167.191 20.4337 167.251C20.3036 167.311 20.1613 167.34 20.0181 167.335C19.8709 167.322 19.7288 167.275 19.603 167.197C19.4773 167.12 19.3715 167.013 19.2942 166.887C19.196 166.67 19.1501 166.433 19.1604 166.195C19.1706 165.957 19.2366 165.725 19.3531 165.517C19.49 165.286 19.6848 165.095 19.9182 164.963C20.1515 164.831 20.4153 164.763 20.6832 164.765C20.6832 164.672 20.6832 164.579 20.6832 164.486C20.5737 163.903 20.3549 163.641 20.2538 163.641C20.1528 163.641 19.8077 163.894 19.6141 164.714C19.5667 164.905 19.459 165.074 19.3071 165.198C19.1553 165.321 18.9675 165.392 18.7723 165.399C18.5766 165.393 18.3882 165.323 18.2361 165.2C18.0839 165.076 17.9765 164.905 17.9304 164.714C17.7368 163.869 17.4169 163.641 17.2907 163.641C17.1812 163.641 16.9708 163.869 16.8613 164.486C16.8532 164.579 16.8532 164.672 16.8613 164.765C17.1289 164.764 17.392 164.833 17.6251 164.965C17.8582 165.097 18.0533 165.287 18.1914 165.517C18.3065 165.726 18.3711 165.958 18.3799 166.196C18.3887 166.434 18.3414 166.671 18.2419 166.887C18.1665 167.013 18.0623 167.119 17.9379 167.197C17.8135 167.275 17.6725 167.322 17.5264 167.335C17.3832 167.34 17.2406 167.312 17.1104 167.252C16.9802 167.192 16.866 167.101 16.7772 166.988C16.416 166.542 16.2066 165.991 16.1795 165.416H15.8344C15.726 165.415 15.6192 165.443 15.5248 165.496C15.4303 165.55 15.3513 165.627 15.2956 165.72C15.2401 165.815 15.2108 165.923 15.2108 166.033C15.2108 166.143 15.2401 166.251 15.2956 166.346L16.4404 168.434C16.6318 168.796 16.7329 169.199 16.7351 169.609V172.813H16.0617V169.609C16.0608 169.314 15.9886 169.024 15.8512 168.763L14.538 166.675C14.4241 166.479 14.3641 166.256 14.3641 166.029C14.3641 165.802 14.4241 165.578 14.538 165.382C14.6513 165.185 14.8146 165.022 15.0113 164.909C15.208 164.796 15.431 164.738 15.6576 164.74H16.0112C16.0197 164.612 16.0366 164.485 16.0617 164.359C16.2974 163.15 16.9034 163.007 17.1392 162.998C17.72 162.998 18.1998 163.59 18.4271 164.596C18.4446 164.64 18.4748 164.678 18.5138 164.704C18.5528 164.731 18.5989 164.745 18.646 164.745C18.6931 164.745 18.7391 164.731 18.7782 164.704C18.8172 164.678 18.8474 164.64 18.8648 164.596C19.1005 163.59 19.5804 162.998 20.1528 162.998C20.4054 162.998 20.9946 163.15 21.2387 164.359C21.2387 164.486 21.2808 164.613 21.2892 164.74H21.6344C21.861 164.738 22.084 164.796 22.2807 164.909C22.4774 165.022 22.6407 165.185 22.754 165.382C22.8654 165.579 22.924 165.802 22.924 166.029C22.924 166.255 22.8654 166.478 22.754 166.675L21.6091 168.763C21.4637 169.021 21.3882 169.313 21.3903 169.609L21.466 172.813ZM20.6242 165.441C20.2959 165.441 20.0013 165.577 19.9087 165.788C19.8422 165.898 19.7996 166.022 19.7837 166.15C19.7677 166.278 19.7787 166.408 19.8161 166.532C19.8359 166.568 19.8652 166.598 19.9008 166.619C19.9364 166.64 19.9769 166.651 20.0181 166.65C20.0181 166.65 20.1192 166.65 20.2118 166.523C20.4653 166.215 20.6234 165.839 20.6663 165.441H20.6242ZM16.6593 165.441C16.6901 165.834 16.8333 166.21 17.0718 166.523C17.1644 166.633 17.2318 166.659 17.257 166.65C17.2986 166.653 17.3399 166.643 17.3759 166.622C17.4119 166.601 17.4408 166.569 17.459 166.532C17.5028 166.41 17.518 166.279 17.5034 166.15C17.4888 166.021 17.4449 165.897 17.3749 165.788C17.3244 165.577 17.0213 165.484 16.7014 165.441H16.6593Z" fill="#FA8C51"/>
<path d="M13.1995 168.62C13.1995 166.929 15.6659 165.551 18.7048 165.551C21.7438 165.551 24.2019 166.929 24.2019 168.62C24.2019 170.31 21.7438 171.68 18.7048 171.68C15.6659 171.68 13.1995 170.31 13.1995 168.62Z" fill="url(#paint1_linear_14_174)"/>
<path d="M18.7301 142.659H18.6796C18.3728 142.659 18.124 142.909 18.124 143.217V146.734C18.124 147.042 18.3728 147.292 18.6796 147.292H18.7301C19.037 147.292 19.2857 147.042 19.2857 146.734V143.217C19.2857 142.909 19.037 142.659 18.7301 142.659Z" fill="#FAE67F"/>
<path d="M11.6758 149.177C11.6122 149.213 11.5422 149.236 11.4697 149.245C11.3972 149.254 11.3237 149.249 11.2533 149.229C11.183 149.209 11.1171 149.176 11.0596 149.131C11.0021 149.086 10.954 149.029 10.9181 148.966L9.16721 145.931C9.09343 145.802 9.07324 145.649 9.11105 145.505C9.14886 145.361 9.24163 145.237 9.36923 145.162C9.49833 145.09 9.65011 145.071 9.79286 145.108C9.9356 145.146 10.0583 145.238 10.1353 145.364L11.8778 148.408C11.9154 148.471 11.9401 148.542 11.9503 148.615C11.9606 148.689 11.9561 148.763 11.9373 148.835C11.9185 148.906 11.8857 148.974 11.8408 149.032C11.7959 149.091 11.7398 149.14 11.6758 149.177Z" fill="#FAE67F"/>
<path d="M25.7865 173.693L25.7427 173.718C25.4769 173.872 25.3858 174.214 25.5391 174.481L27.289 177.527C27.4423 177.794 27.7821 177.885 28.0479 177.731L28.0916 177.706C28.3574 177.552 28.4486 177.211 28.2953 176.944L26.5454 173.898C26.392 173.631 26.0522 173.539 25.7865 173.693Z" fill="#FAE67F"/>
<path d="M2.50515 152.039L2.47995 152.083C2.32686 152.35 2.41833 152.691 2.68426 152.845L5.71914 154.599C5.98506 154.753 6.32473 154.661 6.47783 154.394L6.50303 154.35C6.65613 154.083 6.56465 153.742 6.29873 153.588L3.26385 151.834C2.99793 151.68 2.65825 151.772 2.50515 152.039Z" fill="#FAE67F"/>
<path d="M30.9045 168.497L30.8793 168.541C30.726 168.807 30.8172 169.149 31.0829 169.303L34.1163 171.06C34.3821 171.214 34.7218 171.122 34.8752 170.855L34.9004 170.811C35.0537 170.545 34.9626 170.203 34.6968 170.049L31.6634 168.292C31.3976 168.138 31.0579 168.23 30.9045 168.497Z" fill="#FAE67F"/>
<path d="M0 161.426L0 161.477C0 161.785 0.24875 162.035 0.555594 162.035H4.0575C4.36435 162.035 4.61307 161.785 4.61307 161.477V161.426C4.61307 161.118 4.36435 160.868 4.0575 160.868H0.555594C0.24875 160.868 0 161.118 0 161.426Z" fill="#FAE67F"/>
<path d="M32.7968 161.418V161.468C32.7968 161.776 33.0455 162.026 33.3523 162.026H36.8543C37.1611 162.026 37.4098 161.776 37.4098 161.468V161.418C37.4098 161.109 37.1611 160.86 36.8543 160.86H33.3523C33.0455 160.86 32.7968 161.109 32.7968 161.418Z" fill="#FAE67F"/>
<path d="M2.50232 170.801L2.52756 170.845C2.68089 171.112 3.02064 171.203 3.28643 171.049L6.31978 169.292C6.58557 169.138 6.67675 168.797 6.52342 168.53L6.49819 168.486C6.34486 168.219 6.0051 168.128 5.73931 168.282L2.70596 170.039C2.44017 170.193 2.34899 170.534 2.50232 170.801Z" fill="#FAE67F"/>
<path d="M30.8977 154.33L30.9229 154.374C31.076 154.641 31.4156 154.733 31.6816 154.579L34.7164 152.824C34.9824 152.671 35.0738 152.33 34.9208 152.063L34.8956 152.019C34.7425 151.752 34.4028 151.66 34.1369 151.813L31.102 153.568C30.8361 153.722 30.7446 154.063 30.8977 154.33Z" fill="#FAE67F"/>
<path d="M11.6338 173.683C11.6978 173.72 11.7539 173.769 11.7988 173.828C11.8437 173.887 11.8765 173.954 11.8953 174.025C11.9141 174.097 11.9185 174.172 11.9083 174.245C11.8981 174.318 11.8735 174.389 11.8358 174.453L10.0933 177.496C10.0163 177.622 9.89357 177.714 9.75083 177.752C9.60808 177.79 9.45635 177.771 9.32725 177.699C9.19965 177.623 9.10688 177.5 9.06907 177.356C9.03126 177.212 9.0514 177.059 9.12518 176.929L10.8761 173.895C10.912 173.831 10.9601 173.775 11.0176 173.729C11.0752 173.684 11.141 173.651 11.2113 173.631C11.2817 173.612 11.3552 173.606 11.4277 173.615C11.5002 173.624 11.5702 173.647 11.6338 173.683Z" fill="#FAE67F"/>
<path d="M25.7358 149.198L25.7795 149.224C26.0453 149.378 26.385 149.286 26.5384 149.019L28.2883 145.973C28.4416 145.706 28.3504 145.365 28.0846 145.211L28.0409 145.186C27.7751 145.032 27.4353 145.123 27.282 145.39L25.5321 148.436C25.3788 148.703 25.47 149.044 25.7358 149.198Z" fill="#FAE67F"/>
<g style="mix-blend-mode:multiply">
<path d="M204.533 213.752C199.482 213.6 183.934 214.505 184.422 215.781C184.911 217.058 190.694 219.864 197.58 218.892C206.73 217.616 215.384 219.281 216.613 220.278C217.842 221.276 220.418 226.762 221.664 226.686C222.91 226.61 223.861 220.295 223.861 220.295C223.861 220.295 221.706 214.268 204.533 213.752Z" fill="#A6C6D7"/>
</g>
<path d="M193.842 80.155C193.842 80.155 194.373 86.1316 194.364 87.7631C194.356 89.3946 194.524 91.8207 198.885 89.1495C201.483 87.5538 203.358 85.0031 204.112 82.0402C204.112 82.0402 201.284 72.3272 201.259 70.9916C201.233 69.6559 193.842 80.155 193.842 80.155Z" fill="#FBDABD"/>
<path d="M191.14 62.3099C191.14 62.3099 186.628 72.9697 192.537 80.2818C194.221 82.4121 202.201 80.3495 203.414 78.4305C205.139 75.6916 209.576 71.4142 210.594 68.557C211.301 66.5789 210.283 63.8654 210.283 63.8654C210.283 63.8654 196.233 54.3046 191.14 62.3099Z" fill="#FFE1CD"/>
<path d="M200.164 53.4C189.128 50.3737 188.556 62.2761 190.702 63.5441C198.321 68.0582 201.713 59.1822 205.964 62.4452C207.825 63.8823 204.659 64.3641 205.569 66.6719C206.115 68.0102 206.253 69.4814 205.964 70.8986C205.964 70.8986 208.826 68.4048 208.81 69.9941C208.81 71.0085 206.503 73.5529 205.931 73.3331C205.623 74.4575 205.237 75.5591 204.777 76.63C204.777 76.63 209.584 72.6822 210.864 69.5122C214.584 60.2896 208.237 55.5979 200.164 53.4Z" fill="#858D80"/>
<path d="M205.569 81.9471C209.951 82.7234 214.101 84.4864 217.707 87.1037C217.707 87.1037 216.293 99.1075 214.003 106.885C211.007 117.088 208.86 119.472 207.698 128.348C207.698 128.348 189.507 130.495 185.382 128.534C185.382 128.534 186.881 93.8749 184.591 88.5492C184.591 88.5492 189.364 84.6692 191.889 83.79C192.798 83.4688 193.127 89.1072 195.905 88.5492C200.93 87.5517 205.569 81.9471 205.569 81.9471Z" fill="#EBFFFD"/>
<path d="M194.044 82.4797L195.273 87.6363L191.308 91.4826L191.435 83.79L194.044 82.4797Z" fill="#D1F0FF"/>
<path d="M195.273 87.6363L203.548 79.8761L205.569 81.9472L200.476 90.8655L195.273 87.6363Z" fill="#D1F0FF"/>
<path d="M195.265 87.6278L197.79 89.2171C197.112 89.5941 196.47 90.0327 195.871 90.5274C199.432 102.878 188.295 110.773 194.979 121.805L193.834 126.158L189.263 125.584C188.305 122.752 187.938 119.753 188.186 116.772C188.433 113.792 189.29 110.895 190.702 108.263C195.997 98.0086 194.457 91.863 194.364 90.5612L193.253 89.5721L195.265 87.6278Z" fill="#45769F"/>
<path d="M184.591 88.5493C184.591 88.5493 179.776 101.229 175.331 106.885C173.218 109.607 173.647 98.93 175.786 91.1529C175.786 91.1529 171.577 91.4319 171.24 92.2857C168.714 99.1245 168.016 114.831 172.62 114.831C177.435 114.831 186.089 103.402 186.089 103.402C186.089 103.402 186.35 93.1817 184.591 88.5493Z" fill="#E4F0F4"/>
<path d="M185.382 131.087C185.382 131.087 180.516 170.818 192.596 208.57C192.596 208.57 198.489 210.143 198.178 208.57C191.813 179.626 192.42 150.732 196.41 142.761L197.681 131.23L185.382 131.087Z" fill="#433C44"/>
<path d="M193.926 131.23C192.958 166.65 202.782 189.457 213.162 211.352C213.162 211.352 218.785 212.349 218.212 210.878C206.267 180.657 207.69 131.23 207.69 131.23H193.926Z" fill="#535054"/>
<path d="M192.596 208.57C192.529 207.945 198.178 208.993 198.178 208.993C198.178 208.993 199.684 212.535 198.826 213.533C197.967 214.53 190.526 218.994 185.879 216.627C181.232 214.26 188.169 214.936 189.381 214.091C190.593 213.245 192.807 210.498 192.596 208.57Z" fill="#433C44"/>
<path d="M213.178 211.394C213.178 211.394 212.657 215.502 213.322 216.745C213.987 217.988 222.337 225.46 225.772 224.835C227.195 224.581 225.553 220.997 224.577 219.568C222.236 216.187 218.221 210.988 218.221 210.988L213.178 211.394Z" fill="#433C44"/>
<path d="M185.382 128.475C185.382 128.475 184.81 131.492 185.382 131.704C185.955 131.915 207.698 131.704 207.698 131.704V128.322C207.698 128.322 187.857 129.176 185.382 128.475Z" fill="#433C44"/>
<path d="M190.475 128.568C190.475 128.694 190.029 132 190.669 132H195.72C195.72 132 196.081 128.5 195.568 128.508L190.475 128.568Z" fill="#B1B2B9"/>
<path d="M214.635 84.9481C223.735 89.1748 240.596 107.941 216.42 136.818L213.271 132.549C213.271 132.549 231.513 109.903 215.047 97.6536C211.655 95.126 210.35 82.9869 214.635 84.9481Z" fill="#EBFFFD"/>
<path d="M217.648 135.009C217.648 135.009 214.879 131.983 212.791 132.16C210.704 132.338 208.069 134.891 208.069 134.891C208.069 134.891 207.176 137.765 211.183 134.975C212.076 134.358 210.089 139.151 207.118 137.351C205.686 136.505 205.745 141.324 208.7 140.69C208.7 140.69 207.909 143.04 210.619 142.279C210.619 142.279 209.432 144.139 211.924 143.555C211.924 143.555 211.082 145.246 213.414 144.308C215.746 143.37 216.377 140.174 216.377 140.174L217.648 135.009Z" fill="#FFE1CD"/>
<path d="M175.339 92.1927C175.339 92.1927 178.774 84.6269 177.452 80.5608C176.476 77.5429 177.191 75.3451 175.946 75.6325C174.346 75.996 173.892 80.0029 174.127 80.5608C174.363 81.1187 169.775 79.7831 169.464 81.5329C169.152 83.2828 169.683 83.2997 169.683 83.2997C169.683 83.2997 167.763 84.2042 169.203 85.413C169.203 85.413 167.317 86.5458 168.9 88.059C168.746 88.2982 168.648 88.5691 168.613 88.8515C168.578 89.1339 168.607 89.4207 168.698 89.6903C168.788 89.96 168.938 90.2057 169.136 90.4092C169.335 90.6126 169.576 90.7686 169.843 90.8655C169.843 90.8655 171.585 91.0515 171.265 92.0828C170.945 93.1141 175.339 92.1927 175.339 92.1927Z" fill="#FBDABD"/>
<path d="M178.774 66.2492C178.774 66.2492 182.368 66.6888 182.874 66.731C185.079 66.9001 183.53 73.8234 182.57 74.9055C181.611 75.9875 176.846 74.9055 176.846 74.9055C176.846 74.9055 176.88 67.9399 178.774 66.2492Z" fill="#E48C3F"/>
<path d="M175.272 75.3282C175.272 75.3282 176.425 86.2246 174.885 88.8536C174.043 90.2399 169.203 90.1469 169.203 90.1469C169.203 90.1469 171.661 81.254 171.055 80.5608C170.448 79.8676 168.529 78.2023 168.529 78.2023L175.272 75.3282Z" fill="#E48C3F"/>
<path d="M171.585 76.8836C171.585 76.8836 173.353 78.3122 173.521 79.986C173.597 80.7806 173.083 89.8257 171.77 89.9779C170.917 90.0712 170.06 90.1163 169.203 90.1131C169.203 90.1131 171.661 81.2202 171.055 80.527C170.448 79.8338 168.529 78.1685 168.529 78.1685L171.585 76.8836Z" fill="#E4692F"/>
<path d="M158.773 48.328C156.584 45.6652 147.829 48.6746 144.193 58.21C140.101 68.9628 144.647 84.5931 152.459 82.9193C160.812 80.9689 168.98 78.2932 176.871 74.9224C176.871 74.9224 180.129 68.9459 178.799 66.2746C178.774 66.2492 170.087 62.0986 158.773 48.328Z" fill="#E3FFFF"/>
<path d="M159.337 52.1912C157.527 49.2579 147.812 48.6492 144.184 58.1847C140.093 68.9374 144.639 84.5677 152.451 82.8939C160.804 80.9435 168.972 78.2678 176.863 74.897C177.294 74.0723 177.681 73.2258 178.025 72.361C170.937 71.4818 168.218 66.5958 159.337 52.1912Z" fill="#B4E7FF"/>
<path d="M158.343 47.8293C156.382 44.9974 147.812 48.6746 144.193 58.1847C140.101 68.9374 144.647 84.5677 152.459 82.894C160.591 81.1526 167.553 61.1434 158.343 47.8293Z" fill="#3C50B7"/>
<path d="M149.311 60.8137C152.552 55.1922 157.342 51.9968 160.591 51.515C159.749 49.7482 158.907 47.7785 157.039 46.874C154.244 45.5384 146.28 49.5538 142.661 59.0892C139.041 68.6246 143.755 81.1272 150.001 82.8094C145.944 78.2108 145.329 67.7708 149.311 60.8137Z" fill="#4C7BD8"/>
<path d="M156.954 62.5466C154.816 64.3472 154.505 69.1488 156.306 70.4252C157.274 71.1099 159.892 71.0846 161.525 70.9747C162.306 68.5548 162.709 66.0285 162.721 63.485C160.027 62.851 157.889 61.752 156.954 62.5466Z" fill="#D24216"/>
<path d="M159.657 66.6634C159.539 68.9966 158.234 70.7549 156.82 70.6788C155.406 70.6027 154.623 68.5401 154.741 66.2069C154.858 63.8738 156.508 62.1916 157.914 62.2676C159.32 62.3437 159.775 64.3303 159.657 66.6634Z" fill="#E4692F"/>
<path d="M172.814 89.4453C174.085 89.606 175.104 87.7124 173.235 87.0953C175.129 87.0361 175.314 84.5593 173.774 84.4663C175.314 84.2888 176.207 82.8179 173.858 82.0571C173.285 81.8626 169.775 79.7831 169.464 81.533C169.152 83.2828 169.683 83.2997 169.683 83.2997C169.683 83.2997 167.763 84.2042 169.203 85.4131C169.203 85.4131 167.317 86.5458 168.9 88.059C168.746 88.2982 168.648 88.5691 168.613 88.8515C168.578 89.1339 168.607 89.4207 168.698 89.6903C168.788 89.96 168.938 90.2057 169.136 90.4092C169.335 90.6126 169.576 90.7686 169.843 90.8655C170.897 91.1568 172.001 91.223 173.083 91.0599C173.908 90.8993 173.765 89.8849 172.814 89.4453Z" fill="#FFE1CD"/>
<path d="M147.926 38.8366L147.86 38.8503C147.469 38.9317 147.217 39.3164 147.298 39.7096L148.223 44.1961C148.304 44.5893 148.687 44.842 149.079 44.7606L149.145 44.7469C149.536 44.6655 149.788 44.2807 149.707 43.8876L148.782 39.401C148.701 39.0079 148.318 38.7552 147.926 38.8366Z" fill="#D1F0FF"/>
<path d="M136.624 44.5107L136.574 44.5557C136.275 44.8229 136.249 45.2825 136.515 45.5822L139.551 49.002C139.818 49.3017 140.275 49.328 140.574 49.0608L140.624 49.0158C140.922 48.7486 140.949 48.2891 140.682 47.9894L137.646 44.5695C137.38 44.2699 136.922 44.2435 136.624 44.5107Z" fill="#D1F0FF"/>
<path d="M129.72 55.0939L129.699 55.1581C129.573 55.5393 129.779 55.9505 130.158 56.0767L134.49 57.516C134.87 57.6422 135.279 57.4354 135.405 57.0543L135.426 56.99C135.552 56.6089 135.346 56.1976 134.966 56.0715L130.635 54.6321C130.255 54.506 129.845 54.7127 129.72 55.0939Z" fill="#D1F0FF"/>
<path d="M128.928 67.7598L128.942 67.826C129.022 68.2193 129.405 68.4726 129.797 68.3917L134.266 67.4689C134.657 67.388 134.91 67.0036 134.829 66.6103L134.816 66.5441C134.735 66.1508 134.352 65.8976 133.961 65.9784L129.492 66.9013C129.1 66.9822 128.848 67.3665 128.928 67.7598Z" fill="#D1F0FF"/>
<path d="M134.583 79.1158L134.628 79.1664C134.893 79.4663 135.351 79.4931 135.65 79.2263L139.058 76.1807C139.357 75.9139 139.384 75.4543 139.118 75.1544L139.073 75.1038C138.807 74.8039 138.35 74.7771 138.051 75.044L134.642 78.0895C134.344 78.3564 134.317 78.8159 134.583 79.1158Z" fill="#D1F0FF"/>
<path d="M285.532 25.1319C283.301 19.9331 278.191 17.135 274.125 18.9018C270.059 20.6685 268.552 26.2985 270.758 31.5058C272.963 36.7131 278.098 39.4942 282.164 37.7359C286.23 35.9776 287.762 30.3307 285.532 25.1319ZM281.323 35.7747C278.292 37.085 274.411 34.8026 272.644 30.7027C270.876 26.6028 271.911 22.1901 274.942 20.8799C277.972 19.5696 281.853 21.8435 283.621 25.9519C285.389 30.0602 284.378 34.4644 281.348 35.7747H281.323Z" fill="#FACA51"/>
<path d="M295.044 37.7359C299.118 39.4942 304.228 36.7046 306.459 31.5058C308.69 26.3069 307.191 20.6601 303.092 18.9018C298.992 17.1435 293.916 19.9331 291.685 25.1319C289.454 30.3307 290.978 35.9776 295.044 37.7359ZM293.596 25.9434C295.355 21.8266 299.245 19.5527 302.275 20.8714C305.306 22.1901 306.333 26.5774 304.573 30.6942C302.814 34.811 298.916 37.0935 295.886 35.7663C292.855 34.4391 291.828 30.0602 293.596 25.9434Z" fill="#FAE67F"/>
<path d="M290.313 44.7691V44.7015C290.32 43.9699 290.533 43.2552 290.928 42.6403C291.323 42.0254 291.883 41.5355 292.544 41.2272C301.804 36.7046 301.804 16.2981 301.804 15.3852C301.804 14.4722 295.911 13.517 288.629 13.517C281.348 13.517 275.455 14.3623 275.455 15.3852C275.455 16.408 275.455 36.7046 284.715 41.2272C285.375 41.5371 285.934 42.0275 286.328 42.642C286.723 43.2565 286.937 43.9704 286.946 44.7015V44.7691C286.944 45.6079 286.668 46.4228 286.16 47.0887C285.652 47.7545 284.94 48.2345 284.134 48.4548C282.821 48.8268 281.996 49.3593 281.996 49.9511C281.996 51.0754 284.968 51.9799 288.638 51.9799C292.308 51.9799 295.28 51.0754 295.28 49.9511C295.28 49.3593 294.438 48.8268 293.142 48.4548C292.332 48.2376 291.617 47.759 291.106 47.0929C290.595 46.4267 290.316 45.6101 290.313 44.7691Z" fill="#FAF8AE"/>
<path d="M290.313 44.7691V44.7015C290.32 43.9699 290.533 43.2552 290.928 42.6403C291.323 42.0254 291.883 41.5354 292.544 41.2272C284.252 33.4839 285.809 13.5508 284.572 13.6099C279.277 13.8466 275.447 14.5483 275.447 15.3852C275.447 16.222 275.447 36.7046 284.707 41.2272C285.366 41.5371 285.925 42.0275 286.32 42.642C286.714 43.2565 286.928 43.9704 286.937 44.7015V44.7691C286.935 45.6079 286.659 46.4228 286.151 47.0887C285.643 47.7545 284.932 48.2345 284.126 48.4548C282.813 48.8268 281.988 49.3593 281.988 49.9511C281.988 51.0754 284.959 51.9799 288.629 51.9799C292.3 51.9799 295.271 51.0754 295.271 49.9511C295.271 49.3593 294.429 48.8268 293.133 48.4548C292.326 48.236 291.612 47.7567 291.103 47.0908C290.593 46.4248 290.316 45.609 290.313 44.7691Z" fill="#FAE67F"/>
<path d="M294.867 49.2664C294.594 49.0402 294.283 48.8629 293.95 48.7422C294.232 48.9559 294.54 49.132 294.867 49.2664Z" fill="#FACA51"/>
<path d="M283.999 50.9486C283.999 50.323 284.841 49.7651 286.138 49.3678C286.963 49.1104 287.682 48.5916 288.189 47.8891C288.696 47.1866 288.963 46.3382 288.949 45.4708V45.3947C288.949 44.6353 288.741 43.8907 288.347 43.2421C287.954 42.5936 287.39 42.0662 286.719 41.7175C277.459 36.9413 277.459 15.4612 277.459 14.3792C276.162 14.6666 275.405 15.0132 275.405 15.3852C275.405 16.2981 275.405 36.7046 284.664 41.2272C285.324 41.5371 285.883 42.0275 286.278 42.642C286.672 43.2566 286.886 43.9704 286.895 44.7015V44.7691C286.893 45.6079 286.617 46.4228 286.109 47.0887C285.601 47.7545 284.89 48.2345 284.084 48.4548C282.77 48.8268 281.945 49.3593 281.945 49.9511C281.945 50.5428 282.787 51.1007 284.202 51.4727C284.077 51.3262 284.005 51.1413 283.999 50.9486Z" fill="#FACA51"/>
<path d="M297.258 16.8899C297.258 16.8899 299.741 16.7292 300.061 17.3717C300.381 18.0142 299.169 33.7713 293.95 38.2685C293.95 38.2685 297.628 30.7534 297.258 16.8899Z" fill="white"/>
<path d="M317.965 30.0442L317.983 29.9789C318.086 29.591 317.857 29.1924 317.471 29.0886L313.064 27.9035C312.677 27.7997 312.28 28.0299 312.177 28.4177L312.16 28.483C312.056 28.8709 312.285 29.2695 312.672 29.3733L317.079 30.5584C317.465 30.6622 317.862 30.432 317.965 30.0442Z" fill="#FAF8AE"/>
<path d="M317.053 16.8508L317.036 16.7852C316.932 16.3957 316.533 16.1646 316.145 16.269L311.72 17.4603C311.332 17.5647 311.102 17.965 311.206 18.3545L311.223 18.4201C311.327 18.8095 311.726 19.0406 312.114 18.9363L316.539 17.745C316.927 17.6406 317.157 17.2403 317.053 16.8508Z" fill="#FAF8AE"/>
<path d="M290.473 5.13196L290.538 5.11437C290.926 5.00998 291.156 4.60963 291.052 4.22017L289.866 -0.224113C289.762 -0.613574 289.364 -0.844669 288.976 -0.740277L288.91 -0.722693C288.523 -0.618302 288.292 -0.217954 288.396 0.171507L289.583 4.61579C289.687 5.00525 290.085 5.23635 290.473 5.13196Z" fill="#FAF8AE"/>
<path d="M299.148 5.87652L299.213 5.89402C299.599 5.99794 299.996 5.76779 300.099 5.37996L301.28 0.954346C301.384 0.566521 301.154 0.167884 300.768 0.0639668L300.703 0.0464632C300.317 -0.0574543 299.92 0.172699 299.817 0.560524L298.636 4.98614C298.532 5.37397 298.761 5.7726 299.148 5.87652Z" fill="#FAF8AE"/>
<path d="M307.386 10.6121L307.433 10.66C307.716 10.9439 308.174 10.9439 308.457 10.66L311.683 7.42017C311.966 7.13627 311.966 6.67596 311.683 6.39205L311.636 6.34423C311.353 6.06032 310.895 6.06032 310.612 6.34423L307.386 9.58402C307.103 9.86792 307.103 10.3282 307.386 10.6121Z" fill="#FAF8AE"/>
<g style="mix-blend-mode:multiply">
<path d="M258.064 189.069C258.064 189.069 270.287 188.451 275.438 188.156C280.59 187.86 303.218 188.156 303.369 189.922C303.521 191.689 301.61 193.16 298.832 193.016C296.054 192.873 272.324 191.393 267.424 196.212C267.424 196.212 269.47 204.665 261.195 217.928C259.722 220.295 260.9 220.464 258.998 223.525C258.468 224.37 255.05 227.751 254.461 226.686C253.871 225.621 254.545 221.775 256.658 218.596C260.395 212.975 259.941 208.866 258.527 203.887C257.213 199.255 254.259 202.053 254.259 202.053L255.26 196.541L258.064 189.069Z" fill="#A6C6D7"/>
</g>
<path d="M283.621 119.463C283.621 119.463 296.458 118.339 301.08 126.361C306.375 135.55 292.3 160.31 286.011 171.519L282.097 169.6C282.097 169.6 293.663 145.517 290.204 136.412C288.343 131.518 272.374 137.993 272.374 137.993L276.415 124.797L283.621 119.463Z" fill="#433C44"/>
<path d="M275.228 58.9793C280.481 61.9295 280.624 76.2918 276.474 74.6434C274.319 73.7981 267.02 80.5608 264.882 79.3435C261.885 77.6528 261.254 74.4067 259.831 74.7111C256.902 75.362 254.494 69.639 256.969 69.0388C259.444 68.4386 250.959 45.3524 275.228 58.9793Z" fill="#FFD6AD"/>
<path d="M264.882 79.3435C264.882 79.3435 262.643 83.976 262.735 84.2634C262.828 84.5508 267.222 91.7362 269.697 90.8739C272.172 90.0117 274.655 79.2843 275.994 77.7543C276.931 76.6066 277.73 75.3526 278.376 74.0179C278.376 74.0179 269.032 69.4615 264.882 79.3435Z" fill="#FFC592"/>
<path d="M259.781 85.2271L250.866 93.4607C250.866 93.4607 263.123 118.593 262.929 131.23C262.929 131.23 280.834 123.842 283.621 119.463C283.621 119.463 281.693 86.3514 280.834 86.3514L271.322 85.1679L259.781 85.2271Z" fill="#EBFFFD"/>
<path d="M280.834 86.3683C280.834 86.3683 302.081 95.0584 304.228 56.9843L308.513 56.2657C308.513 56.2657 308.774 101.813 282.122 97.2224L280.834 86.3683Z" fill="#E4F0F4"/>
<path d="M250.866 93.4607L255.673 104.34C255.673 104.34 228.971 142.592 228.971 85.1679L232.835 81.9556C232.835 81.9556 236.412 128.373 250.866 93.4607Z" fill="#E4F0F4"/>
<path d="M228.971 85.1679C228.971 85.1679 224.071 81.9556 223.827 79.9606C223.305 75.7847 223.575 75.176 228.306 72.9612C231.168 71.6171 232.515 72.8851 232.692 74.9731C232.692 74.9731 238.416 72.1412 232.835 81.9556L228.971 85.1679Z" fill="#FFD6AD"/>
<path d="M304.203 56.9674C304.203 56.9674 301.24 56.7814 301.147 55.2767C301.113 55.0437 301.125 54.8063 301.184 54.5782C301.242 54.3501 301.345 54.1361 301.487 53.9486C301.629 53.7612 301.807 53.6041 302.01 53.4867C302.213 53.3692 302.438 53.2938 302.671 53.2648C302.309 52.7491 300.575 53.6452 301.526 50.2892C302.368 47.3136 309.826 44.0506 309.372 51.9799C309.184 53.4338 308.903 54.8739 308.53 56.2911L304.203 56.9674Z" fill="#FFD6AD"/>
<path d="M262.954 131.23C262.862 131.678 263.434 169.507 252.078 199.001C252.078 199.001 255.227 200.633 256.851 199.001C256.851 199.001 282.105 151.662 278.401 123.352L262.954 131.23Z" fill="#535054"/>
<path d="M252.053 199.001C250.689 200.596 249.522 202.35 248.576 204.225C247.272 206.981 246.893 214.437 248.719 214.725C250.546 215.012 255.824 207.531 256.826 204.8C257.769 202.222 256.826 199.001 256.826 199.001H252.053Z" fill="#433C44"/>
<path d="M282.097 169.6C282.097 169.6 279.336 171.232 279.429 172.187C279.521 173.142 284.008 182.627 285.624 182.914C287.24 183.202 292.78 184.605 292.872 183.202C292.965 181.799 289.16 179.905 288.108 178.417C287.055 176.929 286.011 171.519 286.011 171.519L282.097 169.6Z" fill="#433C44"/>
<path d="M262.626 127.79L262.954 132.017C262.954 132.017 281.836 123.081 283.646 119.489V116.107C283.646 116.107 271.297 124.535 262.626 127.79Z" fill="#433C44"/>
<path d="M274.176 121.796C274.176 121.796 275.523 125.254 276.415 124.797C277.678 124.185 278.877 123.446 279.993 122.591C280.405 122.109 279.243 119.041 278.587 119.151C277.93 119.26 274.63 121.653 274.176 121.796Z" fill="#B1B2B9"/>
<path d="M259.663 65.015C260.589 67.3904 258.232 68.0329 258.729 69.5376C258.729 69.5376 257.963 68.1089 257.045 69.0388C256.127 69.9687 255.774 75.1675 260.311 74.728C260.311 74.728 262.483 77.264 262.895 77.6697C262.895 77.6697 263.561 78.4474 261.986 78.5911C260.412 78.7348 257.777 76.2918 256.018 73.5191C254.259 70.7464 250.824 64.7529 255.403 62.4536C255.403 62.4536 251.396 60.0106 254.907 57.6436C258.417 55.2767 263.864 52.69 264.486 48.235C265.222 48.5288 265.847 49.048 266.271 49.7189C266.696 50.3897 266.899 51.1779 266.852 51.9714C266.852 51.9714 273.738 51.7263 272.879 45.699C272.879 45.699 279.083 48.0406 275.649 55.4204C276.381 55.9842 277.241 56.3566 278.152 56.5041C279.063 56.6517 279.996 56.5698 280.868 56.2657C276.718 63.1637 263.628 55.3359 260.665 61.8365C260.116 62.1281 259.703 62.6249 259.515 63.2197C259.328 63.8144 259.381 64.4592 259.663 65.015Z" fill="#674D4E"/>
<path d="M263.207 82.9616L271.322 85.1679L265.455 90.95L259.781 85.2271L263.207 82.9616Z" fill="#D1F0FF"/>
<path d="M274.218 81.9556L279.395 87.2136L271.322 85.1679L274.218 81.9556Z" fill="#D1F0FF"/>
<path d="M271.322 85.1679L273.443 86.0132L272.383 87.6194C272.383 87.6194 270.32 96.4363 276.592 98.3467C288.798 102.083 294.429 108.305 294.901 112.523L294.328 116.065L289.757 115.49C289.757 115.49 286.323 105.05 276.97 101.221C267.618 97.3915 270.968 87.9068 270.968 87.9068L269.243 87.2305L271.322 85.1679Z" fill="#45769F"/>
<g style="mix-blend-mode:multiply">
<path d="M113.475 232.401C113.475 232.401 110.899 236.627 116.935 239.797C122.971 242.967 134.832 239.18 140.396 253.889C145.96 268.598 137.871 289.765 138.931 292.268C139.992 294.77 145.666 304.035 148.006 302.412C150.346 300.789 144.782 293.958 145.371 291.355C145.96 288.751 154.084 247.397 146.945 242.857C146.945 242.857 161.357 250.136 159.572 273.594C159.572 273.594 160.338 277.119 163.781 277.559V257.626C163.781 257.626 160.322 240.499 157.687 238.884C155.052 237.27 113.475 232.401 113.475 232.401Z" fill="#A6C6D7"/>
</g>
<path d="M123.072 163.218C123.072 163.218 124.191 169.093 124.629 170.632C125.067 172.17 125.572 174.562 121.051 173.269C118.294 172.415 115.977 170.513 114.595 167.969C114.595 167.969 114.485 157.825 114.157 156.565C113.829 155.306 123.072 163.218 123.072 163.218Z" fill="#BA9881"/>
<path d="M131.7 150.36C131.7 150.36 132.466 161.916 124.478 166.861C122.154 168.299 115.336 163.725 114.822 161.51C114.09 158.357 111.312 152.846 111.286 149.811C111.286 147.706 113.122 145.491 113.122 145.491C113.122 145.491 129.528 141.121 131.7 150.36Z" fill="#D5B28B"/>
<path d="M112.675 142.626C114.241 141.451 115.588 138.729 121.506 138.847C127.424 138.965 133.131 145.914 133.165 148.332C133.199 150.749 132.264 152.406 131.717 151.662C130.033 149.38 127.129 148.458 123.038 147.317C120.723 146.652 118.324 146.327 115.916 146.354C115.916 146.354 117.28 147.554 115.681 149.405C114.081 151.257 114.527 152.482 114.527 152.482C114.527 152.482 113.029 150.183 112.524 151.688C112.204 152.66 113.526 155.813 114.149 155.796C114.149 155.796 114.317 161.139 114.469 161.713C114.469 161.713 110.95 158.129 110.344 154.765C109.637 150.859 109.923 144.697 112.675 142.626Z" fill="#353E39"/>
<path d="M188.076 184.597C190.862 186.287 191.494 193.05 184.456 193.946C184.456 193.946 177.722 186.38 175.272 185.045C173.9 184.301 178.378 178.045 181.644 180.192C185.172 182.509 186.392 183.582 188.076 184.597Z" fill="#C6D9DE"/>
<path d="M164.741 182.424C162.401 183.599 152.813 191.072 152.417 207.615C152.417 207.615 164.16 227.768 168.916 228.597C168.916 228.597 178.025 191.207 186.83 187.665C182.192 184.749 170.002 179.787 164.741 182.424Z" fill="#E4F0F4"/>
<path d="M163.933 179.592C161.593 180.767 152.013 188.24 151.617 204.783C151.617 204.783 163.36 224.936 168.117 225.765C168.117 225.765 177.225 188.375 186.03 184.833C181.384 181.892 169.194 176.955 163.933 179.592Z" fill="#B1B2B9"/>
<path d="M168.226 171.942C165.76 172.846 153.848 184.893 151.617 201.292C151.617 201.292 161.98 220.777 166.618 222.138C166.618 222.138 178.143 178.679 188.076 184.597C183.825 181.173 173.723 169.905 168.226 171.942Z" fill="#E4F0F4"/>
<path d="M175.331 185.687C172.628 182.923 169.649 180.444 166.442 178.29C165.827 177.876 165.255 178.865 165.861 179.28C169 181.382 171.916 183.801 174.565 186.499C174.676 186.563 174.806 186.588 174.934 186.57C175.061 186.551 175.178 186.49 175.267 186.396C175.355 186.303 175.41 186.182 175.422 186.053C175.433 185.924 175.401 185.795 175.331 185.687Z" fill="#B1B2B9"/>
<path d="M171.198 190.514C170.214 189.035 169.046 187.688 167.721 186.507C166.206 185.264 164.606 184.216 163.209 182.83C162.687 182.314 161.879 183.126 162.367 183.675C163.538 184.801 164.79 185.838 166.113 186.778C167.688 188.002 169.06 189.469 170.179 191.123C170.625 191.681 171.619 191.114 171.198 190.514Z" fill="#B1B2B9"/>
<path d="M169.674 196.727C168.925 194.715 167.469 193.388 165.894 191.993C164.084 190.387 162.611 188.435 160.684 186.921C160.103 186.473 159.53 187.471 160.111 187.919C161.795 189.229 163.083 190.971 164.665 192.408C166.248 193.845 167.83 195.02 168.571 197.006C168.824 197.716 169.935 197.42 169.674 196.727Z" fill="#B1B2B9"/>
<path d="M167.258 201.563C164.185 198.181 161.264 194.377 157.771 191.419C157.207 190.945 156.399 191.757 156.929 192.264C160.423 195.223 163.344 199.027 166.408 202.408C166.938 202.924 167.746 202.104 167.258 201.563Z" fill="#B1B2B9"/>
<path d="M163.621 207.007C161.29 204.065 158.31 201.089 156.887 197.606C156.609 196.93 155.498 197.226 155.784 197.911C157.316 201.622 160.372 204.716 162.839 207.818C163.276 208.401 164.084 207.581 163.621 207.007Z" fill="#B1B2B9"/>
<path d="M112.524 167.107C108.142 167.883 103.992 169.646 100.385 172.263C100.385 172.263 100.04 185.62 102.33 193.397C105.335 203.591 106.859 204.386 110.209 212.079C110.209 212.079 128.586 215.654 132.719 213.693C132.719 213.693 131.212 179.034 133.502 173.709C133.502 173.709 128.729 169.829 126.203 168.949C125.294 168.628 124.974 174.267 122.188 173.709C117.162 172.711 112.524 167.107 112.524 167.107Z" fill="#EBFFFD"/>
<path d="M123.998 167.521L122.828 172.787L126.784 176.642L126.397 168.949L123.998 167.521Z" fill="#D1F0FF"/>
<path d="M122.828 172.787L114.553 165.036L112.532 167.107L117.625 176.025L122.828 172.787Z" fill="#D1F0FF"/>
<path d="M122.828 172.787L120.168 174.478C120.884 174.817 121.562 175.234 122.188 175.721C118.627 188.071 129.705 194.005 123.03 205.02L124.175 209.374L128.746 208.799C128.746 208.799 132.113 202.712 127.357 193.439C122.062 183.185 123.602 177.039 123.695 175.738L124.899 174.841L122.828 172.787Z" fill="#45769F"/>
<path d="M152.274 189.922C152.274 189.922 153.654 184.723 155.077 183.937C157.603 182.559 158.781 180.886 159.918 181.401C160.498 181.672 160.279 182.297 159.143 183.641C158.007 184.986 157.459 188.536 156.188 188.536C154.917 188.536 154.968 191.275 154.968 191.275C154.968 191.275 153.377 190.446 152.274 189.922Z" fill="#D5B28B"/>
<path d="M133.502 173.709C133.502 173.709 138.25 184.96 142.635 191.283C144.74 194.318 148.107 196.043 152.274 189.922C152.274 189.922 155.187 190.294 154.968 191.283C153.865 196.355 149.075 201.825 144.479 201.825C139.697 201.825 132.256 187.767 132.256 187.767C132.256 187.767 131.338 177.918 133.502 173.709Z" fill="#E4F0F4"/>
<path d="M133.081 212.603C135.951 224.167 138.679 223.178 145.902 225.393C158.066 229.129 161.18 240.017 166.105 262.148C166.105 262.148 162.847 265.952 162.46 264.397C153.394 228.487 145.026 238.276 130.581 232.773C117.019 227.608 119.25 213.879 119.25 213.879L133.081 212.603Z" fill="#433C44"/>
<path d="M125.42 212.941C128.459 227.126 132.306 225.198 141.347 229.788C152.434 235.427 160.709 261.125 151.289 285.082C151.289 285.082 148.57 287.018 147.375 285.581C151.752 269.748 143.881 243.872 130.042 239.594C121.582 236.991 120.833 238.673 115.15 234.303C109.662 230.076 110.571 214.978 110.571 214.978L125.42 212.941Z" fill="#535054"/>
<path d="M166.096 262.148C165.852 261.565 162.561 264.566 162.561 264.566C162.561 264.566 162.956 268.446 164.244 268.919C165.532 269.393 174.279 269.655 177.233 265.25C180.188 260.846 174.363 264.853 172.898 264.76C171.433 264.667 166.854 263.957 166.096 262.148Z" fill="#433C44"/>
<path d="M147.375 285.581C147.375 285.581 146.449 289.884 147.316 291.042C148.183 292.2 158.015 298.591 161.584 297.5C163.074 297.044 161.197 293.273 159.648 292.361C155.313 289.875 151.289 285.082 151.289 285.082L147.375 285.581Z" fill="#433C44"/>
<path d="M132.668 209.34C132.668 209.34 133.628 212.307 133.081 212.603C132.534 212.899 110.63 215.46 110.63 215.46L110.209 212.079C110.209 212.079 130.269 210.371 132.668 209.34Z" fill="#433C44"/>
<path d="M127.559 210.092C127.559 210.219 128.4 213.473 127.794 213.575L122.685 214.209C122.685 214.209 121.843 210.735 122.39 210.684L127.559 210.092Z" fill="#B1B2B9"/>
<path d="M147.366 176.329L142.896 187.716C142.896 187.716 144.42 191.038 146.71 190.142C146.71 190.142 148.881 182.855 150.708 178.307C151.575 176.135 148.233 175.129 147.366 176.329Z" fill="#535054"/>
<path d="M149.58 173.751C149.58 173.751 148.738 175.518 148.343 176.38C148.065 177.031 149.85 177.919 150.186 177.056C150.397 176.515 151.121 175.366 151.365 174.639C151.516 174.191 149.799 173.531 149.58 173.751Z" fill="#B1B2B9"/>
<path d="M149.488 161.815C146.297 165.196 145.43 170.496 147.543 173.709C149.656 176.921 153.941 176.811 157.131 173.455C160.322 170.099 161.189 164.773 159.076 161.553C156.963 158.332 152.678 158.459 149.488 161.815Z" fill="#45769F"/>
<path d="M149.429 163.598C147.248 166.684 147.122 170.894 149.151 173.007C151.18 175.12 154.581 174.326 156.727 171.232C158.874 168.138 159.034 163.937 157.005 161.832C154.976 159.727 151.601 160.513 149.429 163.598Z" fill="#B1B2B9"/>
<path d="M156.761 171.232C158.123 169.331 158.699 166.974 158.369 164.655C158.149 163.938 157.769 163.282 157.257 162.736C155.229 160.631 151.819 161.417 149.639 164.503C148.278 166.405 147.702 168.761 148.031 171.08C148.248 171.802 148.632 172.462 149.151 173.007C151.171 175.129 154.581 174.326 156.761 171.232Z" fill="#4C7BD8"/>
<path d="M156.172 169.161C154.185 171.959 151.18 172.838 149.159 171.325C149.243 171.426 149.319 171.528 149.412 171.621C151.171 173.455 154.143 172.77 156.037 170.082C156.786 169.017 157.273 167.789 157.459 166.498C157.172 167.448 156.737 168.347 156.172 169.161Z" fill="white"/>
<path d="M100.385 188.265C108.231 195.958 124.848 209.729 145.843 186.355L141.448 183.396C141.448 183.396 133.115 192.881 122.222 190.81C114.957 189.44 109.089 177.115 102.565 172.136C98.8531 169.304 94.4926 182.483 100.385 188.265Z" fill="#E4F0F4"/>
<path d="M141.448 183.396C141.448 183.396 141.625 178.933 143.292 177.656C144.475 176.862 145.876 176.46 147.299 176.507C147.299 176.507 146.752 177.783 146.457 178.662C146.095 179.694 149.824 181.351 150.801 178.011C151.281 176.405 154.479 180.023 151.878 181.553C151.878 181.553 154.033 182.754 151.516 184.022C151.516 184.022 153.638 184.597 151.407 185.856C151.407 185.856 153.158 186.541 150.809 187.412C148.461 188.282 145.843 186.355 145.843 186.355L141.448 183.396Z" fill="#D5B28B"/>
</g>
<defs>
<linearGradient id="paint0_linear_14_174" x1="18.7049" y1="165.086" x2="18.7049" y2="151.654" gradientUnits="userSpaceOnUse">
<stop stop-color="white" stop-opacity="0"/>
<stop offset="1" stop-color="white"/>
</linearGradient>
<linearGradient id="paint1_linear_14_174" x1="18.7049" y1="165.551" x2="18.7049" y2="171.671" gradientUnits="userSpaceOnUse">
<stop stop-color="white" stop-opacity="0"/>
<stop offset="1" stop-color="white" stop-opacity="0.5"/>
</linearGradient>
<clipPath id="clip0_14_174">
<rect width="318" height="328" fill="white"/>
</clipPath>
</defs>
</svg>
