<svg width="56" height="48" viewBox="0 0 56 48" fill="none" xmlns="http://www.w3.org/2000/svg">
<path d="M16.3332 41.962C13.146 41.7522 10.1176 40.6847 7.68038 38.9117C5.2432 37.1388 3.52187 34.7511 2.76218 32.0897C2.00249 29.4282 2.24327 26.6291 3.45016 24.092C4.65705 21.5548 6.76832 19.4094 9.48251 17.962C10.06 14.1022 12.2587 10.555 15.6671 7.98431C19.0754 5.41362 23.4598 3.99559 27.9999 3.99559C32.5399 3.99559 36.9243 5.41362 40.3326 7.98431C43.741 10.555 45.9397 14.1022 46.5172 17.962C49.2314 19.4094 51.3427 21.5548 52.5495 24.092C53.7564 26.6291 53.9972 29.4282 53.2375 32.0897C52.4778 34.7511 50.7565 37.1388 48.3193 38.9117C45.8821 40.6847 42.8537 41.7522 39.6665 41.962V42H16.3332V41.962ZM30.3332 26H37.3332L27.9999 16L18.6665 26H25.6665V34H30.3332V26Z" fill="#5063BF"/>
</svg>
