<svg width="39" height="39" viewBox="0 0 39 39" fill="none" xmlns="http://www.w3.org/2000/svg">
<mask id="path-1-inside-1_317_1758" fill="white">
<path d="M0 19.3072C0 8.64413 8.83693 0 19.5 0C30.1631 0 39 8.64413 39 19.3072C39 29.9703 30.1631 38.6144 19.5 38.6144C8.83693 38.6144 0 29.9703 0 19.3072Z"/>
</mask>
<path d="M29.25 20.3072C29.8023 20.3072 30.25 19.8595 30.25 19.3072C30.25 18.7549 29.8023 18.3072 29.25 18.3072V20.3072ZM11.9679 18.6001C11.5774 18.9906 11.5774 19.6238 11.9679 20.0143L18.3319 26.3783C18.7224 26.7688 19.3555 26.7688 19.7461 26.3783C20.1366 25.9877 20.1366 25.3546 19.7461 24.964L14.0892 19.3072L19.7461 13.6503C20.1366 13.2598 20.1366 12.6266 19.7461 12.2361C19.3555 11.8456 18.7224 11.8456 18.3319 12.2361L11.9679 18.6001ZM29.25 18.3072H12.675V20.3072H29.25V18.3072ZM19.5 36.6144C9.91558 36.6144 2 28.84 2 19.3072H-2C-2 31.1006 7.75828 40.6144 19.5 40.6144V36.6144ZM37 19.3072C37 28.84 29.0844 36.6144 19.5 36.6144V40.6144C31.2417 40.6144 41 31.1006 41 19.3072H37ZM19.5 2C29.0844 2 37 9.77445 37 19.3072H41C41 7.51382 31.2417 -2 19.5 -2V2ZM19.5 -2C7.75828 -2 -2 7.51382 -2 19.3072H2C2 9.77445 9.91558 2 19.5 2V-2Z" fill="#052262" mask="url(#path-1-inside-1_317_1758)"/>
</svg>
